<?xml version="1.0" encoding="utf-8"?>
<!-- Generator: Adobe Illustrator 26.2.1, SVG Export Plug-In . SVG Version: 6.00 Build 0)  -->
<svg version="1.1" id="Capa_1" xmlns="http://www.w3.org/2000/svg" xmlns:xlink="http://www.w3.org/1999/xlink" x="0px" y="0px"
	 viewBox="0 0 446 446" style="enable-background:new 0 0 446 446;" xml:space="preserve">
<style type="text/css">
	.st0{fill:#A13230;}
</style>
<path class="st0" d="M223.7,419.6C115.2,419.6,27,331.4,27,222.9C27,144,74.5,73.3,145.4,42.5l-16.6,27c-2.4,4.6-0.9,10.3,3.5,13
	c4.4,2.7,10.2,1.5,13.2-2.7L176.7,29c1.7-2.7,1.9-6,0.7-9c-1.2-2.9-3.8-5.1-6.9-5.8l-62.3-14C103-0.9,97.9,2.5,96.7,7.7
	c-1.2,5.2,2,10.4,7.2,11.7l29.9,6.8c-32,14.7-59.9,36.9-81.5,64.7C2,156.3-6.8,244.5,29.6,318.5s111.7,120.8,194.1,120.8
	c5.4,0,9.8-4.4,9.8-9.8S229.1,419.6,223.7,419.6z"/>
<path class="st0" d="M376.6,70C336.1,29.3,281,6.5,223.6,6.6c-5.4,0-9.8,4.4-9.8,9.8s4.4,9.8,9.8,9.8
	c108.4,0,196.7,88.2,196.7,196.7c0,78.9-47.5,149.7-118.4,180.4l16.6-27c2.8-4.6,1.4-10.7-3.2-13.5s-10.7-1.4-13.5,3.2l-31.1,50.7
	c-1.7,2.7-1.9,6-0.7,9c1.2,2.9,3.8,5.1,6.9,5.8l62.3,14.1c5.2,1.1,10.4-2.3,11.5-7.5c1.2-5.2-2-10.4-7.2-11.7l-29.9-6.9
	c32-14.7,59.9-36.9,81.5-64.7C461.4,268.9,453.5,146.9,376.6,70L376.6,70z"/>
<path class="st0" d="M119.6,240.4c9.9-6.4,16.7-12.1,20.3-17.1c3.6-5.1,5.4-11.5,5.4-19.2c0-9.4-3.2-17.1-9.5-23.1s-14.5-9-24.6-8.9
	c-10.8,0-19.2,3.2-25.4,9.7c-6.1,6.5-9,15.2-8.7,26.3h19.7c-0.2-5.9,1-10.6,3.6-14.1c2.5-3.4,6.5-5.3,10.7-5.2
	c3.9-0.2,7.7,1.3,10.4,4.1c2.6,2.8,3.9,6.4,3.9,10.9c0,4.1-1.3,8-3.6,11.3c-2.4,3.4-6.5,7.1-12.3,11.2c-13,9.1-21.9,17-26.6,23.7
	s-7.1,14.7-7.1,24h69.5v-17.6h-44.6l0.1-0.1C104.2,251.5,110.4,246.2,119.6,240.4z"/>
<path class="st0" d="M150.5,242.8v8.7h40.3v22.4h19.7v-22.4H222v-15.9h-11.4V172h-22.4l-37.7,62.2L150.5,242.8L150.5,242.8z
	 M166.1,234.2l24.7-41.1v42.5h-25.6L166.1,234.2z"/>
<path class="st0" d="M313.8,273.9h20.6c1.4-15.6,5.4-31,11.7-45.3c6.2-14.5,14.7-27.8,25.3-39.4V174h-72.1v17.6h50.5
	c-9.7,11.1-17.6,23.5-23.6,36.9C319.7,242.9,315.4,258.2,313.8,273.9z"/>
<path class="st0" d="M295.1,113.9c-5.2-1.6-10.7,1.3-12.3,6.5l-61.5,199.3c-1.6,5.2,1.3,10.7,6.5,12.3c1,0.3,2,0.5,3,0.4
	c4.3,0,8.1-2.8,9.4-6.9l61.5-199.3c0.8-2.5,0.5-5.2-0.7-7.5C299.7,116.4,297.6,114.7,295.1,113.9z"/>
</svg>
