<?xml version="1.0" encoding="utf-8"?>
<!-- Generator: Adobe Illustrator 26.2.1, SVG Export Plug-In . SVG Version: 6.00 Build 0)  -->
<svg version="1.1" id="Layer_1" xmlns="http://www.w3.org/2000/svg" xmlns:xlink="http://www.w3.org/1999/xlink" x="0px" y="0px"
	 viewBox="0 0 462 446" style="enable-background:new 0 0 462 446;" xml:space="preserve">
<style type="text/css">
	.st0{fill:#A13230;}
</style>
<g>
	<g id="LINE_304_">
		<g>
			<path class="st0" d="M342.6,337.2c-4.4,0-8-3.6-8-8v-64c0-4.4,3.6-8,8-8s8,3.6,8,8v64C350.6,333.6,347,337.2,342.6,337.2z"/>
		</g>
	</g>
	<g id="LINE_305_">
		<g>
			<path class="st0" d="M406.6,337.2h-64c-4.4,0-8-3.6-8-8s3.6-8,8-8h64c4.4,0,8,3.6,8,8S411,337.2,406.6,337.2z"/>
		</g>
	</g>
	<g id="LWPOLYLINE_55_">
		<g>
			<path class="st0" d="M188.9,417.2c-1.4,0-2.8-0.4-4-1.1l-166.3-96c-2.5-1.4-4-4.1-4-6.9v-192c0-2.9,1.5-5.5,4-6.9l166.3-96
				c2.5-1.4,5.5-1.4,8,0l166.3,96c2.5,1.4,4,4.1,4,6.9v80.6c0,4.4-3.6,8-8,8s-8-3.6-8-8v-76L188.9,34.4L30.6,125.8v182.8L188.9,400
				l35.3-20.4c3.8-2.2,8.7-0.9,10.9,2.9s0.9,8.7-2.9,10.9l-39.3,22.7C191.6,416.8,190.2,417.2,188.9,417.2z"/>
		</g>
	</g>
	<g id="CIRCLE_14_">
		<g>
			<path class="st0" d="M341.8,433.1L341.8,433.1c-10,0-19.9-1.5-29.5-4.4c-36.8-11.2-65.1-42.8-72-80.6
				c-7.1-38.5,8.5-78.5,39.8-102.1c17.8-13.4,40-20.8,62.7-20.8c16.4,0,32.6,3.9,47,11.2c34.5,17.6,56.8,54,56.8,92.7
				c0,27.9-11.2,54.2-31.7,73.9C395.2,422.2,368.6,433.1,341.8,433.1L341.8,433.1z M342.8,241.3c-19.2,0-38.1,6.2-53.1,17.5
				c-26.4,19.9-39.7,53.8-33.7,86.4c5.9,32,29.8,58.7,61,68.2c30,9.1,63.9,0.4,86.8-21.8c17.3-16.7,26.8-38.9,26.8-62.4
				c0-32.8-18.9-63.6-48.1-78.4C370.4,244.6,356.7,241.3,342.8,241.3z"/>
		</g>
	</g>
	<g id="LINE_306_">
		<g>
			<path class="st0" d="M89.7,167.9c-2.8,0-5.5-1.4-6.9-4c-2.2-3.8-0.9-8.7,2.9-10.9L252,57c3.8-2.2,8.7-0.9,10.9,2.9
				c2.2,3.8,0.9,8.7-2.9,10.9l-166.3,96C92.5,167.6,91.1,167.9,89.7,167.9L89.7,167.9z"/>
		</g>
	</g>
	<g id="LINE_307_">
		<g>
			<path class="st0" d="M121.7,186.4c-2.8,0-5.5-1.4-6.9-4c-2.2-3.8-0.9-8.7,2.9-10.9l166.3-96c3.8-2.2,8.7-0.9,10.9,2.9
				c2.2,3.8,0.9,8.7-2.9,10.9l-166.3,96C124.5,186.1,123.1,186.4,121.7,186.4L121.7,186.4z"/>
		</g>
	</g>
	<g id="LINE_308_">
		<g>
			<path class="st0" d="M121.7,241.8c-4.4,0-8-3.6-8-8v-55.4c0-4.4,3.6-8,8-8s8,3.6,8,8v55.4C129.7,238.2,126.1,241.8,121.7,241.8z"
				/>
		</g>
	</g>
	<g id="LINE_309_">
		<g>
			<path class="st0" d="M121.7,241.8c-1.4,0-2.7-0.3-4-1.1l-32-18.5c-3.8-2.2-5.1-7.1-2.9-10.9s7.1-5.2,10.9-2.9l32,18.5
				c3.8,2.2,5.1,7.1,2.9,10.9C127.2,240.4,124.5,241.8,121.7,241.8L121.7,241.8z"/>
		</g>
	</g>
	<g id="LINE_310_">
		<g>
			<path class="st0" d="M89.7,223.4c-4.4,0-8-3.6-8-8V160c0-4.4,3.6-8,8-8s8,3.6,8,8v55.4C97.7,219.8,94.1,223.4,89.7,223.4z"/>
		</g>
	</g>
	<g id="LINE_311_">
		<g>
			<path class="st0" d="M188.9,417.2c-4.4,0-8-3.6-8-8v-192c0-4.4,3.6-8,8-8s8,3.6,8,8v192C196.9,413.6,193.3,417.2,188.9,417.2z"/>
		</g>
	</g>
	<g id="LINE_312_">
		<g>
			<path class="st0" d="M188.9,225.2c-1.4,0-2.7-0.3-4-1.1l-166.3-96c-3.8-2.2-5.1-7.1-2.9-10.9s7.1-5.1,10.9-2.9l166.3,96
				c3.8,2.2,5.1,7.1,2.9,10.9C194.3,223.7,191.6,225.2,188.9,225.2L188.9,225.2z"/>
		</g>
	</g>
	<g id="LINE_313_">
		<g>
			<path class="st0" d="M188.9,225.2c-2.8,0-5.5-1.4-6.9-4c-2.2-3.8-0.9-8.7,2.9-10.9l166.3-96c3.8-2.2,8.7-0.9,10.9,2.9
				c2.2,3.8,0.9,8.7-2.9,10.9l-166.3,96C191.6,224.8,190.2,225.2,188.9,225.2z"/>
		</g>
	</g>
</g>
</svg>
