<?xml version="1.0" encoding="utf-8"?>
<!-- Generator: Adobe Illustrator 26.2.1, SVG Export Plug-In . SVG Version: 6.00 Build 0)  -->
<svg version="1.1" id="Your_Icons" xmlns="http://www.w3.org/2000/svg" xmlns:xlink="http://www.w3.org/1999/xlink" x="0px" y="0px"
	 viewBox="0 0 290 333" style="enable-background:new 0 0 290 333;" xml:space="preserve">
<style type="text/css">
	.st0{fill:#A13230;}
</style>
<path class="st0" d="M278.6,59.2c-0.8-23-19.7-41.1-42.7-40.9c-14.7-0.4-28.7,6.5-37.3,18.5c-9.4-12.7-24.7-19.6-40.5-18.2
	c-20,1.4-36.3,16.4-39.3,36.2H47.3c-14.7,0-26.7,11.9-26.7,26.7v205.2c0,3.1,0.6,6.3,1.7,9.2c3.8,10.1,13.6,16.8,24.4,16.6
	c3.1-0.1,6.1-0.7,9-1.8l59.1-20.2c6.8-2.3,14.1-2.3,20.9,0l59.2,20.2c13.3,4.9,28.1-1.7,33.3-14.9c1.1-2.9,1.6-5.9,1.6-9V139.1
	l21.3-19.6C268.5,104.3,278.5,82.3,278.6,59.2L278.6,59.2z M216.5,286.8c0,1.5-0.3,3-0.8,4.5c-2.7,6.3-9.9,9.4-16.4,7L140.1,278
	c-9.6-3.3-20-3.3-29.7,0l-59.2,20.3c-6.5,2.4-13.7-0.7-16.4-7c-0.5-1.4-0.8-3-0.8-4.5V81.2C34.1,73.9,40,68,47.3,68h71.8
	c2.4,19.6,11.9,37.7,26.7,50.9l38.7,35.5c8.2,7.3,20.5,7.3,28.7,0l3.5-3.1L216.5,286.8z M204,144.6c-3.1,2.6-7.6,2.6-10.7,0
	l-38.7-35.3c-14.4-12.7-22.6-30.9-22.7-50.1c0.6-14.8,12.4-26.7,27.3-27.4c0.9-0.1,1.8-0.1,2.7,0c12.1-0.4,23.3,6.6,28.3,17.7
	c1.5,3.3,4.8,5.4,8.4,5.3c3.7,0,7-2.2,8.4-5.6c5.1-11.3,16.6-18.3,28.9-17.6c15.8-0.3,28.8,12.1,29.4,27.9
	c-0.1,19.2-8.5,37.5-22.9,50.2L204,144.6z"/>
<path class="st0" d="M173,177.3h-41.3V136c0-3.7-3-6.7-6.7-6.7s-6.7,3-6.7,6.7v41.2H77c-3.7,0-6.7,3-6.7,6.7s3,6.7,6.7,6.7h41.2V232
	c0,3.7,3,6.7,6.7,6.7s6.7-3,6.7-6.7v-41.3H173c3.7,0,6.7-3,6.7-6.7S176.7,177.3,173,177.3z"/>
</svg>
