<?xml version="1.0" encoding="UTF-8"?><svg id="a" xmlns="http://www.w3.org/2000/svg" viewBox="0 0 500 500"><defs><style>.b{fill:#fff;}.b,.c{fill-rule:evenodd;}</style></defs><polygon class="c" points="463.83 314 463.83 289.49 36.57 289.49 36.57 314 463.83 314"/><path class="b" d="M47.35,292.76h13.56c3.27,0,7.19,1.31,7.19,5.23s-3.92,5.23-7.35,5.23h-9.8v8.01h-3.59v-18.46h0Zm3.43,8.33h8.33c3.27,0,5.23-.82,5.23-3.1,0-1.96-1.31-3.1-4.57-3.1h-8.99v6.21h0Z"/><path class="b" d="M81.5,292.76h12.25c4.41,0,8.66,1.14,8.66,5.23,0,2.45-1.47,4.57-6.05,5.23l7.35,7.84h-4.41l-7.35-7.84h-7.03v8.01h-3.43v-18.46h0Zm3.59,8.5h8.33c3.27,0,5.72-.82,5.72-3.27s-2.45-3.1-5.72-3.1h-8.33v6.37h0Z"/><path class="b" d="M126.92,292.43c6.7,0,10.95,3.92,10.95,9.64s-4.08,9.64-10.95,9.64-10.95-3.92-10.95-9.64,4.25-9.64,10.95-9.64h0Zm0,17.16c5.39,0,7.84-3.76,7.84-7.68s-2.45-7.68-7.84-7.68-7.84,3.76-7.84,7.68,2.61,7.68,7.84,7.68h0Z"/><polygon class="b" points="150.28 292.76 167.6 292.76 167.6 295.05 153.88 295.05 153.88 300.44 166.79 300.44 166.79 302.4 153.88 302.4 153.88 311.22 150.28 311.22 150.28 292.76"/><polygon class="b" points="183.13 292.76 202.41 292.76 202.41 295.05 186.72 295.05 186.72 300.6 200.12 300.6 200.12 302.56 186.72 302.56 186.72 308.93 202.57 308.93 202.57 311.22 183.13 311.22 183.13 292.76"/><path class="b" d="M229.85,295.7c-1.96-.49-3.1-.65-5.23-.65s-4.57,.49-4.57,2.45c0,3.43,11.6,2.61,11.6,8.5,0,3.92-4.41,5.39-9.8,5.39-1.96,0-3.92-.49-5.72-.65l.49-2.61c1.31,.49,3.76,1.14,5.72,1.14,2.12,0,5.23-.82,5.23-3.1,0-4.08-11.6-2.78-11.6-8.5,0-3.27,3.76-5.07,8.66-5.07,1.8,0,3.92,.16,5.72,.65l-.49,2.45h0Z"/><path class="b" d="M259.43,295.7c-1.96-.49-3.1-.65-5.07-.65-2.12,0-4.74,.49-4.74,2.45,0,3.43,11.76,2.61,11.76,8.5,0,3.92-4.57,5.39-9.97,5.39-1.8,0-3.76-.49-5.39-.65l.49-2.61c1.31,.49,3.43,1.14,5.39,1.14,2.45,0,5.39-.82,5.39-3.1,0-4.08-11.76-2.78-11.76-8.5,0-3.27,3.92-5.07,8.66-5.07,1.96,0,3.92,.16,5.88,.65l-.65,2.45h0Z"/><polygon class="b" points="276.75 292.76 280.34 292.76 280.34 311.22 276.75 311.22 276.75 292.76"/><path class="b" d="M306.16,292.43c6.7,0,10.95,3.92,10.95,9.64s-4.08,9.64-10.95,9.64-10.95-3.92-10.95-9.64,4.08-9.64,10.95-9.64h0Zm0,17.16c5.23,0,7.84-3.76,7.84-7.68s-2.61-7.68-7.84-7.68-7.84,3.76-7.84,7.68c0,3.92,2.29,7.68,7.84,7.68h0Z"/><polygon class="b" points="329.52 292.76 332.95 292.76 347.33 307.3 347.49 307.3 347.49 292.76 350.76 292.76 350.76 311.22 347.33 311.22 332.95 296.68 332.79 296.68 332.79 311.22 329.52 311.22 329.52 292.76"/><polygon class="b" points="366.45 292.76 370.21 292.76 384.58 307.3 384.58 307.3 384.58 292.76 387.85 292.76 387.85 311.22 384.42 311.22 370.04 296.68 369.88 296.68 369.88 311.22 366.45 311.22 366.45 292.76"/><polygon class="b" points="403.54 292.76 422.82 292.76 422.82 295.05 407.29 295.05 407.29 300.6 420.53 300.6 420.53 302.56 407.29 302.56 407.29 308.93 422.98 308.93 422.98 311.22 403.54 311.22 403.54 292.76"/><polygon class="b" points="437.19 292.76 440.63 292.76 440.63 308.93 454.35 308.93 454.35 311.22 437.19 311.22 437.19 292.76"/><path class="c" d="M423.63,263.02h1.47c.65,0,.82,.16,1.14,.49,.16,.16,.16,.49,.16,.65,0,.49-.16,.82-1.31,.82h-1.47v-1.96h0Zm0,5.56v-2.61h1.96c1.31,0,2.45-.65,2.45-1.96,0-.65-.49-1.31-1.14-1.8-.49-.16-.82-.16-1.47-.16h-3.1v6.54h1.31Z"/><path class="c" d="M432.95,265.96l1.14-2.78,1.14,2.78h-2.29Zm2.29-3.92h-1.8l-2.45,6.54h1.14l.65-1.47h2.78l.65,1.47h1.31l-2.29-6.54h0Z"/><path class="c" d="M443.24,263.02h1.8c1.14,0,1.31,.49,1.31,1.14s-.65,.82-1.31,.82h-1.8v-1.96h0Zm4.57,5.56l-1.31-2.78c.16-.16,1.31-.65,1.31-1.8,0-.65-.16-1.14-.65-1.47-.49-.16-1.14-.49-1.96-.49h-3.27v6.54h1.31v-2.78h1.96l1.14,2.78h1.47Z"/><polygon class="c" points="452.39 262.04 454.02 262.04 454.02 268.58 452.39 268.58 452.39 262.04"/><path class="c" d="M459.42,266.62c0,.16,.16,.65,.82,.82,.49,.16,.65,.16,.82,.16,1.31,0,1.47-.65,1.47-.82,0-.65-.65-.82-.82-.82l-1.8-.49c-1.14-.16-1.47-.82-1.47-1.8,0-1.14,1.14-1.96,2.61-1.96,.65,0,1.47,.16,1.96,.65,.49,.16,.65,.65,.65,.82l-1.31,.16c0-.16-.16-.65-1.31-.65s-1.31,.49-1.31,.65c0,.65,.65,.82,1.14,.82l1.31,.16c.65,.16,1.96,.49,1.96,1.96,0,1.31-1.31,1.96-3.1,1.96-.82,0-1.8-.16-2.45-.65-.49-.16-.49-.65-.65-.82l1.47-.16h0Z"/><polygon class="c" points="268.9 278.05 323.97 278.05 323.97 271.19 278.38 271.19 278.38 249.95 312.69 249.95 312.69 242.93 278.38 242.93 278.38 222.99 323.97 222.99 323.97 216.29 268.9 216.29 268.9 278.05"/><polygon class="c" points="297.66 206.49 290.14 214.82 313.51 206.49 297.66 206.49"/><polygon class="c" points="416.61 271.19 416.61 216.29 407.95 216.29 407.95 278.05 463.83 278.05 463.83 271.19 416.61 271.19"/><path class="c" d="M359.75,216.29l-31.37,61.76h10.62l8.01-15.85h37.58l8.01,15.85h10.46l-31.21-61.76h-12.09Zm-8.66,38.23l14.87-29.41,14.87,29.41h-29.74Z"/><path class="c" d="M239,252.24c14.21-3.76,15.52-14.21,15.52-18.14-.82-10.95-8.33-17.81-21.57-17.81h-38.89v61.76h8.66v-25.82h25.33l18.79,25.65h11.11c0,.16-13.56-17.32-18.95-25.65h0Zm-7.52-7.35h-28.76v-21.24h29.9c6.7,0,10.62,3.27,11.93,7.19,1.14,2.78,.49,6.54-1.14,8.99-2.29,4.25-7.03,5.07-11.93,5.07h0Z"/><path class="c" d="M140.81,206c-25,0-42.15,17.48-42.15,38.89s18.79,38.4,42.15,38.4,41.83-15.69,41.83-38.4c.16-21.4-17.16-38.89-41.83-38.89h0Zm-.33,69.6c-17.16,0-31.53-13.89-31.53-30.72s13.72-31.21,32.19-31.21,31.53,14.54,31.53,31.21-14.87,30.72-32.19,30.72h0Z"/><polygon class="c" points="76.27 238.35 82.8 238.35 94.41 216.29 85.09 216.29 76.27 238.35"/><polygon class="c" points="45.22 271.19 45.22 216.29 36.57 216.29 36.57 278.05 92.28 278.05 92.28 271.19 45.22 271.19"/></svg>