<?xml version="1.0" encoding="UTF-8"?><svg id="a" xmlns="http://www.w3.org/2000/svg" xmlns:xlink="http://www.w3.org/1999/xlink" viewBox="0 0 500 500"><defs><style>.c{fill:url(#b);}.d{fill:#1d1d1b;}</style><linearGradient id="b" x1="130.65" y1="322.5" x2="245.68" y2="322.5" gradientTransform="matrix(1, 0, 0, 1, 0, 0)" gradientUnits="userSpaceOnUse"><stop offset="0" stop-color="#fff"/><stop offset="1" stop-color="#1d1d1b"/></linearGradient></defs><path class="d" d="M303.85,136s-46.53,12.45-69.19,40.62c-6.53,7.96-22.66,28.37-1.22,38.17,9.18,3.67,35.51,4.29,75.72-8.98-18.37,6.74-65.11,27.76-97.56,16.53-17.55-6.12-9.39-26.94-3.88-34.7,5.71-8.57,32.45-41.02,96.13-51.64Z"/><path class="d" d="M238.72,242.98s29.97-8.02,44.56-26.16c4.21-5.13,14.59-18.27,.79-24.58-5.91-2.37-22.87-2.76-48.76,5.78,11.83-4.34,41.93-17.88,62.83-10.65,11.3,3.94,6.05,17.35,2.5,22.34-3.68,5.52-20.9,26.42-61.91,33.25Z"/><g><path class="d" d="M176.44,294.3c-4.33,3.58-10.75,6.34-19.7,6.34-13.66,0-24.93-11.04-24.93-26.57,0-16.72,10.82-28.36,24.03-28.36,6.87,0,12.46,3.96,14.48,3.96,1.57,0,2.24-.97,2.24-2.39h1.34v17.16h-1.34c-1.04-8.81-6.57-17.39-16.19-17.39s-12.01,11.04-12.01,26.12c0,23.21,5.07,26.12,12.16,26.12,4.93,0,8.73-2.46,8.73-7.99v-8.28h-5.52v-1.34h21.04v1.34h-4.33v11.27Z"/><path class="d" d="M183.31,298.1h.97c2.84-.22,4.18-2.01,5.07-4.48l17.31-47.91h1.12l20,52.39h3.66v1.34h-22.24v-1.34h5.97l-5.45-15.52h-14.48l-3.58,10.52c-.22,.6-.52,1.42-.52,2.24,0,2.46,2.09,2.76,3.58,2.76h2.09v1.34h-13.51v-1.34Zm25.82-16.87l-6.49-18.88h-.15l-6.64,18.88h13.28Z"/><path class="d" d="M242.63,288.25c3.36,0,6.04,2.69,6.04,6.04s-2.69,6.04-6.04,6.04-6.04-2.69-6.04-6.04,2.69-6.04,6.04-6.04Z"/><path class="d" d="M254.65,298.1h.3c5,0,5.75-3.21,5.75-6.42v-43.43h-5.67v-1.34h19.1l12.39,36.04h.15l12.61-36.04h17.98v1.34h-5.6v49.85h5.6v1.34h-23.66v-1.34h6.42v-48.51h-.15l-17.39,49.85h-2.02l-17.83-50.75h-.15v42.31c0,6.04,1.57,7.09,5.6,7.09h1.04v1.34h-14.48v-1.34Z"/><path class="d" d="M320.17,298.1h.97c2.84-.22,4.18-2.01,5.07-4.48l17.31-47.91h1.12l20,52.39h3.66v1.34h-22.24v-1.34h5.97l-5.45-15.52h-14.48l-3.58,10.52c-.22,.6-.52,1.42-.52,2.24,0,2.46,2.09,2.76,3.58,2.76h2.09v1.34h-13.51v-1.34Zm25.82-16.87l-6.49-18.88h-.15l-6.64,18.88h13.28Z"/></g><g><path class="d" d="M255.02,335.78h3.22v-26.55h-3.22v-.72h12.64v.72h-3.22v26.55h3.22v.72h-12.64v-.72Z"/><path class="d" d="M275.72,335.78h3.7v-26.55h-1.63c-5.17,0-6.48,3.62-7.07,7.99h-.72v-8.7h25.04v8.7h-.72c-.6-4.37-1.91-7.99-7.07-7.99h-1.63v26.55h3.7v.72h-13.59v-.72Z"/><path class="d" d="M293.45,335.78h.52c1.51-.12,2.23-1.07,2.7-2.39l9.22-25.52h.6l10.65,27.9h1.95v.72h-11.84v-.72h3.18l-2.9-8.27h-7.71l-1.91,5.6c-.12,.32-.28,.75-.28,1.19,0,1.31,1.11,1.47,1.91,1.47h1.11v.72h-7.19v-.72Zm13.75-8.98l-3.46-10.06h-.08l-3.54,10.06h7.08Z"/><path class="d" d="M320.76,335.78h3.22v-26.55h-3.22v-.72h13v.72h-3.58v26.55h4.57c7.03,0,8.62-3.42,8.62-8.03v-.79h.72v9.54h-23.33v-.72Z"/><path class="d" d="M349.62,335.78h3.06v-9.02l-7.71-17.53h-2.62v-.72h12.24v.72h-2.86l6.56,15.02,4.73-10.73c.48-1.15,.79-2.07,.79-2.74,0-1.03-.6-1.55-2.38-1.55h-.52v-.72h7.15v.72h-.28c-1.35,0-2.27,.76-3.5,3.74l-5.4,12.12v10.69h3.06v.72h-12.32v-.72Z"/></g><g><path class="d" d="M131.63,359.89h1.51v-12.46h-1.51v-.34h6.66c3.26,0,4.79,1.21,4.79,3.51s-2.2,3.73-5.02,3.73c-.78,0-1.46-.02-2.01-.07v5.63h1.85v.34h-6.27v-.34Zm4.42-5.99c.22,.06,.52,.09,.78,.09,2.22,0,3.12-1.08,3.12-3.28,0-2.37-.37-3.28-2.39-3.28h-1.51v6.47Z"/><path class="d" d="M151.85,359.89h1.51v-12.46h-1.51v-.34h5.86c2.05,0,5.37,.34,5.37,3.08,0,2.26-2.5,3-4.38,3.13v.04c2.74,.24,4.09,1.31,4.12,3.3,.04,2.93,.3,3.21,1.04,3.21,.19,0,.47-.11,.67-.24l.13,.28c-.65,.48-1.57,.63-2.28,.63-2,0-2.48-1.42-2.48-3.47,0-3-.73-3.45-2.65-3.49h-.99v6.32h1.57v.34h-5.99v-.34Zm4.42-6.66h1.04c2.15-.11,2.69-.93,2.63-3.27,0-2.31-.73-2.54-2.31-2.54h-1.36v5.8Z"/><path class="d" d="M179.33,346.8c3.53,0,5.93,3.21,5.93,6.87,.07,3.49-2.63,6.87-5.93,6.87s-6.01-3.38-5.93-6.87c0-3.66,2.41-6.87,5.93-6.87Zm2.8,6.87c0-5.9-1.36-6.53-2.8-6.53s-2.8,.63-2.8,6.53c0,4.74,.62,6.53,2.8,6.53s2.8-1.79,2.8-6.53Z"/><path class="d" d="M194.35,359.89h1.51v-12.46h-1.51v-.34h10.63v3.71h-.34v-.3c0-1.62-1.36-3.08-3.99-3.08h-1.88v5.71h1.06c1.49,0,2.37-.69,2.37-2.33v-.34h.34v5.9h-.34v-.34c0-1.74-.75-2.56-2.57-2.56h-.86v6.42h1.87v.34h-6.29v-.34Z"/><path class="d" d="M213.44,359.89h1.51v-12.46h-1.51v-.34h10.43v3.71h-.34v-.26c0-1.7-1.25-3.12-3.47-3.12h-2.2v5.71h1.29c1.21,0,1.85-.69,1.85-2.46v-.21h.34v5.9h-.34v-.43c0-1.32-.63-2.46-1.85-2.46h-1.29v6.42h2.69c3.06,0,3.51-2.54,3.51-3.6v-.26h.34v4.2h-10.95v-.34Z"/><path class="d" d="M234.37,355.28h.34c.45,2.11,1.87,4.91,4.38,4.91,1.6,0,2.69-.99,2.69-2.63,0-4.07-7.44-1.14-7.44-6.75,0-2.46,1.64-4.01,4.1-4.01,1.88,0,2.48,1.01,3.32,1.01,.56,0,.6-.48,.6-.73h.34v4.2h-.34c-.47-1.98-1.51-4.14-3.86-4.14-1.42,0-2.48,.95-2.48,2.39,0,3.6,7.56,.77,7.56,6.31,0,2.91-1.64,4.7-4.27,4.7-1.62,0-3.15-.97-3.9-.97-.5,0-.69,.34-.69,.69h-.34v-4.96Z"/><path class="d" d="M253.55,355.28h.34c.45,2.11,1.87,4.91,4.38,4.91,1.6,0,2.69-.99,2.69-2.63,0-4.07-7.44-1.14-7.44-6.75,0-2.46,1.64-4.01,4.1-4.01,1.88,0,2.48,1.01,3.32,1.01,.56,0,.6-.48,.6-.73h.34v4.2h-.34c-.47-1.98-1.51-4.14-3.86-4.14-1.42,0-2.48,.95-2.48,2.39,0,3.6,7.56,.77,7.56,6.31,0,2.91-1.64,4.7-4.27,4.7-1.62,0-3.15-.97-3.9-.97-.5,0-.69,.34-.69,.69h-.34v-4.96Z"/><path class="d" d="M272.28,359.89h1.51v-12.46h-1.51v-.34h5.93v.34h-1.51v12.46h1.51v.34h-5.93v-.34Z"/><path class="d" d="M293.4,346.8c3.53,0,5.93,3.21,5.93,6.87,.07,3.49-2.63,6.87-5.93,6.87s-6.01-3.38-5.93-6.87c0-3.66,2.41-6.87,5.93-6.87Zm2.8,6.87c0-5.9-1.36-6.53-2.8-6.53s-2.8,.63-2.8,6.53c0,4.74,.62,6.53,2.8,6.53s2.8-1.79,2.8-6.53Z"/><path class="d" d="M308.21,359.89h.34c.58,0,1.12-.21,1.12-1.34v-10.02l-.82-1.1h-.58v-.34h3.84l7.03,9.05h.04v-7.65c0-.71-.45-1.06-1.27-1.06h-.35v-.34h3.53v.34h-.26c-.84,0-1.19,.54-1.19,1.01v12.01h-.78l-8.69-11.34h-.04v9.53c0,1.06,.41,1.25,1.46,1.25h.17v.34h-3.53v-.34Z"/><path class="d" d="M329.37,359.89h.24c.71-.06,1.04-.5,1.27-1.12l4.33-11.98h.28l5,13.1h.91v.34h-5.56v-.34h1.49l-1.36-3.88h-3.62l-.9,2.63c-.06,.15-.13,.35-.13,.56,0,.62,.52,.69,.9,.69h.52v.34h-3.38v-.34Zm6.46-4.22l-1.62-4.72h-.04l-1.66,4.72h3.32Z"/><path class="d" d="M349.89,359.89h1.51v-12.46h-1.51v-.34h6.1v.34h-1.68v12.46h2.15c3.3,0,4.05-1.6,4.05-3.77v-.37h.34v4.48h-10.95v-.34Z"/></g><path class="d" d="M355.34,252.96c0-4.15,3.37-7.21,7.35-7.21s7.31,3.06,7.31,7.21-3.37,7.25-7.31,7.25-7.35-3.06-7.35-7.25Zm7.35,6.05c3.27,0,5.85-2.56,5.85-6.05s-2.58-6.01-5.85-6.01-5.89,2.58-5.89,6.01,2.58,6.05,5.89,6.05Zm-1.53-1.86h-1.26v-8.34h3.18c1.97,0,2.95,.73,2.95,2.37,0,1.49-.94,2.14-2.16,2.3l2.37,3.67h-1.42l-2.2-3.62h-1.45v3.62Zm1.51-4.69c1.07,0,2.03-.08,2.03-1.36,0-1.03-.94-1.22-1.82-1.22h-1.72v2.58h1.51Z"/><rect class="c" x="130.65" y="308.51" width="115.03" height="27.98"/></svg>