<?xml version="1.0" encoding="UTF-8"?><svg xmlns="http://www.w3.org/2000/svg" viewBox="0 0 500 500"><g id="a"><g><path id="b" d="M38.15,258.9c0,16.4,12.7,28.2,27.3,28.2s27.6-11.9,27.6-28.6-13.2-28.4-27.6-28.4c-14.3,0-27.3,11.7-27.3,28.8m61.7-.3c0,19.6-14.9,35-34.2,35s-34.2-16-34.2-34.7c0-19.8,15-35.3,33.7-35.3,19.7,0,34.7,15.2,34.7,35"/><polygon id="c" points="119.65 225.3 126.15 225.3 126.15 285.4 151.15 285.4 151.15 291.9 119.65 291.9 119.65 225.3"/><path id="d" d="M193.95,239.4l-11.2,24.1h22.2l-11-24.1Zm.9-14.1l30.3,66.6h-7l-10.2-21.9h-28l-10.2,21.9h-7.2l30.7-66.6h1.6Z"/><path id="e" d="M248.45,231.8v22.7c3.7,.1,7.4,0,10.8,0,5.6,0,10-.4,12.8-2.8,2.3-1.8,3.8-5.3,3.8-8.6s-1.6-6.8-4.1-8.7c-2.9-2.3-6.8-2.5-11.9-2.5l-11.4-.1h0Zm-6.6-6.5h15c6.8,0,11.9,.4,15,1.7,6.6,2.6,10.6,8.5,10.6,16,0,6.3-2.9,11.6-7.5,14.6s-11.3,3.4-20.3,3.4h-6.4v31h-6.5l.1-66.7h0Z"/><polygon id="f" points="302.25 225.3 308.85 225.3 308.85 285.4 333.75 285.4 333.75 291.9 302.25 291.9 302.25 225.3"/><polygon id="g" points="350.95 225.3 388.05 225.3 388.05 231.8 357.55 231.8 357.55 252.7 388.05 252.7 388.05 259.2 357.55 259.2 357.55 285.4 388.05 285.4 388.05 291.9 350.95 291.9 350.95 225.3"/><polygon id="h" points="402.75 225.3 410.45 225.3 425.95 251.3 441.55 225.3 449.05 225.3 429.75 257.6 450.35 291.9 442.75 291.9 425.95 264 408.95 291.9 401.35 291.9 422.05 257.6 402.75 225.3"/><path id="i" d="M463.35,288.2v1.5h1.3c.5,0,.8-.2,.8-.7,0-.7-.4-.7-.9-.7h-1.2v-.1Zm-.7-.7h2c.3,0,.7,0,.9,.1,.5,.1,.8,.7,.8,1.2,0,.7-.3,.9-.6,1.1,.4,.2,.5,.4,.5,1.1v.6c0,.4,.1,.7,.2,.8h-.9c-.1-.3-.1-.6-.1-.7v-.6c0-.5-.1-.7-.7-.7h-1.5v2h-.8v-4.9h.2Zm1.7-1.2c-2,0-3.6,1.7-3.6,3.7,0,2.1,1.7,3.6,3.6,3.6,2,0,3.6-1.6,3.6-3.6s-1.6-3.7-3.6-3.7h0Zm0,7.9c-2.3,0-4.2-1.9-4.2-4.2s1.8-4.2,4.2-4.2,4.2,2,4.2,4.2c0,2.4-2,4.2-4.2,4.2h0Z"/></g></g><g id="j"/></svg>