<?xml version="1.0" encoding="UTF-8" standalone="no"?>
<!DOCTYPE svg PUBLIC "-//W3C//DTD SVG 1.1//EN" "http://www.w3.org/Graphics/SVG/1.1/DTD/svg11.dtd">
<svg xmlns="http://www.w3.org/2000/svg" version="1.1" viewBox="0.00 0.00 1592.00 626.00">
<g stroke-width="2.00" fill="none" stroke-linecap="butt">
<path stroke="#a19f8f" vector-effect="non-scaling-stroke" d="
  M 358.68 359.59
  C 376.59 367.11 394.66 379.58 400.46 399.15
  Q 405.73 416.92 402.25 435.38
  C 398.64 454.51 385.73 470.76 369.35 481.10
  C 349.99 493.33 326.55 499.14 303.49 500.56
  Q 267.76 502.75 236.97 494.89
  Q 215.87 489.51 199.77 479.10
  Q 156.52 451.14 151.58 398.96
  Q 151.53 398.44 151.01 398.44
  L 92.71 398.44
  A 0.41 0.41 0.0 0 0 92.30 398.86
  Q 92.86 419.36 98.05 439.24
  C 109.94 484.83 140.46 518.44 183.17 536.87
  Q 212.02 549.32 244.20 553.53
  C 280.71 558.30 317.74 557.98 352.77 548.34
  Q 375.99 541.95 397.20 529.48
  C 438.16 505.39 463.95 464.10 463.89 416.07
  Q 463.81 365.59 428.71 331.98
  Q 421.83 325.39 413.29 319.56
  Q 392.35 305.26 365.92 296.45
  Q 326.54 283.32 291.25 275.51
  Q 275.48 272.03 261.02 268.88
  C 240.65 264.45 218.95 258.93 200.17 249.68
  C 184.11 241.78 172.48 230.43 169.72 211.79
  C 166.67 191.13 172.24 171.32 187.54 156.83
  C 204.34 140.90 227.46 133.82 250.82 131.35
  C 269.75 129.35 289.10 129.48 307.74 132.08
  C 336.43 136.08 363.13 147.59 378.64 171.92
  C 386.65 184.48 390.79 198.80 392.46 213.78
  A 0.59 0.58 86.7 0 0 393.04 214.30
  L 451.96 214.29
  A 0.32 0.32 0.0 0 0 452.28 213.96
  Q 450.08 150.81 402.90 112.60
  Q 395.58 106.67 386.40 101.24
  C 366.39 89.42 343.24 81.63 319.95 77.80
  Q 277.56 70.81 236.45 76.83
  C 213.81 80.14 191.84 87.31 171.76 98.68
  C 140.83 116.20 117.08 145.56 110.28 180.58
  Q 106.43 200.38 109.55 222.67
  Q 112.78 245.66 124.21 262.74
  C 133.19 276.15 144.86 286.48 158.95 295.19
  C 176.61 306.10 195.82 313.99 215.60 320.11
  Q 236.20 326.48 248.37 329.16
  Q 278.59 335.84 312.46 344.23
  Q 335.94 350.04 358.68 359.59"
/>
<path stroke="#a19f8f" vector-effect="non-scaling-stroke" d="
  M 610.97 328.93
  A 0.42 0.42 0.0 0 1 611.39 328.51
  L 853.01 328.51
  A 0.42 0.42 0.0 0 1 853.43 328.93
  L 853.43 547.88
  A 0.42 0.42 0.0 0 0 853.85 548.30
  L 915.12 548.28
  A 0.42 0.42 0.0 0 0 915.54 547.86
  L 915.55 82.67
  A 0.42 0.42 0.0 0 0 915.13 82.25
  L 853.85 82.25
  A 0.42 0.42 0.0 0 0 853.43 82.67
  L 853.43 272.67
  A 0.42 0.42 0.0 0 1 853.01 273.09
  L 611.39 273.09
  A 0.42 0.42 0.0 0 1 610.97 272.67
  L 610.97 82.67
  A 0.42 0.42 0.0 0 0 610.55 82.25
  L 549.68 82.25
  A 0.42 0.42 0.0 0 0 549.26 82.67
  L 549.26 547.88
  A 0.42 0.42 0.0 0 0 549.68 548.30
  L 610.55 548.31
  A 0.42 0.42 0.0 0 0 610.97 547.89
  L 610.97 328.93"
/>
<path stroke="#a19f8f" vector-effect="non-scaling-stroke" d="
  M 1081.82 335.24
  A 0.46 0.46 0.0 0 1 1082.28 334.78
  L 1339.26 334.78
  A 0.46 0.46 0.0 0 0 1339.72 334.32
  L 1339.72 279.85
  A 0.46 0.46 0.0 0 0 1339.26 279.39
  L 1082.27 279.39
  A 0.46 0.46 0.0 0 1 1081.81 278.93
  L 1081.82 138.16
  A 0.46 0.46 0.0 0 1 1082.28 137.70
  L 1357.06 137.70
  A 0.46 0.46 0.0 0 0 1357.52 137.24
  L 1357.51 82.71
  A 0.46 0.46 0.0 0 0 1357.05 82.25
  L 1020.60 82.25
  A 0.46 0.46 0.0 0 0 1020.14 82.71
  L 1020.14 547.84
  A 0.46 0.46 0.0 0 0 1020.60 548.30
  L 1367.73 548.30
  A 0.46 0.46 0.0 0 0 1368.19 547.84
  L 1368.19 493.36
  A 0.46 0.46 0.0 0 0 1367.73 492.90
  L 1082.27 492.90
  A 0.46 0.46 0.0 0 1 1081.81 492.44
  L 1081.82 335.24"
/>
<path stroke="#cb9693" vector-effect="non-scaling-stroke" d="
  M 1445.1222 115.8974
  A 22.64 22.23 -1.5 0 0 1421.9081 94.2676
  A 22.64 22.23 -1.5 0 0 1399.8578 117.0826
  A 22.64 22.23 -1.5 0 0 1423.0719 138.7124
  A 22.64 22.23 -1.5 0 0 1445.1222 115.8974"
/>
<path stroke="#cb9693" vector-effect="non-scaling-stroke" d="
  M 1424.58 163.87
  A 0.47 0.46 -1.3 0 1 1424.11 163.43
  Q 1423.92 159.75 1424.07 156.09
  C 1424.53 145.27 1412.98 138.58 1404.37 145.37
  Q 1399.89 148.91 1399.77 153.98
  Q 1399.62 159.95 1399.74 166.34
  A 1.95 1.95 0.0 0 0 1401.69 168.25
  L 1442.90 168.26
  Q 1445.16 168.26 1445.20 166.01
  Q 1445.21 165.69 1445.08 165.39
  Q 1444.48 163.90 1442.87 163.90
  L 1424.58 163.87"
/>
<path stroke="#cb9693" vector-effect="non-scaling-stroke" d="
  M 320.37 200.79
  A 41.26 41.26 0.0 0 0 279.11 159.53
  A 41.26 41.26 0.0 0 0 237.85 200.79
  A 41.26 41.26 0.0 0 0 279.11 242.05
  A 41.26 41.26 0.0 0 0 320.37 200.79"
/>
<path stroke="#cb9693" vector-effect="non-scaling-stroke" d="
  M 1425.80 195.35
  L 1443.95 177.47
  A 1.80 1.58 -12.1 0 0 1444.30 177.00
  Q 1445.54 174.59 1444.54 173.84
  Q 1442.75 172.52 1441.17 174.08
  L 1422.72 192.18
  A 0.45 0.45 0.0 0 1 1422.08 192.18
  L 1403.66 174.10
  Q 1402.10 172.56 1400.29 173.80
  Q 1400.03 173.99 1399.90 174.28
  Q 1399.19 175.92 1400.47 177.18
  L 1418.85 195.23
  A 0.49 0.48 45.4 0 1 1418.85 195.92
  L 1400.43 214.06
  Q 1399.16 215.32 1399.92 216.94
  Q 1400.04 217.19 1400.25 217.36
  Q 1401.96 218.73 1403.53 217.20
  L 1422.07 199.06
  Q 1422.40 198.74 1422.72 199.06
  L 1441.35 217.43
  A 2.00 1.99 -25.6 0 0 1442.96 217.99
  Q 1444.59 217.82 1444.94 216.83
  Q 1445.55 215.10 1444.23 213.81
  L 1425.80 195.81
  A 0.32 0.32 0.0 0 1 1425.80 195.35"
/>
<path stroke="#cb9693" vector-effect="non-scaling-stroke" d="
  M 1419.17 244.35
  L 1404.75 244.36
  A 0.61 0.60 -90.0 0 1 1404.15 243.75
  L 1404.18 225.49
  Q 1404.18 223.70 1402.47 223.18
  Q 1402.17 223.09 1401.85 223.12
  Q 1399.69 223.32 1399.69 225.50
  L 1399.72 246.85
  A 1.89 1.89 0.0 0 0 1401.61 248.73
  L 1443.09 248.71
  A 1.94 1.94 0.0 0 0 1445.03 246.78
  L 1445.10 225.34
  Q 1445.10 223.56 1443.36 223.20
  Q 1443.14 223.15 1442.91 223.16
  Q 1440.73 223.29 1440.74 225.47
  L 1440.79 243.44
  A 0.98 0.97 -0.3 0 1 1439.81 244.42
  L 1424.99 244.32
  A 0.58 0.58 0.0 0 1 1424.41 243.74
  L 1424.40 231.72
  Q 1424.40 229.86 1422.57 229.52
  Q 1422.30 229.47 1422.03 229.50
  Q 1419.99 229.77 1419.98 231.83
  L 1419.95 243.58
  Q 1419.95 244.35 1419.17 244.35"
/>
<path stroke="#cb9693" vector-effect="non-scaling-stroke" d="
  M 1423.77 296.41
  C 1421.01 285.72 1406.66 283.43 1401.12 293.31
  Q 1399.48 296.24 1399.62 300.90
  Q 1399.76 306.04 1399.70 310.62
  A 2.07 2.07 0.0 0 0 1401.77 312.71
  L 1442.85 312.59
  Q 1444.91 312.58 1445.15 310.54
  Q 1445.18 310.22 1445.08 309.93
  Q 1444.54 308.30 1442.83 308.30
  L 1424.52 308.28
  Q 1424.01 308.28 1424.01 307.77
  L 1424.01 302.52
  Q 1424.01 301.79 1424.63 301.42
  L 1444.09 289.76
  Q 1445.62 288.85 1445.09 287.14
  Q 1444.80 286.18 1442.79 286.00
  A 2.16 2.15 -58.0 0 0 1441.54 286.29
  L 1424.37 296.66
  A 0.41 0.40 67.1 0 1 1423.77 296.41"
/>
<path stroke="#cb9693" vector-effect="non-scaling-stroke" d="
  M 1445.04 321.13
  A 1.88 1.88 0.0 0 0 1443.16 319.25
  L 1401.60 319.25
  A 1.88 1.88 0.0 0 0 1399.72 321.13
  L 1399.72 321.67
  A 1.88 1.88 0.0 0 0 1401.60 323.55
  L 1443.16 323.55
  A 1.88 1.88 0.0 0 0 1445.04 321.67
  L 1445.04 321.13"
/>
<path stroke="#cb9693" vector-effect="non-scaling-stroke" d="
  M 1430.75 357.96
  L 1430.74 339.78
  Q 1430.74 339.13 1431.34 338.87
  L 1443.60 333.62
  Q 1445.26 332.91 1445.10 331.11
  Q 1445.02 330.11 1443.62 329.50
  A 1.81 1.79 45.2 0 0 1442.20 329.49
  L 1400.81 347.02
  A 1.83 1.83 0.0 0 0 1399.71 348.57
  Q 1399.59 350.21 1401.18 350.89
  Q 1420.96 359.35 1442.00 368.26
  Q 1443.89 369.06 1444.92 367.28
  Q 1445.38 366.50 1444.70 365.31
  A 2.45 2.42 -2.6 0 0 1443.54 364.26
  L 1431.46 359.04
  Q 1430.75 358.73 1430.75 357.96"
/>
<path stroke="#cb9693" vector-effect="non-scaling-stroke" d="
  M 1421.88 379.22
  L 1421.93 400.04
  Q 1421.93 400.76 1421.21 400.76
  L 1401.68 400.76
  A 1.92 1.92 0.0 0 0 1399.76 402.57
  L 1399.73 402.96
  Q 1399.60 405.20 1401.84 405.20
  L 1442.84 405.14
  Q 1445.04 405.14 1445.15 402.94
  Q 1445.19 402.08 1444.34 401.26
  A 1.72 1.71 66.8 0 0 1443.15 400.78
  L 1426.91 400.77
  A 0.61 0.60 90.0 0 1 1426.31 400.16
  L 1426.28 379.26
  Q 1426.28 378.54 1427.00 378.54
  L 1442.85 378.52
  Q 1444.97 378.52 1445.16 376.41
  Q 1445.19 376.08 1445.07 375.77
  Q 1444.48 374.24 1442.85 374.24
  L 1401.88 374.23
  Q 1399.73 374.23 1399.74 376.38
  L 1399.74 376.66
  Q 1399.75 378.58 1401.66 378.58
  L 1421.21 378.55
  Q 1421.88 378.55 1421.88 379.22"
/>
<path stroke="#cb9693" vector-effect="non-scaling-stroke" d="
  M 1434.51 437.72
  Q 1435.38 437.72 1434.66 438.22
  Q 1417.05 450.44 1400.75 461.76
  Q 1399.50 462.62 1399.70 464.04
  A 2.06 2.05 86.0 0 0 1401.73 465.81
  L 1443.06 465.75
  A 2.07 2.07 0.0 0 0 1445.10 464.05
  Q 1445.18 463.63 1445.14 463.21
  A 1.90 1.90 0.0 0 0 1443.25 461.50
  L 1410.72 461.46
  Q 1409.29 461.46 1410.47 460.64
  Q 1428.64 448.03 1444.20 437.22
  Q 1445.36 436.42 1445.15 435.02
  C 1444.95 433.72 1443.51 433.30 1442.38 433.30
  Q 1422.93 433.30 1401.32 433.25
  A 1.58 1.58 0.0 0 0 1399.74 434.77
  L 1399.71 435.44
  Q 1399.62 437.76 1401.94 437.76
  L 1434.51 437.72"
/>
<path stroke="#cb9693" vector-effect="non-scaling-stroke" d="
  M 1445.17 474.72
  A 2.18 2.18 0.0 0 0 1442.99 472.54
  L 1401.89 472.54
  A 2.18 2.18 0.0 0 0 1399.71 474.72
  L 1399.71 474.82
  A 2.18 2.18 0.0 0 0 1401.89 477.00
  L 1442.99 477.00
  A 2.18 2.18 0.0 0 0 1445.17 474.82
  L 1445.17 474.72"
/>
<path stroke="#cb9693" vector-effect="non-scaling-stroke" d="
  M 1419.94 509.17
  L 1401.68 509.16
  Q 1399.77 509.16 1399.73 511.07
  L 1399.73 511.36
  Q 1399.68 513.54 1401.86 513.53
  L 1443.28 513.50
  A 1.73 1.72 16.8 0 0 1444.71 512.74
  Q 1445.22 511.98 1445.13 511.23
  Q 1444.90 509.21 1442.86 509.20
  L 1428.00 509.18
  A 3.06 3.03 -21.0 0 1 1425.79 508.21
  L 1420.86 502.86
  A 0.44 0.44 0.0 0 1 1420.95 502.19
  L 1444.28 487.74
  A 1.83 1.79 -11.6 0 0 1445.13 486.48
  Q 1445.41 484.65 1443.60 483.94
  A 1.90 1.87 39.4 0 0 1441.91 484.09
  L 1418.13 498.86
  A 0.88 0.87 52.0 0 1 1417.02 498.72
  L 1404.11 484.90
  A 2.18 2.14 78.5 0 0 1403.28 484.34
  Q 1400.23 483.17 1399.89 484.83
  Q 1399.55 486.57 1400.76 487.86
  L 1420.18 508.62
  A 0.33 0.33 0.0 0 1 1419.94 509.17"
/>
<path stroke="#a19f8f" vector-effect="non-scaling-stroke" d="
  M 1514.7100 533.1075
  A 21.46 20.32 0.1 0 0 1493.2855 512.7500
  A 21.46 20.32 0.1 0 0 1471.7900 533.0325
  A 21.46 20.32 0.1 0 0 1493.2145 553.3900
  A 21.46 20.32 0.1 0 0 1514.7100 533.1075"
/>
<path stroke="#cb9693" vector-effect="non-scaling-stroke" d="
  M 1405.07 537.76
  Q 1402.14 529.18 1408.68 524.43
  A 1.99 1.99 0.0 0 0 1409.04 521.55
  C 1407.31 519.47 1404.44 521.67 1403.17 523.23
  C 1397.99 529.59 1398.55 540.43 1405.65 544.89
  C 1413.53 549.85 1419.26 542.94 1421.42 535.98
  Q 1422.69 531.89 1424.54 528.29
  C 1428.68 520.19 1439.30 523.51 1440.47 531.53
  Q 1441.59 539.21 1435.23 544.01
  C 1434.08 544.88 1434.16 546.33 1435.14 547.33
  A 2.03 2.02 58.7 0 0 1437.18 547.83
  C 1442.01 546.30 1444.85 538.76 1445.08 534.36
  C 1445.83 519.81 1426.75 512.60 1419.96 527.14
  Q 1417.98 531.38 1416.40 536.10
  C 1415.40 539.10 1413.13 543.14 1409.31 541.87
  Q 1406.11 540.82 1405.07 537.76"
/>
<path stroke="#cb9693" vector-effect="non-scaling-stroke" d="
  M 1440.6867 117.4313
  A 18.21 17.86 2.9 0 0 1423.4036 98.6729
  A 18.21 17.86 2.9 0 0 1404.3133 115.5887
  A 18.21 17.86 2.9 0 0 1421.5964 134.3471
  A 18.21 17.86 2.9 0 0 1440.6867 117.4313"
/>
<path stroke="#cb9693" vector-effect="non-scaling-stroke" d="
  M 1404.81 163.92
  L 1418.91 163.88
  A 0.67 0.67 0.0 0 0 1419.58 163.20
  L 1419.55 154.86
  A 7.73 7.55 89.8 0 0 1411.97 147.16
  L 1411.63 147.16
  A 7.73 7.55 89.8 0 0 1404.11 154.92
  L 1404.14 163.26
  A 0.67 0.67 0.0 0 0 1404.81 163.92"
/>
<path stroke="#cb9693" vector-effect="non-scaling-stroke" d="
  M 1404.87 308.28
  L 1418.93 308.28
  A 0.68 0.68 0.0 0 0 1419.61 307.60
  L 1419.61 299.16
  A 7.70 7.52 90.0 0 0 1412.09 291.46
  L 1411.71 291.46
  A 7.70 7.52 90.0 0 0 1404.19 299.16
  L 1404.19 307.60
  A 0.68 0.68 0.0 0 0 1404.87 308.28"
/>
<path stroke="#cb9693" vector-effect="non-scaling-stroke" d="
  M 1425.77 356.61
  A 0.34 0.34 0.0 0 0 1426.25 356.30
  L 1426.27 341.54
  A 0.34 0.34 0.0 0 0 1425.80 341.23
  L 1408.74 348.58
  A 0.34 0.34 0.0 0 0 1408.74 349.20
  L 1425.77 356.61"
/>
<path stroke="#a19f8f" vector-effect="non-scaling-stroke" d="
  M 1511.1200 533.0588
  A 17.87 16.93 -0.1 0 0 1493.2205 516.1600
  A 17.87 16.93 -0.1 0 0 1475.3800 533.1212
  A 17.87 16.93 -0.1 0 0 1493.2795 550.0200
  A 17.87 16.93 -0.1 0 0 1511.1200 533.0588"
/>
<path stroke="#a19f8f" vector-effect="non-scaling-stroke" d="
  M 1496.31 534.24
  C 1503.73 533.29 1503.31 523.01 1495.37 522.62
  Q 1490.15 522.37 1484.30 522.44
  A 0.50 0.50 0.0 0 0 1483.81 522.94
  L 1483.79 543.72
  Q 1483.79 544.39 1484.47 544.37
  L 1487.01 544.30
  Q 1487.56 544.28 1487.56 543.74
  L 1487.56 535.73
  Q 1487.56 535.21 1488.07 535.13
  Q 1492.04 534.45 1494.12 537.20
  Q 1496.46 540.30 1498.51 544.07
  Q 1498.63 544.28 1498.87 544.29
  L 1502.94 544.34
  A 0.12 0.11 75.9 0 0 1503.04 544.17
  Q 1499.84 538.50 1496.12 534.81
  Q 1495.62 534.32 1496.31 534.24"
/>
<path stroke="#a19f8f" vector-effect="non-scaling-stroke" d="
  M 1487.53 525.89
  L 1487.55 531.57
  A 0.43 0.43 0.0 0 0 1487.98 532.00
  L 1493.41 531.98
  A 4.28 3.07 -0.2 0 0 1497.68 528.89
  L 1497.68 528.49
  A 4.28 3.07 -0.2 0 0 1493.39 525.44
  L 1487.96 525.46
  A 0.43 0.43 0.0 0 0 1487.53 525.89"
/>
</g>
<path fill="#ffffff" d="
  M 0.00 0.00
  L 1592.00 0.00
  L 1592.00 626.00
  L 0.00 626.00
  L 0.00 0.00
  Z
  M 358.68 359.59
  C 376.59 367.11 394.66 379.58 400.46 399.15
  Q 405.73 416.92 402.25 435.38
  C 398.64 454.51 385.73 470.76 369.35 481.10
  C 349.99 493.33 326.55 499.14 303.49 500.56
  Q 267.76 502.75 236.97 494.89
  Q 215.87 489.51 199.77 479.10
  Q 156.52 451.14 151.58 398.96
  Q 151.53 398.44 151.01 398.44
  L 92.71 398.44
  A 0.41 0.41 0.0 0 0 92.30 398.86
  Q 92.86 419.36 98.05 439.24
  C 109.94 484.83 140.46 518.44 183.17 536.87
  Q 212.02 549.32 244.20 553.53
  C 280.71 558.30 317.74 557.98 352.77 548.34
  Q 375.99 541.95 397.20 529.48
  C 438.16 505.39 463.95 464.10 463.89 416.07
  Q 463.81 365.59 428.71 331.98
  Q 421.83 325.39 413.29 319.56
  Q 392.35 305.26 365.92 296.45
  Q 326.54 283.32 291.25 275.51
  Q 275.48 272.03 261.02 268.88
  C 240.65 264.45 218.95 258.93 200.17 249.68
  C 184.11 241.78 172.48 230.43 169.72 211.79
  C 166.67 191.13 172.24 171.32 187.54 156.83
  C 204.34 140.90 227.46 133.82 250.82 131.35
  C 269.75 129.35 289.10 129.48 307.74 132.08
  C 336.43 136.08 363.13 147.59 378.64 171.92
  C 386.65 184.48 390.79 198.80 392.46 213.78
  A 0.59 0.58 86.7 0 0 393.04 214.30
  L 451.96 214.29
  A 0.32 0.32 0.0 0 0 452.28 213.96
  Q 450.08 150.81 402.90 112.60
  Q 395.58 106.67 386.40 101.24
  C 366.39 89.42 343.24 81.63 319.95 77.80
  Q 277.56 70.81 236.45 76.83
  C 213.81 80.14 191.84 87.31 171.76 98.68
  C 140.83 116.20 117.08 145.56 110.28 180.58
  Q 106.43 200.38 109.55 222.67
  Q 112.78 245.66 124.21 262.74
  C 133.19 276.15 144.86 286.48 158.95 295.19
  C 176.61 306.10 195.82 313.99 215.60 320.11
  Q 236.20 326.48 248.37 329.16
  Q 278.59 335.84 312.46 344.23
  Q 335.94 350.04 358.68 359.59
  Z
  M 610.97 328.93
  A 0.42 0.42 0.0 0 1 611.39 328.51
  L 853.01 328.51
  A 0.42 0.42 0.0 0 1 853.43 328.93
  L 853.43 547.88
  A 0.42 0.42 0.0 0 0 853.85 548.30
  L 915.12 548.28
  A 0.42 0.42 0.0 0 0 915.54 547.86
  L 915.55 82.67
  A 0.42 0.42 0.0 0 0 915.13 82.25
  L 853.85 82.25
  A 0.42 0.42 0.0 0 0 853.43 82.67
  L 853.43 272.67
  A 0.42 0.42 0.0 0 1 853.01 273.09
  L 611.39 273.09
  A 0.42 0.42 0.0 0 1 610.97 272.67
  L 610.97 82.67
  A 0.42 0.42 0.0 0 0 610.55 82.25
  L 549.68 82.25
  A 0.42 0.42 0.0 0 0 549.26 82.67
  L 549.26 547.88
  A 0.42 0.42 0.0 0 0 549.68 548.30
  L 610.55 548.31
  A 0.42 0.42 0.0 0 0 610.97 547.89
  L 610.97 328.93
  Z
  M 1081.82 335.24
  A 0.46 0.46 0.0 0 1 1082.28 334.78
  L 1339.26 334.78
  A 0.46 0.46 0.0 0 0 1339.72 334.32
  L 1339.72 279.85
  A 0.46 0.46 0.0 0 0 1339.26 279.39
  L 1082.27 279.39
  A 0.46 0.46 0.0 0 1 1081.81 278.93
  L 1081.82 138.16
  A 0.46 0.46 0.0 0 1 1082.28 137.70
  L 1357.06 137.70
  A 0.46 0.46 0.0 0 0 1357.52 137.24
  L 1357.51 82.71
  A 0.46 0.46 0.0 0 0 1357.05 82.25
  L 1020.60 82.25
  A 0.46 0.46 0.0 0 0 1020.14 82.71
  L 1020.14 547.84
  A 0.46 0.46 0.0 0 0 1020.60 548.30
  L 1367.73 548.30
  A 0.46 0.46 0.0 0 0 1368.19 547.84
  L 1368.19 493.36
  A 0.46 0.46 0.0 0 0 1367.73 492.90
  L 1082.27 492.90
  A 0.46 0.46 0.0 0 1 1081.81 492.44
  L 1081.82 335.24
  Z
  M 1445.1222 115.8974
  A 22.64 22.23 -1.5 0 0 1421.9081 94.2676
  A 22.64 22.23 -1.5 0 0 1399.8578 117.0826
  A 22.64 22.23 -1.5 0 0 1423.0719 138.7124
  A 22.64 22.23 -1.5 0 0 1445.1222 115.8974
  Z
  M 1424.58 163.87
  A 0.47 0.46 -1.3 0 1 1424.11 163.43
  Q 1423.92 159.75 1424.07 156.09
  C 1424.53 145.27 1412.98 138.58 1404.37 145.37
  Q 1399.89 148.91 1399.77 153.98
  Q 1399.62 159.95 1399.74 166.34
  A 1.95 1.95 0.0 0 0 1401.69 168.25
  L 1442.90 168.26
  Q 1445.16 168.26 1445.20 166.01
  Q 1445.21 165.69 1445.08 165.39
  Q 1444.48 163.90 1442.87 163.90
  L 1424.58 163.87
  Z
  M 320.37 200.79
  A 41.26 41.26 0.0 0 0 279.11 159.53
  A 41.26 41.26 0.0 0 0 237.85 200.79
  A 41.26 41.26 0.0 0 0 279.11 242.05
  A 41.26 41.26 0.0 0 0 320.37 200.79
  Z
  M 1425.80 195.35
  L 1443.95 177.47
  A 1.80 1.58 -12.1 0 0 1444.30 177.00
  Q 1445.54 174.59 1444.54 173.84
  Q 1442.75 172.52 1441.17 174.08
  L 1422.72 192.18
  A 0.45 0.45 0.0 0 1 1422.08 192.18
  L 1403.66 174.10
  Q 1402.10 172.56 1400.29 173.80
  Q 1400.03 173.99 1399.90 174.28
  Q 1399.19 175.92 1400.47 177.18
  L 1418.85 195.23
  A 0.49 0.48 45.4 0 1 1418.85 195.92
  L 1400.43 214.06
  Q 1399.16 215.32 1399.92 216.94
  Q 1400.04 217.19 1400.25 217.36
  Q 1401.96 218.73 1403.53 217.20
  L 1422.07 199.06
  Q 1422.40 198.74 1422.72 199.06
  L 1441.35 217.43
  A 2.00 1.99 -25.6 0 0 1442.96 217.99
  Q 1444.59 217.82 1444.94 216.83
  Q 1445.55 215.10 1444.23 213.81
  L 1425.80 195.81
  A 0.32 0.32 0.0 0 1 1425.80 195.35
  Z
  M 1419.17 244.35
  L 1404.75 244.36
  A 0.61 0.60 -90.0 0 1 1404.15 243.75
  L 1404.18 225.49
  Q 1404.18 223.70 1402.47 223.18
  Q 1402.17 223.09 1401.85 223.12
  Q 1399.69 223.32 1399.69 225.50
  L 1399.72 246.85
  A 1.89 1.89 0.0 0 0 1401.61 248.73
  L 1443.09 248.71
  A 1.94 1.94 0.0 0 0 1445.03 246.78
  L 1445.10 225.34
  Q 1445.10 223.56 1443.36 223.20
  Q 1443.14 223.15 1442.91 223.16
  Q 1440.73 223.29 1440.74 225.47
  L 1440.79 243.44
  A 0.98 0.97 -0.3 0 1 1439.81 244.42
  L 1424.99 244.32
  A 0.58 0.58 0.0 0 1 1424.41 243.74
  L 1424.40 231.72
  Q 1424.40 229.86 1422.57 229.52
  Q 1422.30 229.47 1422.03 229.50
  Q 1419.99 229.77 1419.98 231.83
  L 1419.95 243.58
  Q 1419.95 244.35 1419.17 244.35
  Z
  M 1423.77 296.41
  C 1421.01 285.72 1406.66 283.43 1401.12 293.31
  Q 1399.48 296.24 1399.62 300.90
  Q 1399.76 306.04 1399.70 310.62
  A 2.07 2.07 0.0 0 0 1401.77 312.71
  L 1442.85 312.59
  Q 1444.91 312.58 1445.15 310.54
  Q 1445.18 310.22 1445.08 309.93
  Q 1444.54 308.30 1442.83 308.30
  L 1424.52 308.28
  Q 1424.01 308.28 1424.01 307.77
  L 1424.01 302.52
  Q 1424.01 301.79 1424.63 301.42
  L 1444.09 289.76
  Q 1445.62 288.85 1445.09 287.14
  Q 1444.80 286.18 1442.79 286.00
  A 2.16 2.15 -58.0 0 0 1441.54 286.29
  L 1424.37 296.66
  A 0.41 0.40 67.1 0 1 1423.77 296.41
  Z
  M 1445.04 321.13
  A 1.88 1.88 0.0 0 0 1443.16 319.25
  L 1401.60 319.25
  A 1.88 1.88 0.0 0 0 1399.72 321.13
  L 1399.72 321.67
  A 1.88 1.88 0.0 0 0 1401.60 323.55
  L 1443.16 323.55
  A 1.88 1.88 0.0 0 0 1445.04 321.67
  L 1445.04 321.13
  Z
  M 1430.75 357.96
  L 1430.74 339.78
  Q 1430.74 339.13 1431.34 338.87
  L 1443.60 333.62
  Q 1445.26 332.91 1445.10 331.11
  Q 1445.02 330.11 1443.62 329.50
  A 1.81 1.79 45.2 0 0 1442.20 329.49
  L 1400.81 347.02
  A 1.83 1.83 0.0 0 0 1399.71 348.57
  Q 1399.59 350.21 1401.18 350.89
  Q 1420.96 359.35 1442.00 368.26
  Q 1443.89 369.06 1444.92 367.28
  Q 1445.38 366.50 1444.70 365.31
  A 2.45 2.42 -2.6 0 0 1443.54 364.26
  L 1431.46 359.04
  Q 1430.75 358.73 1430.75 357.96
  Z
  M 1421.88 379.22
  L 1421.93 400.04
  Q 1421.93 400.76 1421.21 400.76
  L 1401.68 400.76
  A 1.92 1.92 0.0 0 0 1399.76 402.57
  L 1399.73 402.96
  Q 1399.60 405.20 1401.84 405.20
  L 1442.84 405.14
  Q 1445.04 405.14 1445.15 402.94
  Q 1445.19 402.08 1444.34 401.26
  A 1.72 1.71 66.8 0 0 1443.15 400.78
  L 1426.91 400.77
  A 0.61 0.60 90.0 0 1 1426.31 400.16
  L 1426.28 379.26
  Q 1426.28 378.54 1427.00 378.54
  L 1442.85 378.52
  Q 1444.97 378.52 1445.16 376.41
  Q 1445.19 376.08 1445.07 375.77
  Q 1444.48 374.24 1442.85 374.24
  L 1401.88 374.23
  Q 1399.73 374.23 1399.74 376.38
  L 1399.74 376.66
  Q 1399.75 378.58 1401.66 378.58
  L 1421.21 378.55
  Q 1421.88 378.55 1421.88 379.22
  Z
  M 1434.51 437.72
  Q 1435.38 437.72 1434.66 438.22
  Q 1417.05 450.44 1400.75 461.76
  Q 1399.50 462.62 1399.70 464.04
  A 2.06 2.05 86.0 0 0 1401.73 465.81
  L 1443.06 465.75
  A 2.07 2.07 0.0 0 0 1445.10 464.05
  Q 1445.18 463.63 1445.14 463.21
  A 1.90 1.90 0.0 0 0 1443.25 461.50
  L 1410.72 461.46
  Q 1409.29 461.46 1410.47 460.64
  Q 1428.64 448.03 1444.20 437.22
  Q 1445.36 436.42 1445.15 435.02
  C 1444.95 433.72 1443.51 433.30 1442.38 433.30
  Q 1422.93 433.30 1401.32 433.25
  A 1.58 1.58 0.0 0 0 1399.74 434.77
  L 1399.71 435.44
  Q 1399.62 437.76 1401.94 437.76
  L 1434.51 437.72
  Z
  M 1445.17 474.72
  A 2.18 2.18 0.0 0 0 1442.99 472.54
  L 1401.89 472.54
  A 2.18 2.18 0.0 0 0 1399.71 474.72
  L 1399.71 474.82
  A 2.18 2.18 0.0 0 0 1401.89 477.00
  L 1442.99 477.00
  A 2.18 2.18 0.0 0 0 1445.17 474.82
  L 1445.17 474.72
  Z
  M 1419.94 509.17
  L 1401.68 509.16
  Q 1399.77 509.16 1399.73 511.07
  L 1399.73 511.36
  Q 1399.68 513.54 1401.86 513.53
  L 1443.28 513.50
  A 1.73 1.72 16.8 0 0 1444.71 512.74
  Q 1445.22 511.98 1445.13 511.23
  Q 1444.90 509.21 1442.86 509.20
  L 1428.00 509.18
  A 3.06 3.03 -21.0 0 1 1425.79 508.21
  L 1420.86 502.86
  A 0.44 0.44 0.0 0 1 1420.95 502.19
  L 1444.28 487.74
  A 1.83 1.79 -11.6 0 0 1445.13 486.48
  Q 1445.41 484.65 1443.60 483.94
  A 1.90 1.87 39.4 0 0 1441.91 484.09
  L 1418.13 498.86
  A 0.88 0.87 52.0 0 1 1417.02 498.72
  L 1404.11 484.90
  A 2.18 2.14 78.5 0 0 1403.28 484.34
  Q 1400.23 483.17 1399.89 484.83
  Q 1399.55 486.57 1400.76 487.86
  L 1420.18 508.62
  A 0.33 0.33 0.0 0 1 1419.94 509.17
  Z
  M 1514.7100 533.1075
  A 21.46 20.32 0.1 0 0 1493.2855 512.7500
  A 21.46 20.32 0.1 0 0 1471.7900 533.0325
  A 21.46 20.32 0.1 0 0 1493.2145 553.3900
  A 21.46 20.32 0.1 0 0 1514.7100 533.1075
  Z
  M 1405.07 537.76
  Q 1402.14 529.18 1408.68 524.43
  A 1.99 1.99 0.0 0 0 1409.04 521.55
  C 1407.31 519.47 1404.44 521.67 1403.17 523.23
  C 1397.99 529.59 1398.55 540.43 1405.65 544.89
  C 1413.53 549.85 1419.26 542.94 1421.42 535.98
  Q 1422.69 531.89 1424.54 528.29
  C 1428.68 520.19 1439.30 523.51 1440.47 531.53
  Q 1441.59 539.21 1435.23 544.01
  C 1434.08 544.88 1434.16 546.33 1435.14 547.33
  A 2.03 2.02 58.7 0 0 1437.18 547.83
  C 1442.01 546.30 1444.85 538.76 1445.08 534.36
  C 1445.83 519.81 1426.75 512.60 1419.96 527.14
  Q 1417.98 531.38 1416.40 536.10
  C 1415.40 539.10 1413.13 543.14 1409.31 541.87
  Q 1406.11 540.82 1405.07 537.76
  Z"
/>
<path fill="#423f1e" d="
  M 358.68 359.59
  Q 335.94 350.04 312.46 344.23
  Q 278.59 335.84 248.37 329.16
  Q 236.20 326.48 215.60 320.11
  C 195.82 313.99 176.61 306.10 158.95 295.19
  C 144.86 286.48 133.19 276.15 124.21 262.74
  Q 112.78 245.66 109.55 222.67
  Q 106.43 200.38 110.28 180.58
  C 117.08 145.56 140.83 116.20 171.76 98.68
  C 191.84 87.31 213.81 80.14 236.45 76.83
  Q 277.56 70.81 319.95 77.80
  C 343.24 81.63 366.39 89.42 386.40 101.24
  Q 395.58 106.67 402.90 112.60
  Q 450.08 150.81 452.28 213.96
  A 0.32 0.32 0.0 0 1 451.96 214.29
  L 393.04 214.30
  A 0.59 0.58 86.7 0 1 392.46 213.78
  C 390.79 198.80 386.65 184.48 378.64 171.92
  C 363.13 147.59 336.43 136.08 307.74 132.08
  C 289.10 129.48 269.75 129.35 250.82 131.35
  C 227.46 133.82 204.34 140.90 187.54 156.83
  C 172.24 171.32 166.67 191.13 169.72 211.79
  C 172.48 230.43 184.11 241.78 200.17 249.68
  C 218.95 258.93 240.65 264.45 261.02 268.88
  Q 275.48 272.03 291.25 275.51
  Q 326.54 283.32 365.92 296.45
  Q 392.35 305.26 413.29 319.56
  Q 421.83 325.39 428.71 331.98
  Q 463.81 365.59 463.89 416.07
  C 463.95 464.10 438.16 505.39 397.20 529.48
  Q 375.99 541.95 352.77 548.34
  C 317.74 557.98 280.71 558.30 244.20 553.53
  Q 212.02 549.32 183.17 536.87
  C 140.46 518.44 109.94 484.83 98.05 439.24
  Q 92.86 419.36 92.30 398.86
  A 0.41 0.41 0.0 0 1 92.71 398.44
  L 151.01 398.44
  Q 151.53 398.44 151.58 398.96
  Q 156.52 451.14 199.77 479.10
  Q 215.87 489.51 236.97 494.89
  Q 267.76 502.75 303.49 500.56
  C 326.55 499.14 349.99 493.33 369.35 481.10
  C 385.73 470.76 398.64 454.51 402.25 435.38
  Q 405.73 416.92 400.46 399.15
  C 394.66 379.58 376.59 367.11 358.68 359.59
  Z"
/>
<path fill="#423f1e" d="
  M 610.97 328.93
  L 610.97 547.89
  A 0.42 0.42 0.0 0 1 610.55 548.31
  L 549.68 548.30
  A 0.42 0.42 0.0 0 1 549.26 547.88
  L 549.26 82.67
  A 0.42 0.42 0.0 0 1 549.68 82.25
  L 610.55 82.25
  A 0.42 0.42 0.0 0 1 610.97 82.67
  L 610.97 272.67
  A 0.42 0.42 0.0 0 0 611.39 273.09
  L 853.01 273.09
  A 0.42 0.42 0.0 0 0 853.43 272.67
  L 853.43 82.67
  A 0.42 0.42 0.0 0 1 853.85 82.25
  L 915.13 82.25
  A 0.42 0.42 0.0 0 1 915.55 82.67
  L 915.54 547.86
  A 0.42 0.42 0.0 0 1 915.12 548.28
  L 853.85 548.30
  A 0.42 0.42 0.0 0 1 853.43 547.88
  L 853.43 328.93
  A 0.42 0.42 0.0 0 0 853.01 328.51
  L 611.39 328.51
  A 0.42 0.42 0.0 0 0 610.97 328.93
  Z"
/>
<path fill="#423f1e" d="
  M 1081.82 335.24
  L 1081.81 492.44
  A 0.46 0.46 0.0 0 0 1082.27 492.90
  L 1367.73 492.90
  A 0.46 0.46 0.0 0 1 1368.19 493.36
  L 1368.19 547.84
  A 0.46 0.46 0.0 0 1 1367.73 548.30
  L 1020.60 548.30
  A 0.46 0.46 0.0 0 1 1020.14 547.84
  L 1020.14 82.71
  A 0.46 0.46 0.0 0 1 1020.60 82.25
  L 1357.05 82.25
  A 0.46 0.46 0.0 0 1 1357.51 82.71
  L 1357.52 137.24
  A 0.46 0.46 0.0 0 1 1357.06 137.70
  L 1082.28 137.70
  A 0.46 0.46 0.0 0 0 1081.82 138.16
  L 1081.81 278.93
  A 0.46 0.46 0.0 0 0 1082.27 279.39
  L 1339.26 279.39
  A 0.46 0.46 0.0 0 1 1339.72 279.85
  L 1339.72 334.32
  A 0.46 0.46 0.0 0 1 1339.26 334.78
  L 1082.28 334.78
  A 0.46 0.46 0.0 0 0 1081.82 335.24
  Z"
/>
<path fill="#972c26" d="
  M 1445.1222 115.8974
  A 22.64 22.23 -1.5 0 1 1423.0719 138.7124
  A 22.64 22.23 -1.5 0 1 1399.8578 117.0826
  A 22.64 22.23 -1.5 0 1 1421.9081 94.2676
  A 22.64 22.23 -1.5 0 1 1445.1222 115.8974
  Z
  M 1440.6867 117.4313
  A 18.21 17.86 2.9 0 0 1423.4036 98.6729
  A 18.21 17.86 2.9 0 0 1404.3133 115.5887
  A 18.21 17.86 2.9 0 0 1421.5964 134.3471
  A 18.21 17.86 2.9 0 0 1440.6867 117.4313
  Z"
/>
<ellipse fill="#ffffff" cx="0.00" cy="0.00" transform="translate(1422.50,116.51) rotate(2.9)" rx="18.21" ry="17.86"/>
<path fill="#972c26" d="
  M 1424.58 163.87
  L 1442.87 163.90
  Q 1444.48 163.90 1445.08 165.39
  Q 1445.21 165.69 1445.20 166.01
  Q 1445.16 168.26 1442.90 168.26
  L 1401.69 168.25
  A 1.95 1.95 0.0 0 1 1399.74 166.34
  Q 1399.62 159.95 1399.77 153.98
  Q 1399.89 148.91 1404.37 145.37
  C 1412.98 138.58 1424.53 145.27 1424.07 156.09
  Q 1423.92 159.75 1424.11 163.43
  A 0.47 0.46 -1.3 0 0 1424.58 163.87
  Z
  M 1404.81 163.92
  L 1418.91 163.88
  A 0.67 0.67 0.0 0 0 1419.58 163.20
  L 1419.55 154.86
  A 7.73 7.55 89.8 0 0 1411.97 147.16
  L 1411.63 147.16
  A 7.73 7.55 89.8 0 0 1404.11 154.92
  L 1404.14 163.26
  A 0.67 0.67 0.0 0 0 1404.81 163.92
  Z"
/>
<path fill="#ffffff" d="
  M 1404.81 163.92
  A 0.67 0.67 0.0 0 1 1404.14 163.26
  L 1404.11 154.92
  A 7.73 7.55 89.8 0 1 1411.63 147.16
  L 1411.97 147.16
  A 7.73 7.55 89.8 0 1 1419.55 154.86
  L 1419.58 163.20
  A 0.67 0.67 0.0 0 1 1418.91 163.88
  L 1404.81 163.92
  Z"
/>
<circle fill="#972c26" cx="279.11" cy="200.79" r="41.26"/>
<path fill="#972c26" d="
  M 1425.80 195.35
  A 0.32 0.32 0.0 0 0 1425.80 195.81
  L 1444.23 213.81
  Q 1445.55 215.10 1444.94 216.83
  Q 1444.59 217.82 1442.96 217.99
  A 2.00 1.99 -25.6 0 1 1441.35 217.43
  L 1422.72 199.06
  Q 1422.40 198.74 1422.07 199.06
  L 1403.53 217.20
  Q 1401.96 218.73 1400.25 217.36
  Q 1400.04 217.19 1399.92 216.94
  Q 1399.16 215.32 1400.43 214.06
  L 1418.85 195.92
  A 0.49 0.48 45.4 0 0 1418.85 195.23
  L 1400.47 177.18
  Q 1399.19 175.92 1399.90 174.28
  Q 1400.03 173.99 1400.29 173.80
  Q 1402.10 172.56 1403.66 174.10
  L 1422.08 192.18
  A 0.45 0.45 0.0 0 0 1422.72 192.18
  L 1441.17 174.08
  Q 1442.75 172.52 1444.54 173.84
  Q 1445.54 174.59 1444.30 177.00
  A 1.80 1.58 -12.1 0 1 1443.95 177.47
  L 1425.80 195.35
  Z"
/>
<path fill="#972c26" d="
  M 1419.95 243.58
  L 1419.98 231.83
  Q 1419.99 229.77 1422.03 229.50
  Q 1422.30 229.47 1422.57 229.52
  Q 1424.40 229.86 1424.40 231.72
  L 1424.41 243.74
  A 0.58 0.58 0.0 0 0 1424.99 244.32
  L 1439.81 244.42
  A 0.98 0.97 -0.3 0 0 1440.79 243.44
  L 1440.74 225.47
  Q 1440.73 223.29 1442.91 223.16
  Q 1443.14 223.15 1443.36 223.20
  Q 1445.10 223.56 1445.10 225.34
  L 1445.03 246.78
  A 1.94 1.94 0.0 0 1 1443.09 248.71
  L 1401.61 248.73
  A 1.89 1.89 0.0 0 1 1399.72 246.85
  L 1399.69 225.50
  Q 1399.69 223.32 1401.85 223.12
  Q 1402.17 223.09 1402.47 223.18
  Q 1404.18 223.70 1404.18 225.49
  L 1404.15 243.75
  A 0.61 0.60 90.0 0 0 1404.75 244.36
  L 1419.17 244.35
  Q 1419.95 244.35 1419.95 243.58
  Z"
/>
<path fill="#972c26" d="
  M 1423.77 296.41
  A 0.41 0.40 67.1 0 0 1424.37 296.66
  L 1441.54 286.29
  A 2.16 2.15 -58.0 0 1 1442.79 286.00
  Q 1444.80 286.18 1445.09 287.14
  Q 1445.62 288.85 1444.09 289.76
  L 1424.63 301.42
  Q 1424.01 301.79 1424.01 302.52
  L 1424.01 307.77
  Q 1424.01 308.28 1424.52 308.28
  L 1442.83 308.30
  Q 1444.54 308.30 1445.08 309.93
  Q 1445.18 310.22 1445.15 310.54
  Q 1444.91 312.58 1442.85 312.59
  L 1401.77 312.71
  A 2.07 2.07 0.0 0 1 1399.70 310.62
  Q 1399.76 306.04 1399.62 300.90
  Q 1399.48 296.24 1401.12 293.31
  C 1406.66 283.43 1421.01 285.72 1423.77 296.41
  Z
  M 1404.87 308.28
  L 1418.93 308.28
  A 0.68 0.68 0.0 0 0 1419.61 307.60
  L 1419.61 299.16
  A 7.70 7.52 90.0 0 0 1412.09 291.46
  L 1411.71 291.46
  A 7.70 7.52 90.0 0 0 1404.19 299.16
  L 1404.19 307.60
  A 0.68 0.68 0.0 0 0 1404.87 308.28
  Z"
/>
<path fill="#ffffff" d="
  M 1404.87 308.28
  A 0.68 0.68 0.0 0 1 1404.19 307.60
  L 1404.19 299.16
  A 7.70 7.52 -90.0 0 1 1411.71 291.46
  L 1412.09 291.46
  A 7.70 7.52 -90.0 0 1 1419.61 299.16
  L 1419.61 307.60
  A 0.68 0.68 0.0 0 1 1418.93 308.28
  L 1404.87 308.28
  Z"
/>
<rect fill="#972c26" x="1399.72" y="319.25" width="45.32" height="4.30" rx="1.88"/>
<path fill="#972c26" d="
  M 1431.46 359.04
  L 1443.54 364.26
  A 2.45 2.42 -2.6 0 1 1444.70 365.31
  Q 1445.38 366.50 1444.92 367.28
  Q 1443.89 369.06 1442.00 368.26
  Q 1420.96 359.35 1401.18 350.89
  Q 1399.59 350.21 1399.71 348.57
  A 1.83 1.83 0.0 0 1 1400.81 347.02
  L 1442.20 329.49
  A 1.81 1.79 45.2 0 1 1443.62 329.50
  Q 1445.02 330.11 1445.10 331.11
  Q 1445.26 332.91 1443.60 333.62
  L 1431.34 338.87
  Q 1430.74 339.13 1430.74 339.78
  L 1430.75 357.96
  Q 1430.75 358.73 1431.46 359.04
  Z
  M 1425.77 356.61
  A 0.34 0.34 0.0 0 0 1426.25 356.30
  L 1426.27 341.54
  A 0.34 0.34 0.0 0 0 1425.80 341.23
  L 1408.74 348.58
  A 0.34 0.34 0.0 0 0 1408.74 349.20
  L 1425.77 356.61
  Z"
/>
<path fill="#ffffff" d="
  M 1425.77 356.61
  L 1408.74 349.20
  A 0.34 0.34 0.0 0 1 1408.74 348.58
  L 1425.80 341.23
  A 0.34 0.34 0.0 0 1 1426.27 341.54
  L 1426.25 356.30
  A 0.34 0.34 0.0 0 1 1425.77 356.61
  Z"
/>
<path fill="#972c26" d="
  M 1421.21 378.55
  L 1401.66 378.58
  Q 1399.75 378.58 1399.74 376.66
  L 1399.74 376.38
  Q 1399.73 374.23 1401.88 374.23
  L 1442.85 374.24
  Q 1444.48 374.24 1445.07 375.77
  Q 1445.19 376.08 1445.16 376.41
  Q 1444.97 378.52 1442.85 378.52
  L 1427.00 378.54
  Q 1426.28 378.54 1426.28 379.26
  L 1426.31 400.16
  A 0.61 0.60 -90.0 0 0 1426.91 400.77
  L 1443.15 400.78
  A 1.72 1.71 66.8 0 1 1444.34 401.26
  Q 1445.19 402.08 1445.15 402.94
  Q 1445.04 405.14 1442.84 405.14
  L 1401.84 405.20
  Q 1399.60 405.20 1399.73 402.96
  L 1399.76 402.57
  A 1.92 1.92 0.0 0 1 1401.68 400.76
  L 1421.21 400.76
  Q 1421.93 400.76 1421.93 400.04
  L 1421.88 379.22
  Q 1421.88 378.55 1421.21 378.55
  Z"
/>
<path fill="#972c26" d="
  M 1434.51 437.72
  L 1401.94 437.76
  Q 1399.62 437.76 1399.71 435.44
  L 1399.74 434.77
  A 1.58 1.58 0.0 0 1 1401.32 433.25
  Q 1422.93 433.30 1442.38 433.30
  C 1443.51 433.30 1444.95 433.72 1445.15 435.02
  Q 1445.36 436.42 1444.20 437.22
  Q 1428.64 448.03 1410.47 460.64
  Q 1409.29 461.46 1410.72 461.46
  L 1443.25 461.50
  A 1.90 1.90 0.0 0 1 1445.14 463.21
  Q 1445.18 463.63 1445.10 464.05
  A 2.07 2.07 0.0 0 1 1443.06 465.75
  L 1401.73 465.81
  A 2.06 2.05 86.0 0 1 1399.70 464.04
  Q 1399.50 462.62 1400.75 461.76
  Q 1417.05 450.44 1434.66 438.22
  Q 1435.38 437.72 1434.51 437.72
  Z"
/>
<rect fill="#972c26" x="1399.71" y="472.54" width="45.46" height="4.46" rx="2.18"/>
<path fill="#972c26" d="
  M 1419.94 509.17
  A 0.33 0.33 0.0 0 0 1420.18 508.62
  L 1400.76 487.86
  Q 1399.55 486.57 1399.89 484.83
  Q 1400.23 483.17 1403.28 484.34
  A 2.18 2.14 78.5 0 1 1404.11 484.90
  L 1417.02 498.72
  A 0.88 0.87 52.0 0 0 1418.13 498.86
  L 1441.91 484.09
  A 1.90 1.87 39.4 0 1 1443.60 483.94
  Q 1445.41 484.65 1445.13 486.48
  A 1.83 1.79 -11.6 0 1 1444.28 487.74
  L 1420.95 502.19
  A 0.44 0.44 0.0 0 0 1420.86 502.86
  L 1425.79 508.21
  A 3.06 3.03 -21.0 0 0 1428.00 509.18
  L 1442.86 509.20
  Q 1444.90 509.21 1445.13 511.23
  Q 1445.22 511.98 1444.71 512.74
  A 1.73 1.72 16.8 0 1 1443.28 513.50
  L 1401.86 513.53
  Q 1399.68 513.54 1399.73 511.36
  L 1399.73 511.07
  Q 1399.77 509.16 1401.68 509.16
  L 1419.94 509.17
  Z"
/>
<path fill="#423f1e" d="
  M 1514.7100 533.1075
  A 21.46 20.32 0.1 0 1 1493.2145 553.3900
  A 21.46 20.32 0.1 0 1 1471.7900 533.0325
  A 21.46 20.32 0.1 0 1 1493.2855 512.7500
  A 21.46 20.32 0.1 0 1 1514.7100 533.1075
  Z
  M 1511.1200 533.0588
  A 17.87 16.93 -0.1 0 0 1493.2205 516.1600
  A 17.87 16.93 -0.1 0 0 1475.3800 533.1212
  A 17.87 16.93 -0.1 0 0 1493.2795 550.0200
  A 17.87 16.93 -0.1 0 0 1511.1200 533.0588
  Z"
/>
<path fill="#ffffff" d="
  M 1511.1200 533.0588
  A 17.87 16.93 -0.1 0 1 1493.2795 550.0200
  A 17.87 16.93 -0.1 0 1 1475.3800 533.1212
  A 17.87 16.93 -0.1 0 1 1493.2205 516.1600
  A 17.87 16.93 -0.1 0 1 1511.1200 533.0588
  Z
  M 1496.31 534.24
  C 1503.73 533.29 1503.31 523.01 1495.37 522.62
  Q 1490.15 522.37 1484.30 522.44
  A 0.50 0.50 0.0 0 0 1483.81 522.94
  L 1483.79 543.72
  Q 1483.79 544.39 1484.47 544.37
  L 1487.01 544.30
  Q 1487.56 544.28 1487.56 543.74
  L 1487.56 535.73
  Q 1487.56 535.21 1488.07 535.13
  Q 1492.04 534.45 1494.12 537.20
  Q 1496.46 540.30 1498.51 544.07
  Q 1498.63 544.28 1498.87 544.29
  L 1502.94 544.34
  A 0.12 0.11 75.9 0 0 1503.04 544.17
  Q 1499.84 538.50 1496.12 534.81
  Q 1495.62 534.32 1496.31 534.24
  Z"
/>
<path fill="#972c26" d="
  M 1405.07 537.76
  Q 1406.11 540.82 1409.31 541.87
  C 1413.13 543.14 1415.40 539.10 1416.40 536.10
  Q 1417.98 531.38 1419.96 527.14
  C 1426.75 512.60 1445.83 519.81 1445.08 534.36
  C 1444.85 538.76 1442.01 546.30 1437.18 547.83
  A 2.03 2.02 58.7 0 1 1435.14 547.33
  C 1434.16 546.33 1434.08 544.88 1435.23 544.01
  Q 1441.59 539.21 1440.47 531.53
  C 1439.30 523.51 1428.68 520.19 1424.54 528.29
  Q 1422.69 531.89 1421.42 535.98
  C 1419.26 542.94 1413.53 549.85 1405.65 544.89
  C 1398.55 540.43 1397.99 529.59 1403.17 523.23
  C 1404.44 521.67 1407.31 519.47 1409.04 521.55
  A 1.99 1.99 0.0 0 1 1408.68 524.43
  Q 1402.14 529.18 1405.07 537.76
  Z"
/>
<path fill="#423f1e" d="
  M 1496.12 534.81
  Q 1499.84 538.50 1503.04 544.17
  A 0.12 0.11 75.9 0 1 1502.94 544.34
  L 1498.87 544.29
  Q 1498.63 544.28 1498.51 544.07
  Q 1496.46 540.30 1494.12 537.20
  Q 1492.04 534.45 1488.07 535.13
  Q 1487.56 535.21 1487.56 535.73
  L 1487.56 543.74
  Q 1487.56 544.28 1487.01 544.30
  L 1484.47 544.37
  Q 1483.79 544.39 1483.79 543.72
  L 1483.81 522.94
  A 0.50 0.50 0.0 0 1 1484.30 522.44
  Q 1490.15 522.37 1495.37 522.62
  C 1503.31 523.01 1503.73 533.29 1496.31 534.24
  Q 1495.62 534.32 1496.12 534.81
  Z
  M 1487.53 525.89
  L 1487.55 531.57
  A 0.43 0.43 0.0 0 0 1487.98 532.00
  L 1493.41 531.98
  A 4.28 3.07 -0.2 0 0 1497.68 528.89
  L 1497.68 528.49
  A 4.28 3.07 -0.2 0 0 1493.39 525.44
  L 1487.96 525.46
  A 0.43 0.43 0.0 0 0 1487.53 525.89
  Z"
/>
<path fill="#ffffff" d="
  M 1487.53 525.89
  A 0.43 0.43 0.0 0 1 1487.96 525.46
  L 1493.39 525.44
  A 4.28 3.07 -0.2 0 1 1497.68 528.49
  L 1497.68 528.89
  A 4.28 3.07 -0.2 0 1 1493.41 531.98
  L 1487.98 532.00
  A 0.43 0.43 0.0 0 1 1487.55 531.57
  L 1487.53 525.89
  Z"
/>
</svg>
