<?xml version="1.0" encoding="UTF-8"?><svg id="a" xmlns="http://www.w3.org/2000/svg" xmlns:xlink="http://www.w3.org/1999/xlink" viewBox="0 0 500 500"><defs><style>.c{fill:none;}.d{clip-path:url(#b);}</style><clipPath id="b"><rect class="c" x="90.76" y="160" width="318.24" height="212.23"/></clipPath></defs><g class="d"><path d="M342.02,229.32c4.27-2.56,5.55-7.89,2.99-12.16s-7.89-5.55-12.16-2.99-5.55,7.89-2.99,12.16c2.56,4.05,7.89,5.33,12.16,2.99m41.17,73.16c4.27-2.56,5.55-7.89,2.99-12.16-2.56-4.27-7.89-5.55-12.16-2.99-4.27,2.56-5.55,7.89-2.99,12.16,2.56,4.05,7.89,5.33,12.16,2.99m-54.18-61.43c2.35-4.27,.64-9.6-3.63-11.94-4.27-2.35-9.6-.64-11.94,3.63-2.35,4.27-.64,9.6,3.63,11.94,4.27,2.35,9.6,.64,11.94-3.63m72.73,42.66c2.35-4.27,.64-9.6-3.63-11.94s-9.6-.64-11.94,3.63-.64,9.6,3.63,11.94c4.48,2.35,9.81,.64,11.94-3.63m-78.28-25.17c0-4.91-4.05-8.75-8.96-8.75s-8.75,4.05-8.75,8.96,4.05,8.75,8.96,8.75c4.91-.21,8.75-4.27,8.75-8.96m85.53-.64c-.21-4.91-4.27-8.75-9.17-8.53s-8.75,4.27-8.53,9.17,4.27,8.75,9.17,8.53c4.69-.21,8.53-4.27,8.53-9.17m-80.84,16.85c-2.56-4.27-7.89-5.55-12.16-2.99-4.27,2.56-5.55,7.89-2.99,12.16,2.56,4.27,7.89,5.55,12.16,2.99,4.05-2.56,5.55-7.89,2.99-12.16m77.64-108.57c-2.56-4.27-7.89-5.55-12.16-2.99-4.27,2.56-5.55,7.89-2.99,12.16s7.89,5.55,12.16,2.99c4.05-2.56,5.55-8.11,2.99-12.16m.43,21.54c-2.56-4.27-7.89-5.55-12.16-2.99-4.27,2.56-5.55,7.89-2.99,12.16,2.56,4.27,7.89,5.55,12.16,2.99s5.55-8.11,2.99-12.16m.43,21.76c-2.56-4.27-7.89-5.55-12.16-2.99s-5.55,7.89-2.99,12.16c2.56,4.27,7.89,5.55,12.16,2.99s5.55-7.89,2.99-12.16m.43,22.61c-2.56-4.27-7.89-5.55-12.16-2.99-4.27,2.56-5.55,7.89-2.99,12.16,2.56,4.27,7.89,5.55,12.16,2.99,4.27-2.56,5.55-8.11,2.99-12.16m-66.76,54.82c-4.27-2.35-9.6-.85-11.94,3.41s-.85,9.6,3.41,11.94c4.27,2.35,9.6,.85,11.94-3.41,2.35-4.05,.85-9.6-3.41-11.94m44.15-70.81c-4.27-2.35-9.6-.85-11.94,3.41-2.35,4.27-.85,9.6,3.41,11.94s9.6,.85,11.94-3.41c2.35-4.27,.85-9.6-3.41-11.94m-27.09,75.72c-4.91,0-8.75,4.05-8.75,8.75s4.05,8.75,8.75,8.75,8.75-4.05,8.75-8.75c0-4.91-3.84-8.75-8.75-8.75m1.92-83.4c-4.91,0-8.75,4.05-8.75,8.75s4.05,8.75,8.75,8.75,8.75-4.05,8.75-8.75-4.05-8.75-8.75-8.75m-234.41,22.4c4.27-2.56,5.55-7.89,2.99-12.16s-7.89-5.55-12.16-2.99c-4.27,2.56-5.55,7.89-2.99,12.16,2.56,4.05,7.89,5.33,12.16,2.99m42.66,71.67c4.27-2.56,5.55-7.89,2.99-12.16-2.56-4.27-7.89-5.55-12.16-2.99-4.27,2.56-5.55,7.89-2.99,12.16,2.56,4.05,7.89,5.33,12.16,2.99m-54.18-59.72c2.35-4.27,.64-9.6-3.63-11.94-4.27-2.35-9.6-.64-11.94,3.63-2.35,4.27-.64,9.6,3.63,11.94s9.6,.64,11.94-3.63m77.43,41.59c2.35-4.27,.64-9.6-3.63-11.94s-9.6-.64-11.94,3.63-.64,9.6,3.63,11.94c4.27,2.35,9.81,.64,11.94-3.63m-82.33-25.6c0-4.91-4.05-8.75-8.96-8.75s-8.75,4.05-8.75,8.96,4.05,8.75,8.96,8.75c4.91-.21,8.75-4.05,8.75-8.96m84.04-1.49c-.21-4.91-4.27-8.75-9.17-8.53s-8.75,4.27-8.53,9.17c.21,4.91,4.27,8.75,9.17,8.53s8.75-4.27,8.53-9.17m-79.35,17.92c-2.56-4.27-7.89-5.55-12.16-2.99-4.27,2.56-5.55,7.89-2.99,12.16s7.89,5.55,12.16,2.99c4.05-2.56,5.55-8.11,2.99-12.16m72.31-42.45c-2.56-4.27-7.89-5.55-12.16-2.99-4.27,2.56-5.55,7.89-2.99,12.16,2.56,4.27,7.89,5.55,12.16,2.99,4.27-2.56,5.55-7.89,2.99-12.16m-59.94,54.39c-4.27-2.35-9.6-.85-11.94,3.41-2.35,4.27-.85,9.6,3.41,11.94s9.6,.85,11.94-3.41c2.35-4.05,.85-9.6-3.41-11.94m41.59-72.52c-4.27-2.35-9.6-.85-11.94,3.41s-.85,9.6,3.41,11.94,9.6,.85,11.94-3.41c2.35-4.27,.85-9.6-3.41-11.94m120.94,76.79c-4.91,0-8.75,4.05-8.75,8.75s4.05,8.75,8.75,8.75,8.75-4.05,8.75-8.75c.21-4.91-3.84-8.75-8.75-8.75m0-21.12c-4.91,0-8.75,4.05-8.75,8.75s4.05,8.75,8.75,8.75,8.75-4.05,8.75-8.75c.21-4.91-3.84-8.75-8.75-8.75m0-22.18c-4.91,0-8.75,4.05-8.75,8.75s4.05,8.75,8.75,8.75,8.75-4.05,8.75-8.75c.21-4.69-3.84-8.75-8.75-8.75m-3.63-19.84c-4.91,0-8.75,4.05-8.75,8.75s4.05,8.75,8.75,8.75,8.75-4.05,8.75-8.75-4.05-8.75-8.75-8.75m-13.22-15.36c-4.91,0-8.75,4.05-8.75,8.75s4.05,8.75,8.75,8.75,8.75-4.05,8.75-8.75c.21-4.69-3.84-8.75-8.75-8.75m-20.05-4.48c-4.91,0-8.75,4.05-8.75,8.75s4.05,8.75,8.75,8.75,8.75-4.05,8.75-8.75-3.84-8.75-8.75-8.75m-20.05,6.61c-4.91,0-8.75,4.05-8.75,8.75s4.05,8.75,8.75,8.75,8.75-4.05,8.75-8.75-3.84-8.75-8.75-8.75m-93.42,139.5c-4.91,0-8.75,4.05-8.75,8.75s4.05,8.75,8.75,8.75,8.75-4.05,8.75-8.75c.21-4.69-3.84-8.75-8.75-8.75m20.26-6.19c-4.91,0-8.75,4.05-8.75,8.75s4.05,8.75,8.75,8.75,8.75-4.05,8.75-8.75c0-4.91-3.84-8.75-8.75-8.75m16-14.5c-4.91,0-8.75,4.05-8.75,8.75s4.05,8.75,8.75,8.75,8.75-4.05,8.75-8.75c.21-4.69-3.84-8.75-8.75-8.75m7.47-20.05c-4.91,0-8.75,4.05-8.75,8.75s4.05,8.75,8.75,8.75,8.75-4.05,8.75-8.75c.21-4.69-3.84-8.75-8.75-8.75m1.71-20.9c-4.91,0-8.75,4.05-8.75,8.75s4.05,8.75,8.75,8.75,8.75-4.05,8.75-8.75c0-4.91-3.84-8.75-8.75-8.75m29.65-.64c-4.91,0-8.75,4.05-8.75,8.75s4.05,8.75,8.75,8.75,8.75-4.05,8.75-8.75-4.05-8.75-8.75-8.75m0-21.97c-4.91,0-8.75,4.05-8.75,8.75s4.05,8.75,8.75,8.75,8.75-4.05,8.75-8.75-4.05-8.75-8.75-8.75m0-22.18c-4.91,0-8.75,4.05-8.75,8.75s4.05,8.75,8.75,8.75,8.75-4.05,8.75-8.75-4.05-8.75-8.75-8.75m0-21.97c-4.91,0-8.75,4.05-8.75,8.75s4.05,8.75,8.75,8.75,8.75-4.05,8.75-8.75-4.05-8.75-8.75-8.75m-70.39,65.27c-4.91,0-8.75,4.05-8.75,8.75s4.05,8.75,8.75,8.75,8.75-4.05,8.75-8.75-4.05-8.75-8.75-8.75m-.85-82.97c-4.91,0-8.75,4.05-8.75,8.75s4.05,8.75,8.75,8.75,8.75-4.05,8.75-8.75c.21-4.69-3.84-8.75-8.75-8.75m71.24-4.27c-4.91,0-8.75,4.05-8.75,8.75s4.05,8.75,8.75,8.75,8.75-4.05,8.75-8.75-4.05-8.75-8.75-8.75m0-22.18c-4.91,0-8.75,4.05-8.75,8.75s4.05,8.75,8.75,8.75,8.75-4.05,8.75-8.75-4.05-8.75-8.75-8.75m8.75-13.22c0,4.91-4.05,8.75-8.75,8.75s-8.75-4.05-8.75-8.75,4.05-8.75,8.75-8.75c4.69,0,8.75,4.05,8.75,8.75"/></g></svg>