<?xml version="1.0" encoding="UTF-8" standalone="no"?>
<!DOCTYPE svg PUBLIC "-//W3C//DTD SVG 1.1//EN" "http://www.w3.org/Graphics/SVG/1.1/DTD/svg11.dtd">
<svg xmlns="http://www.w3.org/2000/svg" version="1.1" viewBox="0.00 0.00 2973.00 705.00" width="9512.00" height="2256.00">
<g stroke-width="2.00" fill="none" stroke-linecap="butt">
<path stroke="#8c8c92" vector-effect="non-scaling-stroke" d="
  M 1010.38 100.46
  A 0.86 0.86 0.0 0 0 1009.16 100.78
  L 996.37 124.68
  A 0.86 0.86 0.0 0 0 996.72 125.85
  L 1045.40 151.88
  A 0.86 0.86 0.0 0 0 1046.56 151.53
  L 1057.59 131.17
  A 0.86 0.86 0.0 0 0 1057.29 130.03
  L 1010.38 100.46"
/>
<path stroke="#8c8c92" vector-effect="non-scaling-stroke" d="
  M 857.85 325.78
  C 830.56 347.15 792.23 344.77 768.03 319.93
  C 735.12 286.15 746.36 231.88 788.65 212.50
  C 809.77 202.82 833.38 205.01 852.97 217.46
  A 0.62 0.62 0.0 0 0 853.82 217.28
  L 873.21 188.43
  A 0.56 0.55 -57.4 0 0 873.04 187.65
  Q 835.95 164.15 793.80 173.03
  C 770.00 178.05 748.22 192.30 733.85 211.39
  C 707.80 246.00 705.85 292.44 729.23 328.78
  C 765.56 385.24 845.40 392.63 891.54 343.66
  A 2.71 2.69 66.9 0 0 892.28 341.80
  L 892.26 262.29
  A 0.72 0.71 0.0 0 0 891.54 261.58
  L 858.78 261.68
  A 0.40 0.40 0.0 0 0 858.38 262.08
  L 858.37 324.71
  Q 858.37 325.37 857.85 325.78"
/>
<path stroke="#8c8c92" vector-effect="non-scaling-stroke" d="
  M 328.58 207.34
  A 0.55 0.55 0.0 0 1 329.13 206.79
  L 430.03 206.81
  A 0.55 0.55 0.0 0 0 430.58 206.26
  L 430.69 174.57
  A 0.55 0.55 0.0 0 0 430.14 174.02
  L 290.82 173.97
  A 0.55 0.55 0.0 0 0 290.27 174.52
  L 290.26 372.48
  A 0.55 0.55 0.0 0 0 290.81 373.03
  L 438.08 373.03
  A 0.55 0.55 0.0 0 0 438.63 372.48
  L 438.71 340.55
  A 0.55 0.55 0.0 0 0 438.16 340.00
  L 329.09 340.00
  A 0.55 0.55 0.0 0 1 328.54 339.45
  L 328.54 294.30
  A 0.55 0.55 0.0 0 1 329.09 293.75
  L 402.59 293.75
  A 0.55 0.55 0.0 0 0 403.14 293.20
  L 403.16 261.80
  A 0.55 0.55 0.0 0 0 402.61 261.25
  L 329.12 261.25
  A 0.55 0.55 0.0 0 1 328.57 260.70
  L 328.58 207.34"
/>
<path stroke="#8c8c92" vector-effect="non-scaling-stroke" d="
  M 1710.27 321.51
  A 0.69 0.69 0.0 0 1 1710.96 320.82
  Q 1730.60 320.91 1750.33 320.86
  Q 1764.72 320.83 1775.05 316.69
  C 1798.98 307.09 1815.80 284.29 1817.67 258.18
  C 1820.45 219.50 1805.06 178.71 1760.98 174.56
  Q 1754.90 173.99 1752.75 174.00
  Q 1712.06 174.23 1673.19 174.07
  A 0.43 0.43 0.0 0 0 1672.76 174.50
  L 1672.76 369.30
  A 0.29 0.29 0.0 0 0 1673.05 369.59
  L 1709.71 369.59
  Q 1710.27 369.59 1710.27 369.04
  L 1710.27 321.51"
/>
<path stroke="#8c8c92" vector-effect="non-scaling-stroke" d="
  M 591.90 374.51
  C 631.48 369.81 656.93 340.49 656.94 300.97
  Q 656.96 238.54 656.95 176.03
  Q 656.95 175.34 656.26 175.34
  L 618.70 175.34
  Q 618.00 175.34 618.00 176.04
  Q 617.91 233.87 618.03 294.77
  C 618.05 305.56 617.20 314.95 611.57 323.87
  C 604.78 334.65 593.34 338.91 580.54 339.47
  C 560.45 340.36 544.12 333.10 538.48 312.87
  Q 537.12 307.97 537.14 298.86
  Q 537.29 239.06 537.22 175.95
  Q 537.22 175.40 536.67 175.40
  L 498.71 175.32
  Q 497.93 175.32 497.93 176.11
  Q 498.06 236.02 497.88 293.58
  Q 497.85 304.93 499.03 313.20
  C 503.84 346.81 527.71 369.72 561.37 374.25
  Q 576.68 376.31 591.90 374.51"
/>
<path stroke="#8c8c92" vector-effect="non-scaling-stroke" d="
  M 2181.04 290.21
  C 2209.54 280.95 2232.43 252.56 2224.21 221.25
  C 2221.73 211.81 2216.15 201.93 2209.56 194.97
  Q 2193.19 177.69 2168.24 175.94
  Q 2162.06 175.51 2160.48 175.52
  Q 2121.64 175.76 2082.50 175.80
  Q 2082.02 175.80 2082.02 176.29
  L 2082.10 371.31
  Q 2082.10 371.77 2082.56 371.77
  L 2119.47 371.77
  A 0.74 0.73 -90.0 0 0 2120.20 371.03
  L 2120.22 292.76
  A 0.52 0.51 -0.0 0 1 2120.74 292.25
  L 2133.01 292.25
  A 1.41 1.40 -17.8 0 1 2134.15 292.83
  Q 2147.76 311.16 2167.50 336.08
  Q 2176.77 347.79 2185.32 356.63
  Q 2198.06 369.81 2216.51 371.86
  Q 2232.02 373.58 2247.26 372.92
  Q 2247.88 372.90 2247.88 372.27
  L 2247.88 339.72
  A 0.86 0.86 0.0 0 0 2246.96 338.86
  Q 2239.24 339.43 2232.33 338.60
  C 2221.05 337.25 2212.23 330.63 2205.20 322.01
  Q 2192.87 306.88 2180.86 290.77
  A 0.36 0.36 0.0 0 1 2181.04 290.21"
/>
<path stroke="#8c8c92" vector-effect="non-scaling-stroke" d="
  M 993.74 339.15
  A 0.50 0.50 0.0 0 1 993.24 338.65
  L 993.25 294.25
  A 0.50 0.50 0.0 0 1 993.75 293.75
  L 1065.75 293.75
  A 0.50 0.50 0.0 0 0 1066.25 293.25
  L 1066.25 261.98
  A 0.50 0.50 0.0 0 0 1065.75 261.48
  L 993.75 261.48
  A 0.50 0.50 0.0 0 1 993.25 260.98
  L 993.24 208.54
  A 0.50 0.50 0.0 0 1 993.74 208.04
  L 1093.05 208.03
  A 0.50 0.50 0.0 0 0 1093.55 207.53
  L 1093.52 176.22
  A 0.50 0.50 0.0 0 0 1093.02 175.72
  L 955.91 175.76
  A 0.50 0.50 0.0 0 0 955.41 176.26
  L 955.43 371.30
  A 0.50 0.50 0.0 0 0 955.93 371.80
  L 1100.74 371.80
  A 0.50 0.50 0.0 0 0 1101.24 371.30
  L 1101.25 339.65
  A 0.50 0.50 0.0 0 0 1100.75 339.15
  L 993.74 339.15"
/>
<path stroke="#8c8c92" vector-effect="non-scaling-stroke" d="
  M 1201.90 240.76
  Q 1202.08 240.84 1202.19 240.99
  Q 1247.23 305.46 1292.73 370.47
  Q 1293.64 371.77 1295.23 371.77
  L 1327.50 371.77
  A 0.77 0.76 -90.0 0 0 1328.26 371.00
  L 1328.26 176.45
  A 0.81 0.80 -0.0 0 0 1327.45 175.65
  L 1290.24 175.75
  A 0.51 0.51 0.0 0 0 1289.73 176.26
  L 1289.67 307.77
  Q 1289.67 308.97 1288.98 307.98
  L 1196.87 176.31
  A 1.44 1.43 72.2 0 0 1195.70 175.70
  L 1163.49 175.70
  Q 1162.94 175.70 1162.94 176.26
  L 1162.93 371.48
  Q 1162.93 371.77 1163.23 371.77
  L 1200.98 371.77
  A 0.50 0.49 90.0 0 0 1201.47 371.27
  L 1201.48 241.03
  Q 1201.48 240.56 1201.90 240.76"
/>
<path stroke="#8c8c92" vector-effect="non-scaling-stroke" d="
  M 1433.33 339.09
  A 0.58 0.58 0.0 0 1 1432.75 338.51
  L 1432.75 294.33
  A 0.58 0.58 0.0 0 1 1433.33 293.75
  L 1505.59 293.75
  A 0.58 0.58 0.0 0 0 1506.17 293.17
  L 1506.14 262.03
  A 0.58 0.58 0.0 0 0 1505.56 261.45
  L 1433.33 261.49
  A 0.58 0.58 0.0 0 1 1432.75 260.91
  L 1432.74 208.64
  A 0.58 0.58 0.0 0 1 1433.32 208.06
  L 1532.71 208.01
  A 0.58 0.58 0.0 0 0 1533.29 207.43
  L 1533.26 176.30
  A 0.58 0.58 0.0 0 0 1532.68 175.72
  L 1395.30 175.75
  A 0.58 0.58 0.0 0 0 1394.72 176.33
  L 1394.71 371.22
  A 0.58 0.58 0.0 0 0 1395.29 371.80
  L 1540.59 371.80
  A 0.58 0.58 0.0 0 0 1541.17 371.22
  L 1541.13 339.68
  A 0.58 0.58 0.0 0 0 1540.55 339.10
  L 1433.33 339.09"
/>
<path stroke="#8c8c92" vector-effect="non-scaling-stroke" d="
  M 1913.70 294.22
  A 0.47 0.47 0.0 0 1 1914.17 293.75
  L 1986.09 293.75
  A 0.47 0.47 0.0 0 0 1986.56 293.28
  L 1986.58 261.90
  A 0.47 0.47 0.0 0 0 1986.11 261.43
  L 1914.19 261.43
  A 0.47 0.47 0.0 0 1 1913.72 260.96
  L 1913.71 208.50
  A 0.47 0.47 0.0 0 1 1914.18 208.03
  L 2013.40 208.07
  A 0.47 0.47 0.0 0 0 2013.87 207.60
  L 2013.93 176.17
  A 0.47 0.47 0.0 0 0 2013.46 175.70
  L 1876.20 175.71
  A 0.47 0.47 0.0 0 0 1875.73 176.18
  L 1875.74 371.32
  A 0.47 0.47 0.0 0 0 1876.21 371.79
  L 2021.09 371.84
  A 0.47 0.47 0.0 0 0 2021.56 371.37
  L 2021.56 339.62
  A 0.47 0.47 0.0 0 0 2021.09 339.15
  L 1914.19 339.15
  A 0.47 0.47 0.0 0 1 1913.72 338.68
  L 1913.70 294.22"
/>
<path stroke="#8c8c92" vector-effect="non-scaling-stroke" d="
  M 2348.48 234.46
  Q 2348.48 233.61 2348.95 234.31
  L 2401.72 312.77
  Q 2402.18 313.47 2403.02 313.45
  L 2411.42 313.34
  A 1.43 1.40 16.4 0 0 2412.57 312.73
  L 2465.13 234.59
  Q 2465.78 233.63 2465.78 234.78
  L 2465.77 371.29
  A 0.53 0.52 90.0 0 0 2466.29 371.82
  L 2503.98 371.79
  A 0.77 0.76 90.0 0 0 2504.74 371.02
  L 2504.75 176.71
  A 1.04 1.04 0.0 0 0 2503.71 175.67
  L 2466.26 175.71
  A 1.28 1.28 0.0 0 0 2465.20 176.27
  Q 2437.74 217.03 2407.60 261.80
  Q 2407.47 261.99 2407.26 262.07
  Q 2406.94 262.18 2406.75 261.90
  L 2349.11 176.34
  Q 2348.70 175.73 2347.96 175.73
  L 2310.02 175.73
  A 0.51 0.50 0.0 0 0 2309.51 176.23
  L 2309.52 371.03
  A 0.76 0.75 -90.0 0 0 2310.27 371.79
  L 2347.44 371.84
  Q 2348.48 371.85 2348.48 370.81
  L 2348.48 234.46"
/>
<path stroke="#8c8c92" vector-effect="non-scaling-stroke" d="
  M 2593.35 371.80
  A 0.55 0.55 0.0 0 0 2593.87 371.45
  L 2609.14 331.39
  A 0.55 0.55 0.0 0 1 2609.66 331.04
  L 2682.28 331.03
  A 0.55 0.55 0.0 0 1 2682.80 331.38
  L 2698.13 371.45
  A 0.55 0.55 0.0 0 0 2698.65 371.80
  L 2736.94 371.80
  A 0.55 0.55 0.0 0 0 2737.46 371.06
  L 2665.85 176.09
  A 0.55 0.55 0.0 0 0 2665.34 175.73
  L 2626.67 175.70
  A 0.55 0.55 0.0 0 0 2626.16 176.06
  L 2554.49 371.06
  A 0.55 0.55 0.0 0 0 2555.01 371.80
  L 2593.35 371.80"
/>
<path stroke="#8c8c92" vector-effect="non-scaling-stroke" d="
  M 1890.29 492.39
  A 0.46 0.46 0.0 0 0 1889.83 491.93
  L 1883.71 491.93
  A 0.46 0.46 0.0 0 0 1883.25 492.39
  L 1883.25 586.81
  A 0.46 0.46 0.0 0 0 1883.71 587.27
  L 1889.83 587.27
  A 0.46 0.46 0.0 0 0 1890.29 586.81
  L 1890.29 492.39"
/>
<path stroke="#8c8c92" vector-effect="non-scaling-stroke" d="
  M 882.6698 575.5451
  A 37.62 37.05 97.3 0 0 924.1997 542.9377
  A 37.62 37.05 97.3 0 0 892.2302 500.9149
  A 37.62 37.05 97.3 0 0 850.7003 533.5223
  A 37.62 37.05 97.3 0 0 882.6698 575.5451"
/>
<path stroke="#8c8c92" vector-effect="non-scaling-stroke" d="
  M 1381.9047 575.5367
  A 37.62 37.04 97.4 0 0 1423.4815 543.0006
  A 37.62 37.04 97.4 0 0 1391.5953 500.9233
  A 37.62 37.04 97.4 0 0 1350.0185 533.4594
  A 37.62 37.04 97.4 0 0 1381.9047 575.5367"
/>
<path stroke="#8c8c92" vector-effect="non-scaling-stroke" d="
  M 1149.36 510.32
  C 1158.32 506.91 1168.98 510.17 1176.73 516.38
  Q 1177.41 516.93 1177.94 516.23
  L 1182.25 510.55
  A 0.63 0.63 0.0 0 0 1182.14 509.67
  Q 1168.78 499.14 1151.67 501.57
  C 1141.50 503.01 1133.72 509.71 1133.06 520.08
  C 1132.39 530.62 1138.53 536.75 1148.22 539.55
  Q 1156.23 541.87 1164.23 543.98
  C 1171.08 545.78 1177.26 549.74 1175.38 557.89
  C 1173.23 567.26 1161.42 568.58 1153.43 566.89
  Q 1143.28 564.74 1135.66 557.28
  Q 1135.48 557.11 1135.33 557.29
  L 1130.12 563.45
  Q 1129.95 563.65 1130.15 563.83
  Q 1144.46 576.66 1163.02 575.26
  C 1176.42 574.25 1186.64 564.95 1184.18 550.74
  C 1181.77 536.75 1163.92 535.04 1153.02 531.87
  C 1146.60 530.00 1140.70 526.36 1142.09 518.61
  Q 1143.15 512.69 1149.36 510.32"
/>
<path stroke="#8c8c92" vector-effect="non-scaling-stroke" d="
  M 1232.75 510.54
  C 1241.75 506.80 1253.05 509.94 1260.44 516.29
  Q 1261.29 517.02 1261.97 516.14
  L 1266.08 510.81
  A 0.93 0.93 0.0 0 0 1265.91 509.51
  Q 1251.81 498.57 1233.92 501.88
  C 1223.15 503.87 1215.62 512.89 1217.16 524.17
  C 1219.66 542.47 1242.78 539.86 1254.78 546.66
  Q 1259.90 549.57 1259.61 555.96
  C 1259.32 562.35 1253.81 566.43 1247.76 567.19
  C 1236.98 568.55 1227.44 564.80 1219.71 557.32
  Q 1219.51 557.13 1219.33 557.34
  L 1214.02 563.42
  Q 1213.86 563.61 1214.04 563.78
  Q 1228.87 577.30 1248.63 575.08
  C 1257.69 574.06 1266.00 568.54 1268.03 559.20
  C 1271.28 544.26 1259.97 537.32 1247.54 534.56
  C 1239.84 532.85 1224.07 530.71 1225.89 519.00
  Q 1226.82 513.01 1232.75 510.54"
/>
<path stroke="#8c8c92" vector-effect="non-scaling-stroke" d="
  M 2346.46 555.35
  C 2346.31 562.87 2339.37 567.11 2332.49 567.48
  C 2322.34 568.02 2313.73 564.18 2306.39 557.33
  Q 2306.22 557.17 2306.07 557.34
  L 2300.81 563.33
  Q 2300.59 563.57 2300.83 563.79
  Q 2315.40 577.05 2334.69 575.13
  C 2344.76 574.12 2353.54 568.20 2355.01 557.62
  C 2357.66 538.55 2338.54 535.46 2325.08 532.38
  C 2319.27 531.06 2312.62 527.57 2312.38 520.83
  Q 2312.18 515.57 2316.68 512.29
  C 2325.76 505.66 2339.39 509.67 2347.40 516.41
  A 0.79 0.78 38.8 0 0 2348.53 516.29
  L 2352.88 510.68
  Q 2353.34 510.08 2352.75 509.61
  Q 2340.36 499.80 2324.01 501.34
  C 2313.70 502.31 2304.76 508.61 2303.79 519.37
  C 2302.10 538.19 2321.37 540.49 2334.68 543.74
  C 2340.32 545.12 2346.60 548.81 2346.46 555.35"
/>
<path stroke="#8c8c92" vector-effect="non-scaling-stroke" d="
  M 2112.09 555.55
  A 0.37 0.37 0.0 0 1 2112.43 555.77
  L 2120.50 574.06
  A 0.37 0.37 0.0 0 0 2120.84 574.28
  L 2129.53 574.24
  A 0.37 0.37 0.0 0 0 2129.86 573.72
  L 2097.29 501.79
  A 0.37 0.37 0.0 0 0 2096.95 501.57
  L 2089.28 501.68
  A 0.37 0.37 0.0 0 0 2088.94 501.89
  L 2056.42 573.71
  A 0.37 0.37 0.0 0 0 2056.76 574.24
  L 2065.02 574.31
  A 0.37 0.37 0.0 0 0 2065.36 574.09
  L 2073.59 555.77
  A 0.37 0.37 0.0 0 1 2073.93 555.55
  L 2112.09 555.55"
/>
<path stroke="#8c8c92" vector-effect="non-scaling-stroke" d="
  M 968.94 543.78
  A 0.49 0.49 0.0 0 1 969.43 543.29
  L 1007.20 543.35
  A 0.49 0.49 0.0 0 0 1007.69 542.86
  L 1007.71 535.71
  A 0.49 0.49 0.0 0 0 1007.22 535.22
  L 969.43 535.23
  A 0.49 0.49 0.0 0 1 968.94 534.74
  L 968.94 510.49
  A 0.49 0.49 0.0 0 1 969.43 510.00
  L 1012.05 510.00
  A 0.49 0.49 0.0 0 0 1012.54 509.51
  L 1012.53 502.42
  A 0.49 0.49 0.0 0 0 1012.04 501.93
  L 960.80 501.95
  A 0.49 0.49 0.0 0 0 960.31 502.44
  L 960.34 573.81
  A 0.49 0.49 0.0 0 0 960.83 574.30
  L 968.45 574.29
  A 0.49 0.49 0.0 0 0 968.94 573.80
  L 968.94 543.78"
/>
<path stroke="#8c8c92" vector-effect="non-scaling-stroke" d="
  M 681.90 549.33
  C 696.26 549.27 716.47 551.34 724.16 536.00
  Q 728.37 527.61 725.87 518.43
  C 722.64 506.56 710.85 502.09 699.31 501.98
  Q 686.17 501.85 673.36 501.94
  Q 672.60 501.94 672.60 502.70
  L 672.62 573.48
  Q 672.62 574.34 673.48 574.33
  L 680.49 574.26
  Q 681.23 574.25 681.23 573.51
  L 681.18 550.04
  Q 681.18 549.33 681.90 549.33"
/>
<path stroke="#8c8c92" vector-effect="non-scaling-stroke" d="
  M 799.05 544.90
  Q 800.38 544.60 801.71 544.26
  C 813.89 541.09 819.76 529.85 816.82 517.93
  C 814.19 507.22 803.33 502.12 792.83 502.02
  Q 776.26 501.87 760.78 501.99
  A 0.51 0.51 0.0 0 0 760.27 502.50
  L 760.29 574.05
  Q 760.30 574.30 760.55 574.30
  L 768.67 574.28
  Q 768.89 574.28 768.89 574.06
  L 768.89 546.93
  A 0.68 0.67 -0.0 0 1 769.57 546.26
  L 787.93 546.25
  A 1.63 1.62 71.4 0 1 789.23 546.90
  L 809.46 574.06
  A 0.50 0.49 -17.5 0 0 809.83 574.25
  Q 815.04 574.38 820.36 574.21
  A 0.05 0.04 -16.8 0 0 820.40 574.14
  Q 809.91 560.20 798.86 545.43
  A 0.34 0.33 65.3 0 1 799.05 544.90"
/>
<path stroke="#8c8c92" vector-effect="non-scaling-stroke" d="
  M 1055.74 510.40
  A 0.40 0.40 0.0 0 1 1056.14 510.00
  L 1099.12 510.00
  A 0.40 0.40 0.0 0 0 1099.52 509.60
  L 1099.49 502.34
  A 0.40 0.40 0.0 0 0 1099.09 501.94
  L 1047.20 501.94
  A 0.40 0.40 0.0 0 0 1046.80 502.34
  L 1046.82 573.91
  A 0.40 0.40 0.0 0 0 1047.22 574.31
  L 1099.36 574.31
  A 0.40 0.40 0.0 0 0 1099.76 573.91
  L 1099.79 566.87
  A 0.40 0.40 0.0 0 0 1099.39 566.47
  L 1056.16 566.47
  A 0.40 0.40 0.0 0 1 1055.76 566.07
  L 1055.75 542.52
  A 0.40 0.40 0.0 0 1 1056.15 542.12
  L 1094.36 542.12
  A 0.40 0.40 0.0 0 0 1094.76 541.72
  L 1094.78 534.37
  A 0.40 0.40 0.0 0 0 1094.38 533.97
  L 1056.15 533.97
  A 0.40 0.40 0.0 0 1 1055.75 533.57
  L 1055.74 510.40"
/>
<path stroke="#8c8c92" vector-effect="non-scaling-stroke" d="
  M 1313.26 502.64
  A 0.67 0.67 0.0 0 0 1312.59 501.97
  L 1304.99 501.97
  A 0.67 0.67 0.0 0 0 1304.32 502.64
  L 1304.32 573.60
  A 0.67 0.67 0.0 0 0 1304.99 574.27
  L 1312.59 574.27
  A 0.67 0.67 0.0 0 0 1313.26 573.60
  L 1313.26 502.64"
/>
<path stroke="#8c8c92" vector-effect="non-scaling-stroke" d="
  M 1467.75 516.97
  Q 1467.75 515.96 1468.38 516.76
  Q 1491.26 545.75 1512.60 572.91
  C 1514.20 574.94 1517.90 574.51 1520.16 574.19
  Q 1520.79 574.10 1520.79 573.47
  L 1520.79 502.24
  A 0.30 0.29 89.1 0 0 1520.49 501.94
  L 1512.47 502.03
  A 0.25 0.25 0.0 0 0 1512.22 502.28
  L 1512.24 557.73
  Q 1512.24 558.78 1511.59 557.96
  L 1468.14 502.65
  Q 1467.62 501.99 1466.77 501.98
  L 1460.23 501.94
  A 0.84 0.83 0.3 0 0 1459.38 502.77
  L 1459.43 573.99
  Q 1459.43 574.31 1459.74 574.30
  L 1467.48 574.29
  A 0.27 0.27 0.0 0 0 1467.75 574.02
  L 1467.75 516.97"
/>
<path stroke="#8c8c92" vector-effect="non-scaling-stroke" d="
  M 1568.35 516.76
  Q 1568.50 516.62 1568.69 516.72
  Q 1568.78 516.77 1568.85 516.86
  Q 1593.81 548.72 1613.12 573.08
  C 1614.67 575.04 1618.37 574.29 1620.53 574.22
  A 0.70 0.69 -1.3 0 0 1621.20 573.53
  L 1621.20 502.15
  Q 1621.20 501.99 1621.05 501.99
  L 1613.04 501.92
  Q 1612.76 501.92 1612.76 502.21
  L 1612.76 557.97
  Q 1612.76 559.02 1612.11 558.20
  L 1568.47 502.68
  A 1.91 1.91 0.0 0 0 1566.95 501.95
  L 1560.25 501.98
  A 0.52 0.52 0.0 0 0 1559.73 502.50
  L 1559.74 573.96
  Q 1559.74 574.26 1560.03 574.26
  L 1567.99 574.25
  Q 1568.29 574.25 1568.29 573.95
  L 1568.33 516.81
  A 0.07 0.07 0.0 0 1 1568.35 516.76"
/>
<path stroke="#8c8c92" vector-effect="non-scaling-stroke" d="
  M 1668.80 542.64
  A 0.52 0.52 0.0 0 1 1669.32 542.12
  L 1707.25 542.12
  A 0.52 0.52 0.0 0 0 1707.77 541.60
  L 1707.77 534.49
  A 0.52 0.52 0.0 0 0 1707.25 533.97
  L 1669.38 533.97
  A 0.52 0.52 0.0 0 1 1668.86 533.45
  L 1668.80 510.52
  A 0.52 0.52 0.0 0 1 1669.32 510.00
  L 1712.05 510.00
  A 0.52 0.52 0.0 0 0 1712.57 509.48
  L 1712.60 502.47
  A 0.52 0.52 0.0 0 0 1712.08 501.95
  L 1660.78 501.93
  A 0.52 0.52 0.0 0 0 1660.26 502.45
  L 1660.26 573.82
  A 0.52 0.52 0.0 0 0 1660.78 574.34
  L 1712.79 574.22
  A 0.52 0.52 0.0 0 0 1713.31 573.71
  L 1713.38 567.03
  A 0.52 0.52 0.0 0 0 1712.86 566.50
  L 1669.37 566.47
  A 0.52 0.52 0.0 0 1 1668.85 565.95
  L 1668.80 542.64"
/>
<path stroke="#8c8c92" vector-effect="non-scaling-stroke" d="
  M 1797.42 567.03
  A 0.52 0.52 0.0 0 0 1796.90 566.51
  L 1757.65 566.49
  A 0.52 0.52 0.0 0 1 1757.13 565.97
  L 1757.12 502.48
  A 0.52 0.52 0.0 0 0 1756.60 501.96
  L 1748.74 501.93
  A 0.52 0.52 0.0 0 0 1748.22 502.45
  L 1748.22 573.77
  A 0.52 0.52 0.0 0 0 1748.74 574.29
  L 1796.89 574.25
  A 0.52 0.52 0.0 0 0 1797.41 573.73
  L 1797.42 567.03"
/>
<path stroke="#8c8c92" vector-effect="non-scaling-stroke" d="
  M 1991.14 549.20
  C 1999.36 549.53 2008.23 549.59 2016.27 548.10
  C 2026.11 546.28 2034.82 538.96 2035.93 528.88
  C 2037.83 511.68 2025.89 502.24 2009.92 502.04
  Q 1996.39 501.86 1982.23 501.96
  A 0.49 0.49 0.0 0 0 1981.75 502.45
  L 1981.76 573.54
  Q 1981.76 574.31 1982.53 574.31
  L 1989.52 574.27
  Q 1990.31 574.26 1990.31 573.48
  L 1990.32 549.99
  A 0.79 0.78 -88.6 0 1 1991.14 549.20"
/>
<path stroke="#8c8c92" vector-effect="non-scaling-stroke" d="
  M 2201.62 544.81
  C 2211.23 543.52 2218.48 536.42 2219.89 527.67
  C 2221.60 517.04 2216.35 507.27 2205.83 503.94
  Q 2199.42 501.91 2192.39 501.90
  Q 2178.12 501.88 2163.42 501.90
  A 0.56 0.56 0.0 0 0 2162.86 502.46
  L 2162.85 573.93
  Q 2162.85 574.29 2163.21 574.29
  L 2170.97 574.26
  A 0.49 0.48 -0.0 0 0 2171.46 573.78
  L 2171.45 547.03
  A 0.78 0.77 90.0 0 1 2172.22 546.25
  L 2190.56 546.25
  A 1.47 1.45 71.5 0 1 2191.73 546.84
  L 2212.11 574.11
  A 0.48 0.46 -15.9 0 0 2212.47 574.30
  Q 2217.68 574.39 2222.91 574.22
  A 0.05 0.04 69.3 0 0 2222.94 574.14
  Q 2213.07 560.84 2201.38 545.41
  A 0.38 0.37 67.1 0 1 2201.62 544.81"
/>
<path stroke="#8c8c92" vector-effect="non-scaling-stroke" d="
  M 2265.97 502.66
  A 0.69 0.69 0.0 0 0 2265.28 501.97
  L 2257.70 501.97
  A 0.69 0.69 0.0 0 0 2257.01 502.66
  L 2257.01 573.58
  A 0.69 0.69 0.0 0 0 2257.70 574.27
  L 2265.28 574.27
  A 0.69 0.69 0.0 0 0 2265.97 573.58
  L 2265.97 502.66"
/>
<path stroke="#8c8c92" vector-effect="non-scaling-stroke" d="
  M 1759.35 208.57
  Q 1754.05 206.31 1749.18 206.30
  Q 1730.02 206.25 1710.65 206.11
  A 0.38 0.38 0.0 0 0 1710.27 206.49
  L 1710.27 288.06
  A 0.77 0.77 0.0 0 0 1711.06 288.83
  Q 1724.79 288.55 1736.50 288.86
  Q 1749.17 289.20 1754.99 287.54
  C 1771.35 282.88 1780.38 267.29 1780.44 250.64
  C 1780.49 233.86 1775.70 215.55 1759.35 208.57"
/>
<path stroke="#8c8c92" vector-effect="non-scaling-stroke" d="
  M 2157.25 261.74
  C 2177.60 261.68 2190.45 249.30 2187.68 228.51
  Q 2186.01 215.89 2175.84 211.08
  Q 2170.12 208.38 2164.35 208.26
  Q 2141.96 207.79 2120.69 208.12
  A 0.63 0.63 0.0 0 0 2120.06 208.75
  L 2120.09 261.02
  A 0.70 0.70 0.0 0 0 2120.78 261.72
  Q 2138.81 261.79 2157.25 261.74"
/>
<path stroke="#8c8c92" vector-effect="non-scaling-stroke" d="
  M 2620.66 301.36
  A 0.51 0.51 0.0 0 0 2621.15 302.02
  L 2670.85 302.02
  A 0.51 0.51 0.0 0 0 2671.34 301.36
  L 2646.48 225.14
  A 0.51 0.51 0.0 0 0 2645.52 225.14
  L 2620.66 301.36"
/>
<path stroke="#8c8c92" vector-effect="non-scaling-stroke" d="
  M 888.7955 567.6197
  A 29.44 27.99 87.4 0 0 915.4212 536.9403
  A 29.44 27.99 87.4 0 0 886.1245 508.8003
  A 29.44 27.99 87.4 0 0 859.4988 539.4797
  A 29.44 27.99 87.4 0 0 888.7955 567.6197"
/>
<path stroke="#8c8c92" vector-effect="non-scaling-stroke" d="
  M 1388.2708 567.6397
  A 29.44 27.98 87.0 0 0 1414.6717 536.7756
  A 29.44 27.98 87.0 0 0 1385.1892 508.8403
  A 29.44 27.98 87.0 0 0 1358.7883 539.7044
  A 29.44 27.98 87.0 0 0 1388.2708 567.6397"
/>
<path stroke="#8c8c92" vector-effect="non-scaling-stroke" d="
  M 2077.33 547.04
  A 0.49 0.49 0.0 0 0 2077.78 547.73
  L 2108.18 547.78
  A 0.49 0.49 0.0 0 0 2108.63 547.09
  L 2093.49 513.07
  A 0.49 0.49 0.0 0 0 2092.59 513.07
  L 2077.33 547.04"
/>
<path stroke="#8c8c92" vector-effect="non-scaling-stroke" d="
  M 681.01 510.46
  L 681.23 540.90
  A 0.40 0.40 0.0 0 0 681.63 541.30
  L 700.43 541.16
  A 17.60 14.89 -0.4 0 0 717.92 526.15
  L 717.91 524.69
  A 17.60 14.89 -0.4 0 0 700.21 509.92
  L 681.41 510.06
  A 0.40 0.40 0.0 0 0 681.01 510.46"
/>
<path stroke="#8c8c92" vector-effect="non-scaling-stroke" d="
  M 768.86 510.55
  L 768.86 538.15
  A 0.59 0.59 0.0 0 0 769.45 538.74
  L 791.88 538.74
  A 17.00 13.90 0.0 0 0 808.88 524.84
  L 808.88 523.86
  A 17.00 13.90 -0.0 0 0 791.88 509.96
  L 769.45 509.96
  A 0.59 0.59 0.0 0 0 768.86 510.55"
/>
<path stroke="#8c8c92" vector-effect="non-scaling-stroke" d="
  M 1990.19 510.60
  L 1990.40 540.76
  A 0.52 0.52 0.0 0 0 1990.92 541.28
  L 2009.92 541.14
  A 17.50 14.97 -0.4 0 0 2027.31 526.05
  L 2027.31 524.79
  A 17.50 14.97 -0.4 0 0 2009.70 509.94
  L 1990.70 510.08
  A 0.52 0.52 0.0 0 0 1990.19 510.60"
/>
<path stroke="#8c8c92" vector-effect="non-scaling-stroke" d="
  M 2171.34 510.68
  L 2171.38 538.08
  A 0.71 0.71 0.0 0 0 2172.10 538.78
  L 2194.26 538.75
  A 17.33 14.22 -0.1 0 0 2211.56 524.49
  L 2211.56 524.11
  A 17.33 14.22 -0.1 0 0 2194.20 509.93
  L 2172.04 509.96
  A 0.71 0.71 0.0 0 0 2171.34 510.68"
/>
</g>
<path fill="#ffffff" d="
  M 0.00 0.00
  L 2973.00 0.00
  L 2973.00 705.00
  L 0.00 705.00
  L 0.00 0.00
  Z
  M 1010.38 100.46
  A 0.86 0.86 0.0 0 0 1009.16 100.78
  L 996.37 124.68
  A 0.86 0.86 0.0 0 0 996.72 125.85
  L 1045.40 151.88
  A 0.86 0.86 0.0 0 0 1046.56 151.53
  L 1057.59 131.17
  A 0.86 0.86 0.0 0 0 1057.29 130.03
  L 1010.38 100.46
  Z
  M 857.85 325.78
  C 830.56 347.15 792.23 344.77 768.03 319.93
  C 735.12 286.15 746.36 231.88 788.65 212.50
  C 809.77 202.82 833.38 205.01 852.97 217.46
  A 0.62 0.62 0.0 0 0 853.82 217.28
  L 873.21 188.43
  A 0.56 0.55 -57.4 0 0 873.04 187.65
  Q 835.95 164.15 793.80 173.03
  C 770.00 178.05 748.22 192.30 733.85 211.39
  C 707.80 246.00 705.85 292.44 729.23 328.78
  C 765.56 385.24 845.40 392.63 891.54 343.66
  A 2.71 2.69 66.9 0 0 892.28 341.80
  L 892.26 262.29
  A 0.72 0.71 0.0 0 0 891.54 261.58
  L 858.78 261.68
  A 0.40 0.40 0.0 0 0 858.38 262.08
  L 858.37 324.71
  Q 858.37 325.37 857.85 325.78
  Z
  M 328.58 207.34
  A 0.55 0.55 0.0 0 1 329.13 206.79
  L 430.03 206.81
  A 0.55 0.55 0.0 0 0 430.58 206.26
  L 430.69 174.57
  A 0.55 0.55 0.0 0 0 430.14 174.02
  L 290.82 173.97
  A 0.55 0.55 0.0 0 0 290.27 174.52
  L 290.26 372.48
  A 0.55 0.55 0.0 0 0 290.81 373.03
  L 438.08 373.03
  A 0.55 0.55 0.0 0 0 438.63 372.48
  L 438.71 340.55
  A 0.55 0.55 0.0 0 0 438.16 340.00
  L 329.09 340.00
  A 0.55 0.55 0.0 0 1 328.54 339.45
  L 328.54 294.30
  A 0.55 0.55 0.0 0 1 329.09 293.75
  L 402.59 293.75
  A 0.55 0.55 0.0 0 0 403.14 293.20
  L 403.16 261.80
  A 0.55 0.55 0.0 0 0 402.61 261.25
  L 329.12 261.25
  A 0.55 0.55 0.0 0 1 328.57 260.70
  L 328.58 207.34
  Z
  M 1710.27 321.51
  A 0.69 0.69 0.0 0 1 1710.96 320.82
  Q 1730.60 320.91 1750.33 320.86
  Q 1764.72 320.83 1775.05 316.69
  C 1798.98 307.09 1815.80 284.29 1817.67 258.18
  C 1820.45 219.50 1805.06 178.71 1760.98 174.56
  Q 1754.90 173.99 1752.75 174.00
  Q 1712.06 174.23 1673.19 174.07
  A 0.43 0.43 0.0 0 0 1672.76 174.50
  L 1672.76 369.30
  A 0.29 0.29 0.0 0 0 1673.05 369.59
  L 1709.71 369.59
  Q 1710.27 369.59 1710.27 369.04
  L 1710.27 321.51
  Z
  M 591.90 374.51
  C 631.48 369.81 656.93 340.49 656.94 300.97
  Q 656.96 238.54 656.95 176.03
  Q 656.95 175.34 656.26 175.34
  L 618.70 175.34
  Q 618.00 175.34 618.00 176.04
  Q 617.91 233.87 618.03 294.77
  C 618.05 305.56 617.20 314.95 611.57 323.87
  C 604.78 334.65 593.34 338.91 580.54 339.47
  C 560.45 340.36 544.12 333.10 538.48 312.87
  Q 537.12 307.97 537.14 298.86
  Q 537.29 239.06 537.22 175.95
  Q 537.22 175.40 536.67 175.40
  L 498.71 175.32
  Q 497.93 175.32 497.93 176.11
  Q 498.06 236.02 497.88 293.58
  Q 497.85 304.93 499.03 313.20
  C 503.84 346.81 527.71 369.72 561.37 374.25
  Q 576.68 376.31 591.90 374.51
  Z
  M 2181.04 290.21
  C 2209.54 280.95 2232.43 252.56 2224.21 221.25
  C 2221.73 211.81 2216.15 201.93 2209.56 194.97
  Q 2193.19 177.69 2168.24 175.94
  Q 2162.06 175.51 2160.48 175.52
  Q 2121.64 175.76 2082.50 175.80
  Q 2082.02 175.80 2082.02 176.29
  L 2082.10 371.31
  Q 2082.10 371.77 2082.56 371.77
  L 2119.47 371.77
  A 0.74 0.73 -90.0 0 0 2120.20 371.03
  L 2120.22 292.76
  A 0.52 0.51 -0.0 0 1 2120.74 292.25
  L 2133.01 292.25
  A 1.41 1.40 -17.8 0 1 2134.15 292.83
  Q 2147.76 311.16 2167.50 336.08
  Q 2176.77 347.79 2185.32 356.63
  Q 2198.06 369.81 2216.51 371.86
  Q 2232.02 373.58 2247.26 372.92
  Q 2247.88 372.90 2247.88 372.27
  L 2247.88 339.72
  A 0.86 0.86 0.0 0 0 2246.96 338.86
  Q 2239.24 339.43 2232.33 338.60
  C 2221.05 337.25 2212.23 330.63 2205.20 322.01
  Q 2192.87 306.88 2180.86 290.77
  A 0.36 0.36 0.0 0 1 2181.04 290.21
  Z
  M 993.74 339.15
  A 0.50 0.50 0.0 0 1 993.24 338.65
  L 993.25 294.25
  A 0.50 0.50 0.0 0 1 993.75 293.75
  L 1065.75 293.75
  A 0.50 0.50 0.0 0 0 1066.25 293.25
  L 1066.25 261.98
  A 0.50 0.50 0.0 0 0 1065.75 261.48
  L 993.75 261.48
  A 0.50 0.50 0.0 0 1 993.25 260.98
  L 993.24 208.54
  A 0.50 0.50 0.0 0 1 993.74 208.04
  L 1093.05 208.03
  A 0.50 0.50 0.0 0 0 1093.55 207.53
  L 1093.52 176.22
  A 0.50 0.50 0.0 0 0 1093.02 175.72
  L 955.91 175.76
  A 0.50 0.50 0.0 0 0 955.41 176.26
  L 955.43 371.30
  A 0.50 0.50 0.0 0 0 955.93 371.80
  L 1100.74 371.80
  A 0.50 0.50 0.0 0 0 1101.24 371.30
  L 1101.25 339.65
  A 0.50 0.50 0.0 0 0 1100.75 339.15
  L 993.74 339.15
  Z
  M 1201.90 240.76
  Q 1202.08 240.84 1202.19 240.99
  Q 1247.23 305.46 1292.73 370.47
  Q 1293.64 371.77 1295.23 371.77
  L 1327.50 371.77
  A 0.77 0.76 -90.0 0 0 1328.26 371.00
  L 1328.26 176.45
  A 0.81 0.80 -0.0 0 0 1327.45 175.65
  L 1290.24 175.75
  A 0.51 0.51 0.0 0 0 1289.73 176.26
  L 1289.67 307.77
  Q 1289.67 308.97 1288.98 307.98
  L 1196.87 176.31
  A 1.44 1.43 72.2 0 0 1195.70 175.70
  L 1163.49 175.70
  Q 1162.94 175.70 1162.94 176.26
  L 1162.93 371.48
  Q 1162.93 371.77 1163.23 371.77
  L 1200.98 371.77
  A 0.50 0.49 90.0 0 0 1201.47 371.27
  L 1201.48 241.03
  Q 1201.48 240.56 1201.90 240.76
  Z
  M 1433.33 339.09
  A 0.58 0.58 0.0 0 1 1432.75 338.51
  L 1432.75 294.33
  A 0.58 0.58 0.0 0 1 1433.33 293.75
  L 1505.59 293.75
  A 0.58 0.58 0.0 0 0 1506.17 293.17
  L 1506.14 262.03
  A 0.58 0.58 0.0 0 0 1505.56 261.45
  L 1433.33 261.49
  A 0.58 0.58 0.0 0 1 1432.75 260.91
  L 1432.74 208.64
  A 0.58 0.58 0.0 0 1 1433.32 208.06
  L 1532.71 208.01
  A 0.58 0.58 0.0 0 0 1533.29 207.43
  L 1533.26 176.30
  A 0.58 0.58 0.0 0 0 1532.68 175.72
  L 1395.30 175.75
  A 0.58 0.58 0.0 0 0 1394.72 176.33
  L 1394.71 371.22
  A 0.58 0.58 0.0 0 0 1395.29 371.80
  L 1540.59 371.80
  A 0.58 0.58 0.0 0 0 1541.17 371.22
  L 1541.13 339.68
  A 0.58 0.58 0.0 0 0 1540.55 339.10
  L 1433.33 339.09
  Z
  M 1913.70 294.22
  A 0.47 0.47 0.0 0 1 1914.17 293.75
  L 1986.09 293.75
  A 0.47 0.47 0.0 0 0 1986.56 293.28
  L 1986.58 261.90
  A 0.47 0.47 0.0 0 0 1986.11 261.43
  L 1914.19 261.43
  A 0.47 0.47 0.0 0 1 1913.72 260.96
  L 1913.71 208.50
  A 0.47 0.47 0.0 0 1 1914.18 208.03
  L 2013.40 208.07
  A 0.47 0.47 0.0 0 0 2013.87 207.60
  L 2013.93 176.17
  A 0.47 0.47 0.0 0 0 2013.46 175.70
  L 1876.20 175.71
  A 0.47 0.47 0.0 0 0 1875.73 176.18
  L 1875.74 371.32
  A 0.47 0.47 0.0 0 0 1876.21 371.79
  L 2021.09 371.84
  A 0.47 0.47 0.0 0 0 2021.56 371.37
  L 2021.56 339.62
  A 0.47 0.47 0.0 0 0 2021.09 339.15
  L 1914.19 339.15
  A 0.47 0.47 0.0 0 1 1913.72 338.68
  L 1913.70 294.22
  Z
  M 2348.48 234.46
  Q 2348.48 233.61 2348.95 234.31
  L 2401.72 312.77
  Q 2402.18 313.47 2403.02 313.45
  L 2411.42 313.34
  A 1.43 1.40 16.4 0 0 2412.57 312.73
  L 2465.13 234.59
  Q 2465.78 233.63 2465.78 234.78
  L 2465.77 371.29
  A 0.53 0.52 90.0 0 0 2466.29 371.82
  L 2503.98 371.79
  A 0.77 0.76 90.0 0 0 2504.74 371.02
  L 2504.75 176.71
  A 1.04 1.04 0.0 0 0 2503.71 175.67
  L 2466.26 175.71
  A 1.28 1.28 0.0 0 0 2465.20 176.27
  Q 2437.74 217.03 2407.60 261.80
  Q 2407.47 261.99 2407.26 262.07
  Q 2406.94 262.18 2406.75 261.90
  L 2349.11 176.34
  Q 2348.70 175.73 2347.96 175.73
  L 2310.02 175.73
  A 0.51 0.50 0.0 0 0 2309.51 176.23
  L 2309.52 371.03
  A 0.76 0.75 -90.0 0 0 2310.27 371.79
  L 2347.44 371.84
  Q 2348.48 371.85 2348.48 370.81
  L 2348.48 234.46
  Z
  M 2593.35 371.80
  A 0.55 0.55 0.0 0 0 2593.87 371.45
  L 2609.14 331.39
  A 0.55 0.55 0.0 0 1 2609.66 331.04
  L 2682.28 331.03
  A 0.55 0.55 0.0 0 1 2682.80 331.38
  L 2698.13 371.45
  A 0.55 0.55 0.0 0 0 2698.65 371.80
  L 2736.94 371.80
  A 0.55 0.55 0.0 0 0 2737.46 371.06
  L 2665.85 176.09
  A 0.55 0.55 0.0 0 0 2665.34 175.73
  L 2626.67 175.70
  A 0.55 0.55 0.0 0 0 2626.16 176.06
  L 2554.49 371.06
  A 0.55 0.55 0.0 0 0 2555.01 371.80
  L 2593.35 371.80
  Z
  M 1890.29 492.39
  A 0.46 0.46 0.0 0 0 1889.83 491.93
  L 1883.71 491.93
  A 0.46 0.46 0.0 0 0 1883.25 492.39
  L 1883.25 586.81
  A 0.46 0.46 0.0 0 0 1883.71 587.27
  L 1889.83 587.27
  A 0.46 0.46 0.0 0 0 1890.29 586.81
  L 1890.29 492.39
  Z
  M 882.6698 575.5451
  A 37.62 37.05 97.3 0 0 924.1997 542.9377
  A 37.62 37.05 97.3 0 0 892.2302 500.9149
  A 37.62 37.05 97.3 0 0 850.7003 533.5223
  A 37.62 37.05 97.3 0 0 882.6698 575.5451
  Z
  M 1381.9047 575.5367
  A 37.62 37.04 97.4 0 0 1423.4815 543.0006
  A 37.62 37.04 97.4 0 0 1391.5953 500.9233
  A 37.62 37.04 97.4 0 0 1350.0185 533.4594
  A 37.62 37.04 97.4 0 0 1381.9047 575.5367
  Z
  M 1149.36 510.32
  C 1158.32 506.91 1168.98 510.17 1176.73 516.38
  Q 1177.41 516.93 1177.94 516.23
  L 1182.25 510.55
  A 0.63 0.63 0.0 0 0 1182.14 509.67
  Q 1168.78 499.14 1151.67 501.57
  C 1141.50 503.01 1133.72 509.71 1133.06 520.08
  C 1132.39 530.62 1138.53 536.75 1148.22 539.55
  Q 1156.23 541.87 1164.23 543.98
  C 1171.08 545.78 1177.26 549.74 1175.38 557.89
  C 1173.23 567.26 1161.42 568.58 1153.43 566.89
  Q 1143.28 564.74 1135.66 557.28
  Q 1135.48 557.11 1135.33 557.29
  L 1130.12 563.45
  Q 1129.95 563.65 1130.15 563.83
  Q 1144.46 576.66 1163.02 575.26
  C 1176.42 574.25 1186.64 564.95 1184.18 550.74
  C 1181.77 536.75 1163.92 535.04 1153.02 531.87
  C 1146.60 530.00 1140.70 526.36 1142.09 518.61
  Q 1143.15 512.69 1149.36 510.32
  Z
  M 1232.75 510.54
  C 1241.75 506.80 1253.05 509.94 1260.44 516.29
  Q 1261.29 517.02 1261.97 516.14
  L 1266.08 510.81
  A 0.93 0.93 0.0 0 0 1265.91 509.51
  Q 1251.81 498.57 1233.92 501.88
  C 1223.15 503.87 1215.62 512.89 1217.16 524.17
  C 1219.66 542.47 1242.78 539.86 1254.78 546.66
  Q 1259.90 549.57 1259.61 555.96
  C 1259.32 562.35 1253.81 566.43 1247.76 567.19
  C 1236.98 568.55 1227.44 564.80 1219.71 557.32
  Q 1219.51 557.13 1219.33 557.34
  L 1214.02 563.42
  Q 1213.86 563.61 1214.04 563.78
  Q 1228.87 577.30 1248.63 575.08
  C 1257.69 574.06 1266.00 568.54 1268.03 559.20
  C 1271.28 544.26 1259.97 537.32 1247.54 534.56
  C 1239.84 532.85 1224.07 530.71 1225.89 519.00
  Q 1226.82 513.01 1232.75 510.54
  Z
  M 2346.46 555.35
  C 2346.31 562.87 2339.37 567.11 2332.49 567.48
  C 2322.34 568.02 2313.73 564.18 2306.39 557.33
  Q 2306.22 557.17 2306.07 557.34
  L 2300.81 563.33
  Q 2300.59 563.57 2300.83 563.79
  Q 2315.40 577.05 2334.69 575.13
  C 2344.76 574.12 2353.54 568.20 2355.01 557.62
  C 2357.66 538.55 2338.54 535.46 2325.08 532.38
  C 2319.27 531.06 2312.62 527.57 2312.38 520.83
  Q 2312.18 515.57 2316.68 512.29
  C 2325.76 505.66 2339.39 509.67 2347.40 516.41
  A 0.79 0.78 38.8 0 0 2348.53 516.29
  L 2352.88 510.68
  Q 2353.34 510.08 2352.75 509.61
  Q 2340.36 499.80 2324.01 501.34
  C 2313.70 502.31 2304.76 508.61 2303.79 519.37
  C 2302.10 538.19 2321.37 540.49 2334.68 543.74
  C 2340.32 545.12 2346.60 548.81 2346.46 555.35
  Z
  M 2112.09 555.55
  A 0.37 0.37 0.0 0 1 2112.43 555.77
  L 2120.50 574.06
  A 0.37 0.37 0.0 0 0 2120.84 574.28
  L 2129.53 574.24
  A 0.37 0.37 0.0 0 0 2129.86 573.72
  L 2097.29 501.79
  A 0.37 0.37 0.0 0 0 2096.95 501.57
  L 2089.28 501.68
  A 0.37 0.37 0.0 0 0 2088.94 501.89
  L 2056.42 573.71
  A 0.37 0.37 0.0 0 0 2056.76 574.24
  L 2065.02 574.31
  A 0.37 0.37 0.0 0 0 2065.36 574.09
  L 2073.59 555.77
  A 0.37 0.37 0.0 0 1 2073.93 555.55
  L 2112.09 555.55
  Z
  M 968.94 543.78
  A 0.49 0.49 0.0 0 1 969.43 543.29
  L 1007.20 543.35
  A 0.49 0.49 0.0 0 0 1007.69 542.86
  L 1007.71 535.71
  A 0.49 0.49 0.0 0 0 1007.22 535.22
  L 969.43 535.23
  A 0.49 0.49 0.0 0 1 968.94 534.74
  L 968.94 510.49
  A 0.49 0.49 0.0 0 1 969.43 510.00
  L 1012.05 510.00
  A 0.49 0.49 0.0 0 0 1012.54 509.51
  L 1012.53 502.42
  A 0.49 0.49 0.0 0 0 1012.04 501.93
  L 960.80 501.95
  A 0.49 0.49 0.0 0 0 960.31 502.44
  L 960.34 573.81
  A 0.49 0.49 0.0 0 0 960.83 574.30
  L 968.45 574.29
  A 0.49 0.49 0.0 0 0 968.94 573.80
  L 968.94 543.78
  Z
  M 681.90 549.33
  C 696.26 549.27 716.47 551.34 724.16 536.00
  Q 728.37 527.61 725.87 518.43
  C 722.64 506.56 710.85 502.09 699.31 501.98
  Q 686.17 501.85 673.36 501.94
  Q 672.60 501.94 672.60 502.70
  L 672.62 573.48
  Q 672.62 574.34 673.48 574.33
  L 680.49 574.26
  Q 681.23 574.25 681.23 573.51
  L 681.18 550.04
  Q 681.18 549.33 681.90 549.33
  Z
  M 799.05 544.90
  Q 800.38 544.60 801.71 544.26
  C 813.89 541.09 819.76 529.85 816.82 517.93
  C 814.19 507.22 803.33 502.12 792.83 502.02
  Q 776.26 501.87 760.78 501.99
  A 0.51 0.51 0.0 0 0 760.27 502.50
  L 760.29 574.05
  Q 760.30 574.30 760.55 574.30
  L 768.67 574.28
  Q 768.89 574.28 768.89 574.06
  L 768.89 546.93
  A 0.68 0.67 -0.0 0 1 769.57 546.26
  L 787.93 546.25
  A 1.63 1.62 71.4 0 1 789.23 546.90
  L 809.46 574.06
  A 0.50 0.49 -17.5 0 0 809.83 574.25
  Q 815.04 574.38 820.36 574.21
  A 0.05 0.04 -16.8 0 0 820.40 574.14
  Q 809.91 560.20 798.86 545.43
  A 0.34 0.33 65.3 0 1 799.05 544.90
  Z
  M 1055.74 510.40
  A 0.40 0.40 0.0 0 1 1056.14 510.00
  L 1099.12 510.00
  A 0.40 0.40 0.0 0 0 1099.52 509.60
  L 1099.49 502.34
  A 0.40 0.40 0.0 0 0 1099.09 501.94
  L 1047.20 501.94
  A 0.40 0.40 0.0 0 0 1046.80 502.34
  L 1046.82 573.91
  A 0.40 0.40 0.0 0 0 1047.22 574.31
  L 1099.36 574.31
  A 0.40 0.40 0.0 0 0 1099.76 573.91
  L 1099.79 566.87
  A 0.40 0.40 0.0 0 0 1099.39 566.47
  L 1056.16 566.47
  A 0.40 0.40 0.0 0 1 1055.76 566.07
  L 1055.75 542.52
  A 0.40 0.40 0.0 0 1 1056.15 542.12
  L 1094.36 542.12
  A 0.40 0.40 0.0 0 0 1094.76 541.72
  L 1094.78 534.37
  A 0.40 0.40 0.0 0 0 1094.38 533.97
  L 1056.15 533.97
  A 0.40 0.40 0.0 0 1 1055.75 533.57
  L 1055.74 510.40
  Z
  M 1313.26 502.64
  A 0.67 0.67 0.0 0 0 1312.59 501.97
  L 1304.99 501.97
  A 0.67 0.67 0.0 0 0 1304.32 502.64
  L 1304.32 573.60
  A 0.67 0.67 0.0 0 0 1304.99 574.27
  L 1312.59 574.27
  A 0.67 0.67 0.0 0 0 1313.26 573.60
  L 1313.26 502.64
  Z
  M 1467.75 516.97
  Q 1467.75 515.96 1468.38 516.76
  Q 1491.26 545.75 1512.60 572.91
  C 1514.20 574.94 1517.90 574.51 1520.16 574.19
  Q 1520.79 574.10 1520.79 573.47
  L 1520.79 502.24
  A 0.30 0.29 89.1 0 0 1520.49 501.94
  L 1512.47 502.03
  A 0.25 0.25 0.0 0 0 1512.22 502.28
  L 1512.24 557.73
  Q 1512.24 558.78 1511.59 557.96
  L 1468.14 502.65
  Q 1467.62 501.99 1466.77 501.98
  L 1460.23 501.94
  A 0.84 0.83 0.3 0 0 1459.38 502.77
  L 1459.43 573.99
  Q 1459.43 574.31 1459.74 574.30
  L 1467.48 574.29
  A 0.27 0.27 0.0 0 0 1467.75 574.02
  L 1467.75 516.97
  Z
  M 1568.35 516.76
  Q 1568.50 516.62 1568.69 516.72
  Q 1568.78 516.77 1568.85 516.86
  Q 1593.81 548.72 1613.12 573.08
  C 1614.67 575.04 1618.37 574.29 1620.53 574.22
  A 0.70 0.69 -1.3 0 0 1621.20 573.53
  L 1621.20 502.15
  Q 1621.20 501.99 1621.05 501.99
  L 1613.04 501.92
  Q 1612.76 501.92 1612.76 502.21
  L 1612.76 557.97
  Q 1612.76 559.02 1612.11 558.20
  L 1568.47 502.68
  A 1.91 1.91 0.0 0 0 1566.95 501.95
  L 1560.25 501.98
  A 0.52 0.52 0.0 0 0 1559.73 502.50
  L 1559.74 573.96
  Q 1559.74 574.26 1560.03 574.26
  L 1567.99 574.25
  Q 1568.29 574.25 1568.29 573.95
  L 1568.33 516.81
  A 0.07 0.07 0.0 0 1 1568.35 516.76
  Z
  M 1668.80 542.64
  A 0.52 0.52 0.0 0 1 1669.32 542.12
  L 1707.25 542.12
  A 0.52 0.52 0.0 0 0 1707.77 541.60
  L 1707.77 534.49
  A 0.52 0.52 0.0 0 0 1707.25 533.97
  L 1669.38 533.97
  A 0.52 0.52 0.0 0 1 1668.86 533.45
  L 1668.80 510.52
  A 0.52 0.52 0.0 0 1 1669.32 510.00
  L 1712.05 510.00
  A 0.52 0.52 0.0 0 0 1712.57 509.48
  L 1712.60 502.47
  A 0.52 0.52 0.0 0 0 1712.08 501.95
  L 1660.78 501.93
  A 0.52 0.52 0.0 0 0 1660.26 502.45
  L 1660.26 573.82
  A 0.52 0.52 0.0 0 0 1660.78 574.34
  L 1712.79 574.22
  A 0.52 0.52 0.0 0 0 1713.31 573.71
  L 1713.38 567.03
  A 0.52 0.52 0.0 0 0 1712.86 566.50
  L 1669.37 566.47
  A 0.52 0.52 0.0 0 1 1668.85 565.95
  L 1668.80 542.64
  Z
  M 1797.42 567.03
  A 0.52 0.52 0.0 0 0 1796.90 566.51
  L 1757.65 566.49
  A 0.52 0.52 0.0 0 1 1757.13 565.97
  L 1757.12 502.48
  A 0.52 0.52 0.0 0 0 1756.60 501.96
  L 1748.74 501.93
  A 0.52 0.52 0.0 0 0 1748.22 502.45
  L 1748.22 573.77
  A 0.52 0.52 0.0 0 0 1748.74 574.29
  L 1796.89 574.25
  A 0.52 0.52 0.0 0 0 1797.41 573.73
  L 1797.42 567.03
  Z
  M 1991.14 549.20
  C 1999.36 549.53 2008.23 549.59 2016.27 548.10
  C 2026.11 546.28 2034.82 538.96 2035.93 528.88
  C 2037.83 511.68 2025.89 502.24 2009.92 502.04
  Q 1996.39 501.86 1982.23 501.96
  A 0.49 0.49 0.0 0 0 1981.75 502.45
  L 1981.76 573.54
  Q 1981.76 574.31 1982.53 574.31
  L 1989.52 574.27
  Q 1990.31 574.26 1990.31 573.48
  L 1990.32 549.99
  A 0.79 0.78 -88.6 0 1 1991.14 549.20
  Z
  M 2201.62 544.81
  C 2211.23 543.52 2218.48 536.42 2219.89 527.67
  C 2221.60 517.04 2216.35 507.27 2205.83 503.94
  Q 2199.42 501.91 2192.39 501.90
  Q 2178.12 501.88 2163.42 501.90
  A 0.56 0.56 0.0 0 0 2162.86 502.46
  L 2162.85 573.93
  Q 2162.85 574.29 2163.21 574.29
  L 2170.97 574.26
  A 0.49 0.48 -0.0 0 0 2171.46 573.78
  L 2171.45 547.03
  A 0.78 0.77 90.0 0 1 2172.22 546.25
  L 2190.56 546.25
  A 1.47 1.45 71.5 0 1 2191.73 546.84
  L 2212.11 574.11
  A 0.48 0.46 -15.9 0 0 2212.47 574.30
  Q 2217.68 574.39 2222.91 574.22
  A 0.05 0.04 69.3 0 0 2222.94 574.14
  Q 2213.07 560.84 2201.38 545.41
  A 0.38 0.37 67.1 0 1 2201.62 544.81
  Z
  M 2265.97 502.66
  A 0.69 0.69 0.0 0 0 2265.28 501.97
  L 2257.70 501.97
  A 0.69 0.69 0.0 0 0 2257.01 502.66
  L 2257.01 573.58
  A 0.69 0.69 0.0 0 0 2257.70 574.27
  L 2265.28 574.27
  A 0.69 0.69 0.0 0 0 2265.97 573.58
  L 2265.97 502.66
  Z"
/>
<path fill="#181824" d="
  M 1010.38 100.46
  L 1057.29 130.03
  A 0.86 0.86 0.0 0 1 1057.59 131.17
  L 1046.56 151.53
  A 0.86 0.86 0.0 0 1 1045.40 151.88
  L 996.72 125.85
  A 0.86 0.86 0.0 0 1 996.37 124.68
  L 1009.16 100.78
  A 0.86 0.86 0.0 0 1 1010.38 100.46
  Z"
/>
<path fill="#181824" d="
  M 857.85 325.78
  Q 858.37 325.37 858.37 324.71
  L 858.38 262.08
  A 0.40 0.40 0.0 0 1 858.78 261.68
  L 891.54 261.58
  A 0.72 0.71 -0.0 0 1 892.26 262.29
  L 892.28 341.80
  A 2.71 2.69 66.9 0 1 891.54 343.66
  C 845.40 392.63 765.56 385.24 729.23 328.78
  C 705.85 292.44 707.80 246.00 733.85 211.39
  C 748.22 192.30 770.00 178.05 793.80 173.03
  Q 835.95 164.15 873.04 187.65
  A 0.56 0.55 -57.4 0 1 873.21 188.43
  L 853.82 217.28
  A 0.62 0.62 0.0 0 1 852.97 217.46
  C 833.38 205.01 809.77 202.82 788.65 212.50
  C 746.36 231.88 735.12 286.15 768.03 319.93
  C 792.23 344.77 830.56 347.15 857.85 325.78
  Z"
/>
<path fill="#181824" d="
  M 328.58 207.34
  L 328.57 260.70
  A 0.55 0.55 0.0 0 0 329.12 261.25
  L 402.61 261.25
  A 0.55 0.55 0.0 0 1 403.16 261.80
  L 403.14 293.20
  A 0.55 0.55 0.0 0 1 402.59 293.75
  L 329.09 293.75
  A 0.55 0.55 0.0 0 0 328.54 294.30
  L 328.54 339.45
  A 0.55 0.55 0.0 0 0 329.09 340.00
  L 438.16 340.00
  A 0.55 0.55 0.0 0 1 438.71 340.55
  L 438.63 372.48
  A 0.55 0.55 0.0 0 1 438.08 373.03
  L 290.81 373.03
  A 0.55 0.55 0.0 0 1 290.26 372.48
  L 290.27 174.52
  A 0.55 0.55 0.0 0 1 290.82 173.97
  L 430.14 174.02
  A 0.55 0.55 0.0 0 1 430.69 174.57
  L 430.58 206.26
  A 0.55 0.55 0.0 0 1 430.03 206.81
  L 329.13 206.79
  A 0.55 0.55 0.0 0 0 328.58 207.34
  Z"
/>
<path fill="#181824" d="
  M 1710.27 321.51
  L 1710.27 369.04
  Q 1710.27 369.59 1709.71 369.59
  L 1673.05 369.59
  A 0.29 0.29 0.0 0 1 1672.76 369.30
  L 1672.76 174.50
  A 0.43 0.43 0.0 0 1 1673.19 174.07
  Q 1712.06 174.23 1752.75 174.00
  Q 1754.90 173.99 1760.98 174.56
  C 1805.06 178.71 1820.45 219.50 1817.67 258.18
  C 1815.80 284.29 1798.98 307.09 1775.05 316.69
  Q 1764.72 320.83 1750.33 320.86
  Q 1730.60 320.91 1710.96 320.82
  A 0.69 0.69 0.0 0 0 1710.27 321.51
  Z
  M 1759.35 208.57
  Q 1754.05 206.31 1749.18 206.30
  Q 1730.02 206.25 1710.65 206.11
  A 0.38 0.38 0.0 0 0 1710.27 206.49
  L 1710.27 288.06
  A 0.77 0.77 0.0 0 0 1711.06 288.83
  Q 1724.79 288.55 1736.50 288.86
  Q 1749.17 289.20 1754.99 287.54
  C 1771.35 282.88 1780.38 267.29 1780.44 250.64
  C 1780.49 233.86 1775.70 215.55 1759.35 208.57
  Z"
/>
<path fill="#181824" d="
  M 656.94 300.97
  C 656.93 340.49 631.48 369.81 591.90 374.51
  Q 576.68 376.31 561.37 374.25
  C 527.71 369.72 503.84 346.81 499.03 313.20
  Q 497.85 304.93 497.88 293.58
  Q 498.06 236.02 497.93 176.11
  Q 497.93 175.32 498.71 175.32
  L 536.67 175.40
  Q 537.22 175.40 537.22 175.95
  Q 537.29 239.06 537.14 298.86
  Q 537.12 307.97 538.48 312.87
  C 544.12 333.10 560.45 340.36 580.54 339.47
  C 593.34 338.91 604.78 334.65 611.57 323.87
  C 617.20 314.95 618.05 305.56 618.03 294.77
  Q 617.91 233.87 618.00 176.04
  Q 618.00 175.34 618.70 175.34
  L 656.26 175.34
  Q 656.95 175.34 656.95 176.03
  Q 656.96 238.54 656.94 300.97
  Z"
/>
<path fill="#181824" d="
  M 2181.04 290.21
  A 0.36 0.36 0.0 0 0 2180.86 290.77
  Q 2192.87 306.88 2205.20 322.01
  C 2212.23 330.63 2221.05 337.25 2232.33 338.60
  Q 2239.24 339.43 2246.96 338.86
  A 0.86 0.86 0.0 0 1 2247.88 339.72
  L 2247.88 372.27
  Q 2247.88 372.90 2247.26 372.92
  Q 2232.02 373.58 2216.51 371.86
  Q 2198.06 369.81 2185.32 356.63
  Q 2176.77 347.79 2167.50 336.08
  Q 2147.76 311.16 2134.15 292.83
  A 1.41 1.40 -17.8 0 0 2133.01 292.25
  L 2120.74 292.25
  A 0.52 0.51 -0.0 0 0 2120.22 292.76
  L 2120.20 371.03
  A 0.74 0.73 -90.0 0 1 2119.47 371.77
  L 2082.56 371.77
  Q 2082.10 371.77 2082.10 371.31
  L 2082.02 176.29
  Q 2082.02 175.80 2082.50 175.80
  Q 2121.64 175.76 2160.48 175.52
  Q 2162.06 175.51 2168.24 175.94
  Q 2193.19 177.69 2209.56 194.97
  C 2216.15 201.93 2221.73 211.81 2224.21 221.25
  C 2232.43 252.56 2209.54 280.95 2181.04 290.21
  Z
  M 2157.25 261.74
  C 2177.60 261.68 2190.45 249.30 2187.68 228.51
  Q 2186.01 215.89 2175.84 211.08
  Q 2170.12 208.38 2164.35 208.26
  Q 2141.96 207.79 2120.69 208.12
  A 0.63 0.63 0.0 0 0 2120.06 208.75
  L 2120.09 261.02
  A 0.70 0.70 0.0 0 0 2120.78 261.72
  Q 2138.81 261.79 2157.25 261.74
  Z"
/>
<path fill="#181824" d="
  M 993.74 339.15
  L 1100.75 339.15
  A 0.50 0.50 0.0 0 1 1101.25 339.65
  L 1101.24 371.30
  A 0.50 0.50 0.0 0 1 1100.74 371.80
  L 955.93 371.80
  A 0.50 0.50 0.0 0 1 955.43 371.30
  L 955.41 176.26
  A 0.50 0.50 0.0 0 1 955.91 175.76
  L 1093.02 175.72
  A 0.50 0.50 0.0 0 1 1093.52 176.22
  L 1093.55 207.53
  A 0.50 0.50 0.0 0 1 1093.05 208.03
  L 993.74 208.04
  A 0.50 0.50 0.0 0 0 993.24 208.54
  L 993.25 260.98
  A 0.50 0.50 0.0 0 0 993.75 261.48
  L 1065.75 261.48
  A 0.50 0.50 0.0 0 1 1066.25 261.98
  L 1066.25 293.25
  A 0.50 0.50 0.0 0 1 1065.75 293.75
  L 993.75 293.75
  A 0.50 0.50 0.0 0 0 993.25 294.25
  L 993.24 338.65
  A 0.50 0.50 0.0 0 0 993.74 339.15
  Z"
/>
<path fill="#181824" d="
  M 1201.90 240.76
  Q 1201.48 240.56 1201.48 241.03
  L 1201.47 371.27
  A 0.50 0.49 90.0 0 1 1200.98 371.77
  L 1163.23 371.77
  Q 1162.93 371.77 1162.93 371.48
  L 1162.94 176.26
  Q 1162.94 175.70 1163.49 175.70
  L 1195.70 175.70
  A 1.44 1.43 72.2 0 1 1196.87 176.31
  L 1288.98 307.98
  Q 1289.67 308.97 1289.67 307.77
  L 1289.73 176.26
  A 0.51 0.51 0.0 0 1 1290.24 175.75
  L 1327.45 175.65
  A 0.81 0.80 -0.0 0 1 1328.26 176.45
  L 1328.26 371.00
  A 0.77 0.76 -90.0 0 1 1327.50 371.77
  L 1295.23 371.77
  Q 1293.64 371.77 1292.73 370.47
  Q 1247.23 305.46 1202.19 240.99
  Q 1202.08 240.84 1201.90 240.76
  Z"
/>
<path fill="#181824" d="
  M 1433.33 339.09
  L 1540.55 339.10
  A 0.58 0.58 0.0 0 1 1541.13 339.68
  L 1541.17 371.22
  A 0.58 0.58 0.0 0 1 1540.59 371.80
  L 1395.29 371.80
  A 0.58 0.58 0.0 0 1 1394.71 371.22
  L 1394.72 176.33
  A 0.58 0.58 0.0 0 1 1395.30 175.75
  L 1532.68 175.72
  A 0.58 0.58 0.0 0 1 1533.26 176.30
  L 1533.29 207.43
  A 0.58 0.58 0.0 0 1 1532.71 208.01
  L 1433.32 208.06
  A 0.58 0.58 0.0 0 0 1432.74 208.64
  L 1432.75 260.91
  A 0.58 0.58 0.0 0 0 1433.33 261.49
  L 1505.56 261.45
  A 0.58 0.58 0.0 0 1 1506.14 262.03
  L 1506.17 293.17
  A 0.58 0.58 0.0 0 1 1505.59 293.75
  L 1433.33 293.75
  A 0.58 0.58 0.0 0 0 1432.75 294.33
  L 1432.75 338.51
  A 0.58 0.58 0.0 0 0 1433.33 339.09
  Z"
/>
<path fill="#181824" d="
  M 1913.70 294.22
  L 1913.72 338.68
  A 0.47 0.47 0.0 0 0 1914.19 339.15
  L 2021.09 339.15
  A 0.47 0.47 0.0 0 1 2021.56 339.62
  L 2021.56 371.37
  A 0.47 0.47 0.0 0 1 2021.09 371.84
  L 1876.21 371.79
  A 0.47 0.47 0.0 0 1 1875.74 371.32
  L 1875.73 176.18
  A 0.47 0.47 0.0 0 1 1876.20 175.71
  L 2013.46 175.70
  A 0.47 0.47 0.0 0 1 2013.93 176.17
  L 2013.87 207.60
  A 0.47 0.47 0.0 0 1 2013.40 208.07
  L 1914.18 208.03
  A 0.47 0.47 0.0 0 0 1913.71 208.50
  L 1913.72 260.96
  A 0.47 0.47 0.0 0 0 1914.19 261.43
  L 1986.11 261.43
  A 0.47 0.47 0.0 0 1 1986.58 261.90
  L 1986.56 293.28
  A 0.47 0.47 0.0 0 1 1986.09 293.75
  L 1914.17 293.75
  A 0.47 0.47 0.0 0 0 1913.70 294.22
  Z"
/>
<path fill="#181824" d="
  M 2348.48 234.46
  L 2348.48 370.81
  Q 2348.48 371.85 2347.44 371.84
  L 2310.27 371.79
  A 0.76 0.75 -90.0 0 1 2309.52 371.03
  L 2309.51 176.23
  A 0.51 0.50 0.0 0 1 2310.02 175.73
  L 2347.96 175.73
  Q 2348.70 175.73 2349.11 176.34
  L 2406.75 261.90
  Q 2406.94 262.18 2407.26 262.07
  Q 2407.47 261.99 2407.60 261.80
  Q 2437.74 217.03 2465.20 176.27
  A 1.28 1.28 0.0 0 1 2466.26 175.71
  L 2503.71 175.67
  A 1.04 1.04 0.0 0 1 2504.75 176.71
  L 2504.74 371.02
  A 0.77 0.76 90.0 0 1 2503.98 371.79
  L 2466.29 371.82
  A 0.53 0.52 -90.0 0 1 2465.77 371.29
  L 2465.78 234.78
  Q 2465.78 233.63 2465.13 234.59
  L 2412.57 312.73
  A 1.43 1.40 16.4 0 1 2411.42 313.34
  L 2403.02 313.45
  Q 2402.18 313.47 2401.72 312.77
  L 2348.95 234.31
  Q 2348.48 233.61 2348.48 234.46
  Z"
/>
<path fill="#181824" d="
  M 2593.35 371.80
  L 2555.01 371.80
  A 0.55 0.55 0.0 0 1 2554.49 371.06
  L 2626.16 176.06
  A 0.55 0.55 0.0 0 1 2626.67 175.70
  L 2665.34 175.73
  A 0.55 0.55 0.0 0 1 2665.85 176.09
  L 2737.46 371.06
  A 0.55 0.55 0.0 0 1 2736.94 371.80
  L 2698.65 371.80
  A 0.55 0.55 0.0 0 1 2698.13 371.45
  L 2682.80 331.38
  A 0.55 0.55 0.0 0 0 2682.28 331.03
  L 2609.66 331.04
  A 0.55 0.55 0.0 0 0 2609.14 331.39
  L 2593.87 371.45
  A 0.55 0.55 0.0 0 1 2593.35 371.80
  Z
  M 2620.66 301.36
  A 0.51 0.51 0.0 0 0 2621.15 302.02
  L 2670.85 302.02
  A 0.51 0.51 0.0 0 0 2671.34 301.36
  L 2646.48 225.14
  A 0.51 0.51 0.0 0 0 2645.52 225.14
  L 2620.66 301.36
  Z"
/>
<path fill="#ffffff" d="
  M 1759.35 208.57
  C 1775.70 215.55 1780.49 233.86 1780.44 250.64
  C 1780.38 267.29 1771.35 282.88 1754.99 287.54
  Q 1749.17 289.20 1736.50 288.86
  Q 1724.79 288.55 1711.06 288.83
  A 0.77 0.77 0.0 0 1 1710.27 288.06
  L 1710.27 206.49
  A 0.38 0.38 0.0 0 1 1710.65 206.11
  Q 1730.02 206.25 1749.18 206.30
  Q 1754.05 206.31 1759.35 208.57
  Z"
/>
<path fill="#ffffff" d="
  M 2187.68 228.51
  C 2190.45 249.30 2177.60 261.68 2157.25 261.74
  Q 2138.81 261.79 2120.78 261.72
  A 0.70 0.70 0.0 0 1 2120.09 261.02
  L 2120.06 208.75
  A 0.63 0.63 0.0 0 1 2120.69 208.12
  Q 2141.96 207.79 2164.35 208.26
  Q 2170.12 208.38 2175.84 211.08
  Q 2186.01 215.89 2187.68 228.51
  Z"
/>
<path fill="#ffffff" d="
  M 2620.66 301.36
  L 2645.52 225.14
  A 0.51 0.51 0.0 0 1 2646.48 225.14
  L 2671.34 301.36
  A 0.51 0.51 0.0 0 1 2670.85 302.02
  L 2621.15 302.02
  A 0.51 0.51 0.0 0 1 2620.66 301.36
  Z"
/>
<rect fill="#181824" x="1883.25" y="491.93" width="7.04" height="95.34" rx="0.46"/>
<path fill="#181824" d="
  M 882.6698 575.5451
  A 37.62 37.05 97.3 0 1 850.7003 533.5223
  A 37.62 37.05 97.3 0 1 892.2302 500.9149
  A 37.62 37.05 97.3 0 1 924.1997 542.9377
  A 37.62 37.05 97.3 0 1 882.6698 575.5451
  Z
  M 888.7955 567.6197
  A 29.44 27.99 87.4 0 0 915.4212 536.9403
  A 29.44 27.99 87.4 0 0 886.1245 508.8003
  A 29.44 27.99 87.4 0 0 859.4988 539.4797
  A 29.44 27.99 87.4 0 0 888.7955 567.6197
  Z"
/>
<path fill="#181824" d="
  M 1381.9047 575.5367
  A 37.62 37.04 97.4 0 1 1350.0185 533.4594
  A 37.62 37.04 97.4 0 1 1391.5953 500.9233
  A 37.62 37.04 97.4 0 1 1423.4815 543.0006
  A 37.62 37.04 97.4 0 1 1381.9047 575.5367
  Z
  M 1388.2708 567.6397
  A 29.44 27.98 87.0 0 0 1414.6717 536.7756
  A 29.44 27.98 87.0 0 0 1385.1892 508.8403
  A 29.44 27.98 87.0 0 0 1358.7883 539.7044
  A 29.44 27.98 87.0 0 0 1388.2708 567.6397
  Z"
/>
<path fill="#181824" d="
  M 1176.73 516.38
  C 1168.98 510.17 1158.32 506.91 1149.36 510.32
  Q 1143.15 512.69 1142.09 518.61
  C 1140.70 526.36 1146.60 530.00 1153.02 531.87
  C 1163.92 535.04 1181.77 536.75 1184.18 550.74
  C 1186.64 564.95 1176.42 574.25 1163.02 575.26
  Q 1144.46 576.66 1130.15 563.83
  Q 1129.95 563.65 1130.12 563.45
  L 1135.33 557.29
  Q 1135.48 557.11 1135.66 557.28
  Q 1143.28 564.74 1153.43 566.89
  C 1161.42 568.58 1173.23 567.26 1175.38 557.89
  C 1177.26 549.74 1171.08 545.78 1164.23 543.98
  Q 1156.23 541.87 1148.22 539.55
  C 1138.53 536.75 1132.39 530.62 1133.06 520.08
  C 1133.72 509.71 1141.50 503.01 1151.67 501.57
  Q 1168.78 499.14 1182.14 509.67
  A 0.63 0.63 0.0 0 1 1182.25 510.55
  L 1177.94 516.23
  Q 1177.41 516.93 1176.73 516.38
  Z"
/>
<path fill="#181824" d="
  M 1232.75 510.54
  Q 1226.82 513.01 1225.89 519.00
  C 1224.07 530.71 1239.84 532.85 1247.54 534.56
  C 1259.97 537.32 1271.28 544.26 1268.03 559.20
  C 1266.00 568.54 1257.69 574.06 1248.63 575.08
  Q 1228.87 577.30 1214.04 563.78
  Q 1213.86 563.61 1214.02 563.42
  L 1219.33 557.34
  Q 1219.51 557.13 1219.71 557.32
  C 1227.44 564.80 1236.98 568.55 1247.76 567.19
  C 1253.81 566.43 1259.32 562.35 1259.61 555.96
  Q 1259.90 549.57 1254.78 546.66
  C 1242.78 539.86 1219.66 542.47 1217.16 524.17
  C 1215.62 512.89 1223.15 503.87 1233.92 501.88
  Q 1251.81 498.57 1265.91 509.51
  A 0.93 0.93 0.0 0 1 1266.08 510.81
  L 1261.97 516.14
  Q 1261.29 517.02 1260.44 516.29
  C 1253.05 509.94 1241.75 506.80 1232.75 510.54
  Z"
/>
<path fill="#181824" d="
  M 2346.46 555.35
  C 2346.60 548.81 2340.32 545.12 2334.68 543.74
  C 2321.37 540.49 2302.10 538.19 2303.79 519.37
  C 2304.76 508.61 2313.70 502.31 2324.01 501.34
  Q 2340.36 499.80 2352.75 509.61
  Q 2353.34 510.08 2352.88 510.68
  L 2348.53 516.29
  A 0.79 0.78 38.8 0 1 2347.40 516.41
  C 2339.39 509.67 2325.76 505.66 2316.68 512.29
  Q 2312.18 515.57 2312.38 520.83
  C 2312.62 527.57 2319.27 531.06 2325.08 532.38
  C 2338.54 535.46 2357.66 538.55 2355.01 557.62
  C 2353.54 568.20 2344.76 574.12 2334.69 575.13
  Q 2315.40 577.05 2300.83 563.79
  Q 2300.59 563.57 2300.81 563.33
  L 2306.07 557.34
  Q 2306.22 557.17 2306.39 557.33
  C 2313.73 564.18 2322.34 568.02 2332.49 567.48
  C 2339.37 567.11 2346.31 562.87 2346.46 555.35
  Z"
/>
<path fill="#181824" d="
  M 2112.09 555.55
  L 2073.93 555.55
  A 0.37 0.37 0.0 0 0 2073.59 555.77
  L 2065.36 574.09
  A 0.37 0.37 0.0 0 1 2065.02 574.31
  L 2056.76 574.24
  A 0.37 0.37 0.0 0 1 2056.42 573.71
  L 2088.94 501.89
  A 0.37 0.37 0.0 0 1 2089.28 501.68
  L 2096.95 501.57
  A 0.37 0.37 0.0 0 1 2097.29 501.79
  L 2129.86 573.72
  A 0.37 0.37 0.0 0 1 2129.53 574.24
  L 2120.84 574.28
  A 0.37 0.37 0.0 0 1 2120.50 574.06
  L 2112.43 555.77
  A 0.37 0.37 0.0 0 0 2112.09 555.55
  Z
  M 2077.33 547.04
  A 0.49 0.49 0.0 0 0 2077.78 547.73
  L 2108.18 547.78
  A 0.49 0.49 0.0 0 0 2108.63 547.09
  L 2093.49 513.07
  A 0.49 0.49 0.0 0 0 2092.59 513.07
  L 2077.33 547.04
  Z"
/>
<path fill="#181824" d="
  M 968.94 543.78
  L 968.94 573.80
  A 0.49 0.49 0.0 0 1 968.45 574.29
  L 960.83 574.30
  A 0.49 0.49 0.0 0 1 960.34 573.81
  L 960.31 502.44
  A 0.49 0.49 0.0 0 1 960.80 501.95
  L 1012.04 501.93
  A 0.49 0.49 0.0 0 1 1012.53 502.42
  L 1012.54 509.51
  A 0.49 0.49 0.0 0 1 1012.05 510.00
  L 969.43 510.00
  A 0.49 0.49 0.0 0 0 968.94 510.49
  L 968.94 534.74
  A 0.49 0.49 0.0 0 0 969.43 535.23
  L 1007.22 535.22
  A 0.49 0.49 0.0 0 1 1007.71 535.71
  L 1007.69 542.86
  A 0.49 0.49 0.0 0 1 1007.20 543.35
  L 969.43 543.29
  A 0.49 0.49 0.0 0 0 968.94 543.78
  Z"
/>
<path fill="#181824" d="
  M 681.18 550.04
  L 681.23 573.51
  Q 681.23 574.25 680.49 574.26
  L 673.48 574.33
  Q 672.62 574.34 672.62 573.48
  L 672.60 502.70
  Q 672.60 501.94 673.36 501.94
  Q 686.17 501.85 699.31 501.98
  C 710.85 502.09 722.64 506.56 725.87 518.43
  Q 728.37 527.61 724.16 536.00
  C 716.47 551.34 696.26 549.27 681.90 549.33
  Q 681.18 549.33 681.18 550.04
  Z
  M 681.01 510.46
  L 681.23 540.90
  A 0.40 0.40 0.0 0 0 681.63 541.30
  L 700.43 541.16
  A 17.60 14.89 -0.4 0 0 717.92 526.15
  L 717.91 524.69
  A 17.60 14.89 -0.4 0 0 700.21 509.92
  L 681.41 510.06
  A 0.40 0.40 0.0 0 0 681.01 510.46
  Z"
/>
<path fill="#181824" d="
  M 799.05 544.90
  A 0.34 0.33 65.3 0 0 798.86 545.43
  Q 809.91 560.20 820.40 574.14
  A 0.05 0.04 -16.8 0 1 820.36 574.21
  Q 815.04 574.38 809.83 574.25
  A 0.50 0.49 -17.5 0 1 809.46 574.06
  L 789.23 546.90
  A 1.63 1.62 71.4 0 0 787.93 546.25
  L 769.57 546.26
  A 0.68 0.67 0.0 0 0 768.89 546.93
  L 768.89 574.06
  Q 768.89 574.28 768.67 574.28
  L 760.55 574.30
  Q 760.30 574.30 760.29 574.05
  L 760.27 502.50
  A 0.51 0.51 0.0 0 1 760.78 501.99
  Q 776.26 501.87 792.83 502.02
  C 803.33 502.12 814.19 507.22 816.82 517.93
  C 819.76 529.85 813.89 541.09 801.71 544.26
  Q 800.38 544.60 799.05 544.90
  Z
  M 768.86 510.55
  L 768.86 538.15
  A 0.59 0.59 0.0 0 0 769.45 538.74
  L 791.88 538.74
  A 17.00 13.90 0.0 0 0 808.88 524.84
  L 808.88 523.86
  A 17.00 13.90 -0.0 0 0 791.88 509.96
  L 769.45 509.96
  A 0.59 0.59 0.0 0 0 768.86 510.55
  Z"
/>
<path fill="#181824" d="
  M 1055.74 510.40
  L 1055.75 533.57
  A 0.40 0.40 0.0 0 0 1056.15 533.97
  L 1094.38 533.97
  A 0.40 0.40 0.0 0 1 1094.78 534.37
  L 1094.76 541.72
  A 0.40 0.40 0.0 0 1 1094.36 542.12
  L 1056.15 542.12
  A 0.40 0.40 0.0 0 0 1055.75 542.52
  L 1055.76 566.07
  A 0.40 0.40 0.0 0 0 1056.16 566.47
  L 1099.39 566.47
  A 0.40 0.40 0.0 0 1 1099.79 566.87
  L 1099.76 573.91
  A 0.40 0.40 0.0 0 1 1099.36 574.31
  L 1047.22 574.31
  A 0.40 0.40 0.0 0 1 1046.82 573.91
  L 1046.80 502.34
  A 0.40 0.40 0.0 0 1 1047.20 501.94
  L 1099.09 501.94
  A 0.40 0.40 0.0 0 1 1099.49 502.34
  L 1099.52 509.60
  A 0.40 0.40 0.0 0 1 1099.12 510.00
  L 1056.14 510.00
  A 0.40 0.40 0.0 0 0 1055.74 510.40
  Z"
/>
<rect fill="#181824" x="1304.32" y="501.97" width="8.94" height="72.30" rx="0.67"/>
<path fill="#181824" d="
  M 1467.75 516.97
  L 1467.75 574.02
  A 0.27 0.27 0.0 0 1 1467.48 574.29
  L 1459.74 574.30
  Q 1459.43 574.31 1459.43 573.99
  L 1459.38 502.77
  A 0.84 0.83 0.3 0 1 1460.23 501.94
  L 1466.77 501.98
  Q 1467.62 501.99 1468.14 502.65
  L 1511.59 557.96
  Q 1512.24 558.78 1512.24 557.73
  L 1512.22 502.28
  A 0.25 0.25 0.0 0 1 1512.47 502.03
  L 1520.49 501.94
  A 0.30 0.29 89.1 0 1 1520.79 502.24
  L 1520.79 573.47
  Q 1520.79 574.10 1520.16 574.19
  C 1517.90 574.51 1514.20 574.94 1512.60 572.91
  Q 1491.26 545.75 1468.38 516.76
  Q 1467.75 515.96 1467.75 516.97
  Z"
/>
<path fill="#181824" d="
  M 1568.35 516.76
  A 0.07 0.07 0.0 0 0 1568.33 516.81
  L 1568.29 573.95
  Q 1568.29 574.25 1567.99 574.25
  L 1560.03 574.26
  Q 1559.74 574.26 1559.74 573.96
  L 1559.73 502.50
  A 0.52 0.52 0.0 0 1 1560.25 501.98
  L 1566.95 501.95
  A 1.91 1.91 0.0 0 1 1568.47 502.68
  L 1612.11 558.20
  Q 1612.76 559.02 1612.76 557.97
  L 1612.76 502.21
  Q 1612.76 501.92 1613.04 501.92
  L 1621.05 501.99
  Q 1621.20 501.99 1621.20 502.15
  L 1621.20 573.53
  A 0.70 0.69 -1.3 0 1 1620.53 574.22
  C 1618.37 574.29 1614.67 575.04 1613.12 573.08
  Q 1593.81 548.72 1568.85 516.86
  Q 1568.78 516.77 1568.69 516.72
  Q 1568.50 516.62 1568.35 516.76
  Z"
/>
<path fill="#181824" d="
  M 1668.80 542.64
  L 1668.85 565.95
  A 0.52 0.52 0.0 0 0 1669.37 566.47
  L 1712.86 566.50
  A 0.52 0.52 0.0 0 1 1713.38 567.03
  L 1713.31 573.71
  A 0.52 0.52 0.0 0 1 1712.79 574.22
  L 1660.78 574.34
  A 0.52 0.52 0.0 0 1 1660.26 573.82
  L 1660.26 502.45
  A 0.52 0.52 0.0 0 1 1660.78 501.93
  L 1712.08 501.95
  A 0.52 0.52 0.0 0 1 1712.60 502.47
  L 1712.57 509.48
  A 0.52 0.52 0.0 0 1 1712.05 510.00
  L 1669.32 510.00
  A 0.52 0.52 0.0 0 0 1668.80 510.52
  L 1668.86 533.45
  A 0.52 0.52 0.0 0 0 1669.38 533.97
  L 1707.25 533.97
  A 0.52 0.52 0.0 0 1 1707.77 534.49
  L 1707.77 541.60
  A 0.52 0.52 0.0 0 1 1707.25 542.12
  L 1669.32 542.12
  A 0.52 0.52 0.0 0 0 1668.80 542.64
  Z"
/>
<path fill="#181824" d="
  M 1797.42 567.03
  L 1797.41 573.73
  A 0.52 0.52 0.0 0 1 1796.89 574.25
  L 1748.74 574.29
  A 0.52 0.52 0.0 0 1 1748.22 573.77
  L 1748.22 502.45
  A 0.52 0.52 0.0 0 1 1748.74 501.93
  L 1756.60 501.96
  A 0.52 0.52 0.0 0 1 1757.12 502.48
  L 1757.13 565.97
  A 0.52 0.52 0.0 0 0 1757.65 566.49
  L 1796.90 566.51
  A 0.52 0.52 0.0 0 1 1797.42 567.03
  Z"
/>
<path fill="#181824" d="
  M 1991.14 549.20
  A 0.79 0.78 -88.6 0 0 1990.32 549.99
  L 1990.31 573.48
  Q 1990.31 574.26 1989.52 574.27
  L 1982.53 574.31
  Q 1981.76 574.31 1981.76 573.54
  L 1981.75 502.45
  A 0.49 0.49 0.0 0 1 1982.23 501.96
  Q 1996.39 501.86 2009.92 502.04
  C 2025.89 502.24 2037.83 511.68 2035.93 528.88
  C 2034.82 538.96 2026.11 546.28 2016.27 548.10
  C 2008.23 549.59 1999.36 549.53 1991.14 549.20
  Z
  M 1990.19 510.60
  L 1990.40 540.76
  A 0.52 0.52 0.0 0 0 1990.92 541.28
  L 2009.92 541.14
  A 17.50 14.97 -0.4 0 0 2027.31 526.05
  L 2027.31 524.79
  A 17.50 14.97 -0.4 0 0 2009.70 509.94
  L 1990.70 510.08
  A 0.52 0.52 0.0 0 0 1990.19 510.60
  Z"
/>
<path fill="#181824" d="
  M 2201.62 544.81
  A 0.38 0.37 67.1 0 0 2201.38 545.41
  Q 2213.07 560.84 2222.94 574.14
  A 0.05 0.04 69.3 0 1 2222.91 574.22
  Q 2217.68 574.39 2212.47 574.30
  A 0.48 0.46 -15.9 0 1 2212.11 574.11
  L 2191.73 546.84
  A 1.47 1.45 71.5 0 0 2190.56 546.25
  L 2172.22 546.25
  A 0.78 0.77 90.0 0 0 2171.45 547.03
  L 2171.46 573.78
  A 0.49 0.48 -0.0 0 1 2170.97 574.26
  L 2163.21 574.29
  Q 2162.85 574.29 2162.85 573.93
  L 2162.86 502.46
  A 0.56 0.56 0.0 0 1 2163.42 501.90
  Q 2178.12 501.88 2192.39 501.90
  Q 2199.42 501.91 2205.83 503.94
  C 2216.35 507.27 2221.60 517.04 2219.89 527.67
  C 2218.48 536.42 2211.23 543.52 2201.62 544.81
  Z
  M 2171.34 510.68
  L 2171.38 538.08
  A 0.71 0.71 0.0 0 0 2172.10 538.78
  L 2194.26 538.75
  A 17.33 14.22 -0.1 0 0 2211.56 524.49
  L 2211.56 524.11
  A 17.33 14.22 -0.1 0 0 2194.20 509.93
  L 2172.04 509.96
  A 0.71 0.71 0.0 0 0 2171.34 510.68
  Z"
/>
<rect fill="#181824" x="2257.01" y="501.97" width="8.96" height="72.30" rx="0.69"/>
<ellipse fill="#ffffff" cx="0.00" cy="0.00" transform="translate(887.46,538.21) rotate(87.4)" rx="29.44" ry="27.99"/>
<ellipse fill="#ffffff" cx="0.00" cy="0.00" transform="translate(1386.73,538.24) rotate(87.0)" rx="29.44" ry="27.98"/>
<path fill="#ffffff" d="
  M 681.01 510.46
  A 0.40 0.40 0.0 0 1 681.41 510.06
  L 700.21 509.92
  A 17.60 14.89 -0.4 0 1 717.91 524.69
  L 717.92 526.15
  A 17.60 14.89 -0.4 0 1 700.43 541.16
  L 681.63 541.30
  A 0.40 0.40 0.0 0 1 681.23 540.90
  L 681.01 510.46
  Z"
/>
<path fill="#ffffff" d="
  M 768.86 510.55
  A 0.59 0.59 0.0 0 1 769.45 509.96
  L 791.88 509.96
  A 17.00 13.90 -0.0 0 1 808.88 523.86
  L 808.88 524.84
  A 17.00 13.90 -0.0 0 1 791.88 538.74
  L 769.45 538.74
  A 0.59 0.59 0.0 0 1 768.86 538.15
  L 768.86 510.55
  Z"
/>
<path fill="#ffffff" d="
  M 1990.19 510.60
  A 0.52 0.52 0.0 0 1 1990.70 510.08
  L 2009.70 509.94
  A 17.50 14.97 -0.4 0 1 2027.31 524.79
  L 2027.31 526.05
  A 17.50 14.97 -0.4 0 1 2009.92 541.14
  L 1990.92 541.28
  A 0.52 0.52 0.0 0 1 1990.40 540.76
  L 1990.19 510.60
  Z"
/>
<path fill="#ffffff" d="
  M 2171.34 510.68
  A 0.71 0.71 0.0 0 1 2172.04 509.96
  L 2194.20 509.93
  A 17.33 14.22 -0.1 0 1 2211.56 524.11
  L 2211.56 524.49
  A 17.33 14.22 -0.1 0 1 2194.26 538.75
  L 2172.10 538.78
  A 0.71 0.71 0.0 0 1 2171.38 538.08
  L 2171.34 510.68
  Z"
/>
<path fill="#ffffff" d="
  M 2077.33 547.04
  L 2092.59 513.07
  A 0.49 0.49 0.0 0 1 2093.49 513.07
  L 2108.63 547.09
  A 0.49 0.49 0.0 0 1 2108.18 547.78
  L 2077.78 547.73
  A 0.49 0.49 0.0 0 1 2077.33 547.04
  Z"
/>
</svg>
