<?xml version="1.0" encoding="UTF-8"?><svg id="a" xmlns="http://www.w3.org/2000/svg" xmlns:xlink="http://www.w3.org/1999/xlink" viewBox="0 0 500 500"><defs><style>.g{fill:none;}.h{fill:#010202;}.i{clip-path:url(#c);}.j{clip-path:url(#b);}.k{clip-path:url(#f);}.l{clip-path:url(#e);}.m{clip-path:url(#d);}</style><clipPath id="b"><rect class="g" x="76.39" y="210" width="347.51" height="102"/></clipPath><clipPath id="c"><rect class="g" x="76.39" y="210" width="347.51" height="102"/></clipPath><clipPath id="d"><rect class="g" x="76.39" y="210" width="347.51" height="102"/></clipPath><clipPath id="e"><rect class="g" x="76.39" y="210" width="347.51" height="102"/></clipPath><clipPath id="f"><rect class="g" x="76.39" y="210" width="347.51" height="102"/></clipPath></defs><g class="j"><path class="h" d="M327.44,210c-2.02,0-4.71,.34-8.07,1.18-4.2,1.18-8.07,2.69-11.59,4.71-10.08,5.71-14.96,13.78-14.79,24.03,.17,10.08,4.2,17.48,12.1,22.35,4.03,2.35,7.9,3.86,11.93,4.2-2.35-1.51-4.54-3.7-6.72-6.55-4.54-5.71-6.55-11.76-6.39-18.32,.17-7.9,2.52-14.45,7.06-19.83s9.91-8.07,16.3-7.9c6.55,.17,12.27,2.69,16.97,7.56,5.04,5.21,7.56,11.59,7.39,19.16-.17,8.4-1.85,15.12-5.38,20-3.86,5.38-9.75,8.23-17.31,8.23h-56.63v-56.29h-9.75v60.49h64.7c3.02,0,6.22-.5,9.75-1.34,4.37-1.18,8.23-2.86,11.59-5.04,9.24-5.88,13.95-14.28,14.28-25.54,.17-10.92-4.71-19.32-14.96-25.21-3.53-2.02-7.56-3.53-11.93-4.71-3.7-.67-6.55-1.18-8.57-1.18"/></g><polygon class="h" points="419.35 212.52 419.35 254.87 382.05 212.52 373.31 212.52 373.48 272.85 378.18 272.85 378.18 224.28 421.37 272.68 423.72 272.68 423.72 212.52 419.35 212.52"/><polygon class="h" points="410.28 290.32 410.28 311.33 424.06 311.33 424.06 308.47 414.65 308.47 414.65 290.32 410.28 290.32"/><polygon class="h" points="383.06 290.32 374.99 311.33 378.18 311.33 380.37 305.78 380.2 305.78 380.2 302.93 381.54 302.93 384.74 294.86 387.93 302.93 389.95 302.93 389.95 305.78 389.11 305.78 391.29 311.33 395.66 311.33 387.43 290.32 383.06 290.32"/><polygon class="h" points="387.93 302.93 381.54 302.93 380.2 302.93 380.2 305.78 380.37 305.78 389.11 305.78 389.95 305.78 389.95 302.93 387.93 302.93"/><polygon class="h" points="343.4 290.49 343.4 311.33 346.76 311.33 346.76 297.21 356.34 311.5 360.37 311.5 360.37 290.49 357.01 290.49 357.01 304.27 347.26 290.32 343.4 290.49"/><g><g class="i"><path class="h" d="M314.16,293.68c.67-.34,1.34-.67,2.18-.84,.34,0,.67-.17,1.01-.17l.84,.17c.84,.17,1.51,.5,2.02,1.01,2.02,1.34,3.02,3.7,3.02,6.72,0,3.19-.84,5.55-2.69,7.06-1.01,.84-2.18,1.34-3.19,1.34-3.86,0-5.88-2.69-6.05-8.23-.34-3.36,.67-5.71,2.86-7.06m-7.73,7.06c0,2.86,.67,5.38,2.02,7.23,2.02,2.69,5.04,4.03,9.07,4.03s6.89-1.51,8.74-4.71c1.01-1.85,1.51-3.86,1.68-6.39,.17-2.35-.34-4.54-1.34-6.39-1.85-3.19-4.87-4.71-9.41-4.87-4.54,0-7.56,1.51-9.24,4.87-.84,1.51-1.34,3.53-1.51,6.22"/></g><g class="m"><path class="h" d="M261.56,294.86c0-1.51,1.01-2.18,3.36-2.18,1.18,0,2.86,.34,5.04,1.18v-3.36c-3.86-.84-6.55-1.18-8.07-.67-2.86,.84-4.37,2.52-4.54,4.87-.17,2.02,.5,3.86,2.18,5.38,.5,.5,2.02,1.51,4.37,2.86,2.02,1.34,3.02,2.52,3.02,3.53,0,.84-.17,1.51-.67,1.85-.5,.5-1.68,.67-3.36,.67-1.34,0-2.69-.17-4.03-.67l-1.51-.67v3.7l2.52,.34c1.85,.17,3.53,.34,4.54,.17,1.85,0,3.19-.5,4.37-1.18,1.51-1.01,2.35-2.69,2.52-4.71,0-2.02-.67-3.7-2.02-4.87-.5-.5-1.68-1.18-3.36-2.18-2.86-1.51-4.2-2.86-4.37-4.03"/></g></g><rect class="h" x="286.6" y="290.32" width="4.54" height="21"/><g class="l"><path class="h" d="M86.3,216.55v.34l19.16,.17c3.36,0,5.88,.34,7.56,.84,4.37,1.68,6.55,5.21,6.55,10.59s-2.18,9.24-6.39,11.26c-2.18,1.01-4.37,1.51-6.39,1.51l-20.5,.34v-25.04Zm28.4-3.7c-1.51-.34-2.52-.5-3.19-.5h-34.95v60.66h9.75v-27.22h16.13l21.85,27.05,12.43,.17-23.02-28.06c2.52-.5,5.04-1.34,7.73-2.86,5.04-3.19,7.56-7.56,7.56-13.44s-2.69-10.25-8.4-13.44c-1.68-1.01-3.7-1.68-5.88-2.35"/></g><polygon class="h" points="144.11 273.01 189.81 273.01 191.16 269.15 154.02 269.15 154.02 244.45 177.54 244.45 177.54 240.08 154.02 239.91 154.02 216.72 188.13 216.72 187.46 212.86 144.11 212.52 144.11 273.01"/><polygon class="h" points="192.16 212.52 221.74 273.01 224.76 273.01 252.49 212.69 247.62 212.69 225.94 259.91 203.09 212.52 192.16 212.52"/><polygon class="h" points="201.24 290.32 201.24 311.33 215.02 311.33 215.02 308.47 205.78 308.47 205.78 302.25 212.67 302.25 212.67 299.06 205.61 299.06 205.61 293.18 214.18 293.18 214.18 290.15 201.24 290.32"/><g class="k"><path class="h" d="M241.74,293.85v-3.36c-3.86-.84-6.55-1.18-8.07-.67-2.86,.84-4.37,2.52-4.54,4.87-.17,2.18,.5,3.86,2.18,5.38,.5,.5,2.02,1.51,4.37,2.86,2.02,1.34,3.02,2.52,3.02,3.53,0,.84-.17,1.51-.67,1.85-.5,.5-1.68,.67-3.36,.67-1.34,0-2.69-.17-4.03-.67l-1.34-.67v3.7l2.52,.34c1.85,.17,3.53,.34,4.54,.17,1.85,0,3.19-.5,4.37-1.18,1.51-1.01,2.35-2.69,2.52-4.71,0-2.02-.67-3.7-2.02-4.87-.5-.5-1.68-1.18-3.36-2.18-2.86-1.51-4.2-2.69-4.2-3.86,0-1.51,1.01-2.18,3.36-2.18,1.01-.17,2.69,.17,4.71,1.01"/></g><polygon class="h" points="173.01 290.32 173.01 311.5 177.21 311.5 177.21 302.76 184.6 302.76 184.6 299.73 177.38 299.73 177.38 293.35 186.11 293.35 186.11 290.32 173.01 290.32"/><path class="h" d="M140.91,300.91c-.17-3.53,.84-5.88,2.86-7.06,.67-.5,1.34-.67,2.18-.84,.34-.17,.67-.17,1.01-.17l1.01,.17c.67,.17,1.34,.5,2.02,1.01,2.02,1.34,3.02,3.7,3.02,6.72,0,3.19-.84,5.55-2.69,7.06-1.01,.84-2.18,1.34-3.36,1.34-3.86,0-5.88-2.86-6.05-8.23h0Zm5.88-11.26c-4.54,0-7.56,1.51-9.24,4.87-.67,1.34-1.18,3.36-1.34,6.22,0,3.02,.67,5.38,2.02,7.23,1.85,2.69,5.04,4.03,9.24,4.03s6.89-1.51,8.57-4.71c1.01-1.68,1.51-3.86,1.68-6.22s-.34-4.54-1.34-6.39c-2.02-3.36-5.04-4.87-9.58-5.04h0Z"/><path class="h" d="M110.83,299.9h-1.01l.17-6.55,2.69-.17c1.85,.34,2.86,1.34,2.86,3.02,.17,1.68-.84,2.86-2.69,3.36-.67,.17-1.34,.34-2.02,.34h0Zm-1.01,3.02h2.86l4.87,8.74h5.38l-6.72-10.08c.67-.17,1.51-.67,2.18-1.18,1.51-1.18,2.18-2.69,2.18-4.54,0-3.53-2.18-5.21-6.72-5.38h-7.73v21.17h3.7v-8.74Z"/><path class="h" d="M80.75,293.35h2.69c1.85,.34,2.69,1.34,2.86,3.02,0,1.68-.84,2.86-2.69,3.36-.5,.17-1.18,.17-1.85,.34h-1.01v-6.72Zm6.05-2.86l-.84-.17h-9.58v20.67h4.37v-8.23c3.02,0,5.04-.17,5.71-.5,3.02-1.18,4.37-3.36,4.37-6.72,0-2.18-.84-3.7-2.35-4.71-.5,0-1.01-.17-1.68-.34h0Z"/><rect class="g" x="76.39" y="210" width="347.51" height="102"/></svg>