<?xml version="1.0" encoding="UTF-8"?><svg id="a" xmlns="http://www.w3.org/2000/svg" xmlns:xlink="http://www.w3.org/1999/xlink" viewBox="0 0 500 500"><defs><style>.x{fill:none;}.y{clip-path:url(#v);}.a`{clip-path:url(#u);}.aa{clip-path:url(#t);}.ab{clip-path:url(#w);}.ac{clip-path:url(#c);}.ad{clip-path:url(#b);}.ae{clip-path:url(#f);}.af{clip-path:url(#e);}.ag{clip-path:url(#d);}.ah{clip-path:url(#n);}.ai{clip-path:url(#m);}.aj{clip-path:url(#l);}.ak{clip-path:url(#k);}.al{clip-path:url(#j);}.am{clip-path:url(#i);}.an{clip-path:url(#h);}.ao{clip-path:url(#g);}.ap{clip-path:url(#s);}.aq{clip-path:url(#r);}.ar{clip-path:url(#q);}.as{clip-path:url(#p);}.at{clip-path:url(#o);}</style><clipPath id="b"><rect class="x" x="85.7" y="157" width="341.05" height="174.26"/></clipPath><clipPath id="c"><rect class="x" x="85.7" y="157" width="341.05" height="174.26"/></clipPath><clipPath id="d"><rect class="x" x="85.7" y="157" width="341.05" height="174.26"/></clipPath><clipPath id="e"><rect class="x" x="85.7" y="157" width="341.05" height="174.26"/></clipPath><clipPath id="f"><rect class="x" x="85.7" y="157" width="341.05" height="174.26"/></clipPath><clipPath id="g"><rect class="x" x="85.7" y="157" width="341.05" height="174.26"/></clipPath><clipPath id="h"><rect class="x" x="85.7" y="157" width="341.05" height="174.26"/></clipPath><clipPath id="i"><rect class="x" x="85.7" y="157" width="341.05" height="174.26"/></clipPath><clipPath id="j"><rect class="x" x="85.7" y="157" width="341.05" height="174.26"/></clipPath><clipPath id="k"><rect class="x" x="85.7" y="157" width="341.05" height="174.26"/></clipPath><clipPath id="l"><rect class="x" x="85.7" y="157" width="341.05" height="174.26"/></clipPath><clipPath id="m"><rect class="x" x="85.7" y="157" width="341.05" height="174.26"/></clipPath><clipPath id="n"><rect class="x" x="85.7" y="157" width="341.05" height="174.26"/></clipPath><clipPath id="o"><rect class="x" x="85.7" y="157" width="341.05" height="174.26"/></clipPath><clipPath id="p"><rect class="x" x="85.7" y="157" width="341.05" height="174.26"/></clipPath><clipPath id="q"><rect class="x" x="85.7" y="157" width="341.05" height="174.26"/></clipPath><clipPath id="r"><rect class="x" x="85.7" y="157" width="341.05" height="174.26"/></clipPath><clipPath id="s"><rect class="x" x="85.7" y="157" width="341.05" height="174.26"/></clipPath><clipPath id="t"><rect class="x" x="85.7" y="157" width="341.05" height="174.26"/></clipPath><clipPath id="u"><rect class="x" x="85.7" y="157" width="341.05" height="174.26"/></clipPath><clipPath id="v"><rect class="x" x="85.7" y="157" width="341.05" height="174.26"/></clipPath><clipPath id="w"><rect class="x" x="85.7" y="157" width="341.05" height="174.26"/></clipPath></defs><g><g class="ad"><path d="M259.95,158.21c-2.02,0-4.03-.4-6.05-.81-3.03-.61-6.05,0-8.87,1.01-2.02,.4-4.44,.4-6.25,1.41-2.42,1.41-5.24,2.02-7.06,4.64-1.41,1.61-3.03,2.82-3.43,5.04-.4,2.62,.2,5.04,2.22,6.86,.61,.61,1.82,.61,2.02,1.61-.2,1.82-1.21,3.23-1.82,5.04-1.01,1.82,1.82,3.03,.61,4.84l-4.03,7.06c-.4,1.01-1.01,2.02-1.01,3.23,.4,2.02,2.82,1.21,4.03,2.42,.81,1.01-.4,1.82-.61,2.82-.2,.81,1.01,1.21,.61,2.02-.81,1.21,.61,2.22,1.01,3.23,.2,1.61-.81,3.23,.4,4.64,3.03,2.22,7.66,.4,10.89,2.02,1.61,1.21,1.21,3.43,1.21,5.24-.81,7.66-4.64,14.12-9.28,20.17-.4,.81-1.01,1.82-.61,2.62,.61,.4,1.61,.2,2.42,0,8.67-3.03,15.53-10.49,24-14.12,3.23-1.61,7.06-2.22,10.49-3.03,.81-.61,.4-1.82,.2-2.82-1.82-4.64-3.83-9.28-3.43-14.52,0-2.02,2.22-2.42,3.63-3.03,2.22-.61,3.63-3.03,4.64-4.84,1.82-2.62,4.24-5.04,4.44-8.07,.2-2.82,0-6.05,1.01-8.47,.81-2.82,.4-6.05-.61-8.47-.2-3.43-1.41-6.66-3.63-9.28-2.22-2.82-5.65-3.43-8.27-5.45-2.42-3.03-5.65-3.23-8.87-3.03"/></g><g class="ac"><path d="M91.55,319.96v4.24c0,2.22,0,4.03-.2,5.04,0,.61-.2,1.21-.61,1.21h-.81c-.2,0-.4,0-.4,.2s.2,.2,.4,.2h6.66c.2,0,.4,0,.4-.2s-.2-.2-.4-.2h-1.21c-.61,0-.81-.61-1.01-1.21-.2-1.01-.2-2.82-.2-5.04v-9.48c0-.2,0-.4,.2-.4h1.01c.61,0,1.41,.2,2.42,1.01,1.41,1.21,1.41,2.82,1.41,3.63,0,2.42-1.82,3.83-3.23,3.83-.4,0-.61,0-.61,.2s.2,.2,.2,.2h.4c3.43,0,5.85-2.42,5.85-5.65,0-1.21-.61-2.22-1.21-2.82-.4-.4-1.41-1.41-4.44-1.41h-6.86c-.4,0-.61,0-.61,.2h1.82c.81,.2,1.01,.61,1.01,1.41v5.04"/></g><g class="ag"><path d="M122.2,321.78c0,.2,0,.4,.2,.4,.4,.2,1.21,.2,1.82,.2,1.01,0,1.21,0,1.61-.4,.61-.61,1.41-1.61,1.41-3.63,0-3.43-2.22-4.24-3.63-4.24h-1.21c-.2,0-.2,.2-.2,.4v7.26Zm-2.82-1.82v-5.04c0-.81-.2-1.21-1.01-1.41h-1.01c-.2,0-.4,0-.4-.2s.2-.2,.61-.2h6.45c1.41,0,3.03,.2,4.44,1.01,.61,.4,1.61,1.61,1.61,3.23,0,1.82-.81,3.43-3.03,5.24,2.02,2.62,3.63,4.84,5.04,6.25s2.22,1.61,2.62,1.61h.61q.2,0,.2,.2c0,.2-.2,.2-.4,.2h-2.22c-1.41,0-1.82-.2-2.62-.4-1.01-.61-1.82-1.61-3.23-3.43-1.01-1.21-2.02-2.82-2.42-3.23q0-.2-.2-.2h-2.02q-.2,0-.2,.2v.4c0,2.22,0,4.03,.2,5.04,0,.61,.2,1.21,1.01,1.21h1.21q.2,0,.2,.2c0,.2-.2,.2-.4,.2h-6.25q-.4,0-.4-.2t.4-.2h.81c.4,0,.61-.61,.61-1.21,.2-1.01,.2-2.82,.2-5.04v-4.24h-.4Z"/></g><g class="af"><path d="M162.54,322.58c0-5.24-3.03-8.47-6.86-8.47-2.62,0-5.85,1.61-5.85,7.46,0,4.84,2.62,8.87,7.26,8.87,1.61-.4,5.45-1.21,5.45-7.87m-15.93-.61c0-4.03,2.62-9.28,9.68-9.28,5.85,0,9.48,3.43,9.48,8.87s-3.83,9.68-9.68,9.68c-6.86,0-9.48-5.04-9.48-9.28"/></g><g class="ae"><path d="M186.14,324.2v-2.02q0-.2,.2-.2h3.43c.81,0,1.01,.61,1.21,.81,0,.2,.2,.61,.2,.81s0,.4,.2,.4,.2-.2,.2-.4v-1.82c0-.81,.2-1.41,.2-1.41q0-.2-.2-.2t-.4,.2c-.2,.4-.61,.4-1.01,.4h-4.03q-.2,0-.2-.2v-5.85c0-.2,0-.4,.2-.4h3.63c.81,0,1.41,.4,1.61,.81,.2,.4,.2,.61,.2,.81s0,.4,.2,.4,.2-.2,.2-.4,0-1.61,.2-1.82c0-.61,.2-.81,.2-1.01s0-.2-.2-.2-.2,0-.4,.2h-10.69c-.4,0-.61,0-.61,.2s.2,.2,.4,.2h1.01c.81,.2,1.01,.61,1.01,1.41v9.28c0,2.22,0,4.03-.2,5.04,0,.61-.2,1.21-.61,1.21h-.81c-.2,0-.4,0-.4,.2s.2,.2,.4,.2h6.66c.4,0,.61,0,.61-.2s0-.2-.4-.2h-1.21c-.61,0-.81-.61-1.01-1.21,.2-1.01,.2-2.82,.2-5.04"/></g><g class="ao"><path d="M209.73,319.96v4.24c0,2.22,0,4.03-.2,5.04,0,.61-.2,1.21-.61,1.21h-.81c-.2,0-.4,0-.4,.2s.2,.2,.4,.2h3.03c1.41,0,3.03,.2,6.45,.2,.81,0,1.01,0,1.21-.61,.2-.4,.4-2.02,.4-2.62,0-.2,0-.4-.2-.4s-.2,0-.2,.4c-.2,1.01-.4,1.41-1.01,1.82-.61,.2-1.61,.2-2.22,.2-2.42,0-2.82-.4-2.82-2.02v-5.45q0-.2,.2-.2h3.43c.81,0,1.21,.4,1.41,1.01v.81q0,.2,.2,.2c.2,0,.2-.2,.2-.4v-1.61c0-1.21,.2-1.61,.2-1.61q0-.2-.2-.2c-.2,0-.2,.2-.4,.4s-.61,.4-1.21,.4h-3.83q-.2,0-.2-.2v-6.05q0-.2,.2-.2h3.43c1.21,.2,1.41,.4,1.61,.81,.2,.2,.2,.61,.2,.81s0,.4,.2,.4,.2-.2,.2-.2c0-.2,0-1.41,.2-1.61,0-1.01,.2-1.41,.2-1.61s0-.2-.2-.2h-.4c-.2,0-.61,0-1.01,.2h-9.28c-.4,0-.61,0-.61,.2s.2,.2,.4,.2h1.01c.81,.2,1.01,.61,1.01,1.41,0,.61,0,1.21,0,4.84"/></g><g class="an"><path d="M235.75,330.65c1.01,.4,2.02,.61,3.43,.61,1.21,0,2.62-.2,3.83-1.01,1.61-1.21,2.22-2.82,2.22-4.03,0-2.22-1.01-3.83-3.83-6.05l-.61-.4c-2.02-1.41-2.42-2.22-2.42-3.43,0-1.41,1.01-2.42,2.82-2.42,1.61,0,2.22,.61,2.62,1.21,.4,.61,.61,1.41,.61,1.61s0,.4,.2,.4,.2-.2,.2-.81v-2.82c0-.2-.2-.2-.4-.2-.61-.2-1.61-.4-3.23-.4-3.23,0-5.45,1.82-5.45,4.44,0,1.82,.81,3.63,3.43,5.65l1.01,.81c2.02,1.41,2.22,2.62,2.22,3.83s-1.01,2.62-3.23,2.62c-1.41,0-2.82-.61-3.43-2.42-.2-.4-.2-.81-.2-1.21,0-.2,0-.4-.2-.4s-.2,.2-.2,.61-.2,1.82-.2,3.03q.4,.61,.81,.81"/></g><g class="am"><path d="M261.77,330.65c1.01,.4,2.02,.61,3.43,.61,1.21,0,2.62-.2,3.83-1.01,1.61-1.21,2.22-2.82,2.22-4.03,0-2.22-1.01-3.83-3.83-6.05l-.61-.4c-2.02-1.41-2.42-2.22-2.42-3.43,0-1.41,1.01-2.42,2.82-2.42,1.61,0,2.22,.61,2.62,1.21,.4,.61,.61,1.41,.61,1.61s0,.4,.2,.4,.2-.2,.2-.81v-2.82c0-.2-.2-.2-.4-.2-.61-.2-1.61-.4-3.03-.4-3.23,0-5.45,1.82-5.45,4.44,0,1.82,.81,3.63,3.43,5.65l1.01,.81c2.02,1.41,2.22,2.62,2.22,3.83s-1.01,2.62-3.23,2.62c-1.41,0-2.82-.61-3.43-2.42-.2-.4-.2-.81-.2-1.21,0-.2,0-.4-.2-.4s-.2,.2-.2,.61-.2,1.82-.2,3.03q.2,.61,.61,.81"/></g><g class="al"><path d="M289.2,319.96v4.24c0,2.22,0,4.24-.2,5.04,0,.61-.2,1.01-.61,1.21h-.81c-.2,0-.4,0-.4,.2s.2,.2,.4,.2h6.66c.2,0,.4,0,.4-.2s-.2-.2-.4-.2h-1.21c-.81,0-.81-.61-1.01-1.21-.2-1.01-.2-2.82-.2-5.24v-9.28c0-.81,.2-1.21,.81-1.41h.81c.2,0,.4,0,.4-.2s-.2-.2-.4-.2h-5.85c-.4,0-.61,0-.61,.2s.2,.2,.4,.2h.81c.61,.2,.81,.61,.81,1.41,.2,1.01,.2,1.61,.2,5.24"/></g><g class="ak"><path d="M325.1,322.58c0-5.24-3.03-8.47-6.86-8.47-2.62,0-5.85,1.61-5.85,7.46,0,4.84,2.62,8.87,7.26,8.87,1.61-.4,5.45-1.21,5.45-7.87m-15.93-.61c0-4.03,2.62-9.28,9.68-9.28,5.85,0,9.48,3.43,9.48,8.87s-3.83,9.68-9.68,9.68c-6.86,0-9.48-5.04-9.48-9.28"/></g><g class="aj"><path d="M347.08,327.83l-.2-9.88h0c.4,.4,3.03,3.43,5.65,6.05,2.42,2.42,5.45,5.45,6.86,6.86,.2,.2,.61,.61,.81,.61s.4-.2,.4-.81l.2-14.92c0-1.41,.2-1.82,.81-2.02h.81c.2,0,.4,0,.4-.2s-.2-.2-.61-.2h-5.04c-.4,0-.61,0-.61,.2s0,.2,.4,.2,.81,0,1.21,.2c.61,.2,.81,.61,.81,2.22l.2,10.69h-.2c-.4-.4-3.63-3.83-5.24-5.45-3.43-3.43-7.06-7.26-7.26-7.66-.4-.4-.61-.81-.81-.81s-.4,.4-.4,.81l-.2,13.92c0,2.02-.2,2.82-.81,3.03-.4,0-.81,.2-1.01,.2s-.4,0-.4,.2,.2,.2,.61,.2h5.45c.4,0,.61,0,.61-.2s-.2-.2-.4-.2c-.4,0-.81,0-1.21-.2-.4-.4-.81-1.01-.81-2.82"/></g><g class="ai"><path d="M386.21,323.59h0l-2.02-6.05s0-.2-.2-.2l-.2,.2-2.22,5.85v.2h4.64Zm-4.84,1.21q-.2,0-.2,.2l-1.21,3.43c-.2,.61-.4,1.21-.4,1.41,0,.4,.2,.81,1.01,.81h.4c.2,0,.4,0,.4,.2s-.2,.2-.4,.2h-5.24q-.4,0-.4-.2t.2-.2h.81c1.01-.2,1.61-1.01,2.02-2.22l5.85-14.72c.2-.61,.4-1.01,.61-1.01s.4,.2,.61,.81c.61,1.21,4.24,10.89,5.85,14.52,.81,2.22,1.61,2.42,2.02,2.62h1.01c.2,0,.4,0,.4,.2s-.2,.2-1.01,.2h-4.44c-.4,0-.61,0-.61-.2s0-.2,.4-.2c.2,0,.4-.2,.2-.61l-1.82-5.04c0-.2-.2-.2-.2-.2h-5.85Z"/></g><g class="ah"><path d="M411.82,324.2v-9.28c0-.81,.2-1.21,.81-1.41h1.01c.2,0,.4,0,.4-.2s-.2-.2-.4-.2h-6.45c-.4,0-.61,0-.61,.2s.2,.2,.4,.2h.81c.81,.2,1.01,.61,1.01,1.41v9.28c0,2.22,0,4.03-.2,5.04,0,.61-.2,1.21-.61,1.21h-.81c-.2,0-.4,0-.4,.2s.2,.2,.4,.2h3.03c1.82,0,3.43,.2,6.86,.2,1.21,0,1.41-.2,1.41-.61,.2-.61,.4-2.42,.4-2.62s0-.4-.2-.4-.2,.2-.2,.4c0,.4-.4,1.21-.61,1.41-.61,.61-1.41,.61-2.82,.61-1.82,0-2.42-.2-2.82-.61-.4-.4-.4-2.02-.4-5.04"/></g><g class="at"><path d="M378.54,282.45c1.41,.2,2.22,.2,3.43,.2,7.46,0,11.7-3.03,11.7-11.5,0-7.87-4.03-12.91-9.88-12.91-2.02,0-3.83,.4-5.24,1.01v23.19Zm0,2.82v13.51l6.45,2.22v1.82h-17.35v-1.82l5.24-2.22v-39.33l-5.24-1.82v-1.61l10.89-2.62v4.24c3.63-2.22,7.66-3.63,9.48-3.63,6.66,0,11.7,6.66,11.7,15.13,0,10.69-9.48,16.54-17.14,16.54-1.41,0-2.82,0-4.03-.4"/></g><g class="as"><path d="M412.43,257.44h9.08v-3.03h-9.08v-5.04c0-3.63,.81-6.05,2.42-7.46,1.41-1.21,3.63-2.02,5.45-2.02h.81l1.61,4.24h3.83v-5.85c-1.61-.61-3.63-1.01-6.25-1.01-8.27,0-13.71,5.04-13.71,13.11v4.03h-5.04v3.03h5.04v24l-5.04,2.42v1.61h16.94v-1.61l-6.25-2.42v-24h.2Z"/></g><g class="ar"><path d="M85.7,284.06l.61,.2,3.83,.81c2.82,.61,5.85,1.21,8.07,1.21,8.67,0,14.12-5.04,14.12-12.71,0-2.62-.61-5.04-2.02-7.06-1.21-2.02-1.82-2.42-6.05-5.24l-7.06-4.64c-4.64-3.03-5.65-4.44-5.65-7.66,0-4.64,3.23-6.66,9.88-6.66,1.21,0,1.61,0,3.23,.2h.61l3.23,8.27h2.42v-9.88l-1.01-.2-2.82-.61c-.81-.2-2.02-.4-3.43-.61-1.82-.2-3.83-.4-5.04-.4-7.66,0-12.71,4.84-12.71,12.3,0,2.22,.4,4.03,1.61,5.85,1.21,2.02,2.42,3.23,5.85,5.45l6.45,4.44c4.64,3.23,5.65,4.64,5.65,8.07,0,4.84-3.23,7.46-9.48,7.46-1.82,0-3.23,0-4.84-.4l-3.03-8.47h-2.42v10.29Z"/></g><g class="aq"><path d="M139.75,255.02c-2.82-1.01-5.04-1.41-7.46-1.41-9.68,0-16.13,6.86-16.13,17.14,0,9.08,5.24,15.53,12.71,15.53,2.22,0,4.64-.4,7.46-1.41l3.03-1.01,.61-.2-.4-2.22-.61,.2c-3.23,.61-4.03,.61-5.85,.61-3.83,0-6.25-1.01-8.47-3.63-1.82-2.42-2.82-5.65-2.82-9.48,0-7.66,4.44-13.51,10.29-13.51h1.21l2.62,5.85h3.63v-6.45h.2Z"/></g><g class="ap"><path d="M142.98,285.68h14.72v-1.82l-4.44-2.42v-22.59c1.21-.4,3.63-.81,5.45-.81,5.04,0,7.26,2.42,7.26,8.07v15.13l-4.64,2.42v1.82h14.92v-1.82l-5.04-2.42v-16.74c0-6.66-3.23-11.09-8.27-11.09-2.02,0-4.64,1.01-8.87,3.43l-.81,.4v-21.58l-10.69,2.82v1.61l5.24,1.82v39.53l-5.04,2.42v1.82h.2Z"/></g><g class="aa"><path d="M198.24,264.1l6.86,21.58h2.82l10.49-27.63,3.63-2.22v-1.61h-12.1v1.61l4.44,2.22-6.45,19.77v-.61c-.4-1.82-.61-2.22-1.01-3.43l-6.45-19.36h-1.82l-8.27,23.4-.2-1.01-.61-1.61-.61-1.82-5.04-15.53,4.64-1.82v-1.61h-14.32v1.61l3.83,1.82,9.88,27.83h2.62l7.66-21.58Z"/></g><g class="a`"><path d="M238.37,270.75c-2.22,.2-4.03,.61-6.25,1.21-2.82,.81-4.03,2.22-4.03,5.04,0,3.23,2.22,5.24,5.65,5.24,.81,0,1.61,0,2.22-.2,.2,0,.81-.2,2.02-.4q.2,0,.4-.2v-10.69Zm-13.71-8.67v-6.05c4.44-1.41,7.66-2.22,10.49-2.22,5.85,0,8.67,2.62,8.67,7.87v17.35c0,1.61,.2,1.82,1.61,2.42l3.43,1.01v1.41l-4.24,1.61c-.61,.2-1.61,.4-2.42,.4h-.2c-1.82,0-2.82-1.01-3.23-3.23l-.81,.61-2.02,1.01c-1.41,.81-2.42,1.21-2.62,1.21-.81,.4-1.82,.4-3.03,.4-4.84,0-8.27-3.23-8.27-7.87,0-4.03,2.22-6.45,6.25-7.46,2.42-.61,5.85-1.21,10.08-1.61v-7.06c0-4.03-1.41-5.45-6.05-5.45-.61,0-.81,0-1.61,.2l-2.42,5.45h-3.63Z"/></g><g class="y"><path d="M251.28,285.68h16.54v-1.61l-6.25-2.42v-22.79c1.41-.61,3.03-1.01,4.44-1.01h1.41l1.82,3.83h4.03v-7.26c-1.01-.61-2.02-1.01-3.03-1.01-1.61,0-4.44,1.21-8.27,3.43l-.4,.4v-4.24l-10.49,2.62v1.61l5.04,1.61v22.79l-5.04,2.42v1.61h.2Z"/></g></g><polygon points="275.89 285.68 299.89 285.68 299.89 275.99 297.87 275.99 294.64 282.85 282.95 282.85 299.89 256.43 299.89 254.41 277.1 254.41 277.1 263.29 279.11 263.29 282.14 257.44 292.63 257.44 275.89 283.46 275.89 285.68"/><path d="M320.06,266.92l11.29,15.53,4.44,2.02v1.61h-9.08l-12.1-17.14,10.29-11.09-4.03-1.82v-1.61h13.92v1.61l-5.85,2.02-8.87,8.87Zm-16.94,18.96v-1.61l5.04-2.22v-40.74l-5.45-1.82v-1.41l10.69-2.62v46.39l5.04,2.22v1.61h-15.33v.2Z"/><g class="ab"><path d="M342.64,269.54c0,8.87,3.43,14.12,8.87,14.12s8.27-4.64,8.27-12.71c0-9.28-3.23-14.52-8.87-14.52-5.24-.2-8.27,4.64-8.27,13.11m-6.45,1.01c0-10.29,6.25-17.14,15.33-17.14s14.72,6.45,14.72,15.93-6.45,17.14-15.53,17.14c-8.47,0-14.52-6.66-14.52-15.93"/></g></svg>