<?xml version="1.0" encoding="UTF-8"?><svg xmlns="http://www.w3.org/2000/svg" viewBox="0 0 500 500"><g id="a"><path d="M59,227h56.83v12.57h-18.04c-1.54,0-2.79,1.25-2.79,2.79v34.64h-14v-33.9c0-1.71-1.39-3.1-3.1-3.1h-18.9v-13Z"/><path d="M121,241.5v20.22c0,3.87,1.54,7.57,4.27,10.31l.87,.87c2.59,2.59,6.11,4.05,9.78,4.05h39.36v-11.45h-35.77c-.96,0-1.89-.38-2.95-.85l-1.54-1.54c-1-1.59-1.77-3.45-1.77-5.39v-.71h41.75v-10.71h-40.56c-.6,0-.79-.8-.44-1.29l.47-2.1c.79-2.8,3.29-4.88,6.2-4.9h34.61v-11h-38.13c-3.94,0-7.74,1.46-10.68,4.09l-1.38,1.24c-2.6,2.34-4.09,5.67-4.09,9.17Z"/><path d="M180.34,227v11.03h45.16c.62,0,1.22,.25,1.66,.69h0c1.51,1.51,1.82,3.85,.75,5.7h0c-.56,.98-1.61,1.58-2.73,1.58h-44.83v30.95h14.09v-19.95h17.06c.96,0,1.87,.41,2.51,1.13l31,34.87h19.89l-33.89-35,6.65-1.48c1.51-.34,2.86-1.2,3.79-2.44h0c1.01-1.35,1.56-2.99,1.56-4.67v-14.79c0-1.05-.31-2.08-.89-2.95h0c-.73-1.1-1.65-2.05-2.73-2.82l-1.12-.8c-.94-.67-2.06-1.03-3.21-1.03h-54.7Z"/><path d="M252,239.73v37.21h13.55v-31.79c0-1.26,1.66-1.72,2.31-.64l17.89,29.77c.99,1.65,2.78,2.66,4.71,2.66h8.2c1.72,0,3.31-.92,4.16-2.42l17.13-30.05c.57-.96,2.05-.56,2.05,.56v31.91h14.78v-38.51c0-1-.08-1.99-.26-2.97-.39-2.13,.24-3.78-3.53-6.47-.21-.15,.18,.18,0,0l-2-1c-5.98-1.73-14-2-16,2l-19.09,31.06c-1.09,1-2.52,.95-2.9-.1l-19.01-30.96c-3.13-4.16-12.45-4.15-16.41-.77l-1.23,1.05c-2.77,2.36-4.36,5.82-4.36,9.45Z"/><rect x="342.73" y="227" width="14.09" height="49.95"/><path d="M362.43,227h17.39l17.17,19,18.5-19h18.17l-21.15,22.64c-1.22,1.31-1.19,3.34,.06,4.61l22.41,22.7h-21.03l-16.96-17.95-17.06,17.95h-20.59l23.75-22.74c1.36-1.3,1.42-3.45,.14-4.82l-20.81-22.38Z"/></g><g id="b"/></svg>