<?xml version="1.0" encoding="UTF-8" standalone="no"?>
<!DOCTYPE svg PUBLIC "-//W3C//DTD SVG 1.1//EN" "http://www.w3.org/Graphics/SVG/1.1/DTD/svg11.dtd">
<svg xmlns="http://www.w3.org/2000/svg" version="1.1" viewBox="0.00 0.00 225.00 225.00" width="225.00" height="225.00">
<g stroke-width="2.00" fill="none" stroke-linecap="butt">
<path stroke="#818181" vector-effect="non-scaling-stroke" d="
  M 21.84 108.08
  C 23.36 104.46 27.60 101.29 31.60 103.35
  Q 34.14 104.66 35.42 106.94
  Q 35.70 107.43 36.20 107.17
  L 42.13 104.10
  A 0.55 0.55 0.0 0 0 42.35 103.33
  C 37.43 95.39 27.95 92.31 19.99 97.81
  Q 12.53 102.98 12.54 112.71
  C 12.57 129.61 32.64 136.94 42.32 122.04
  A 0.58 0.58 0.0 0 0 42.09 121.20
  L 36.26 118.31
  Q 35.76 118.06 35.48 118.55
  C 32.80 123.44 27.15 124.68 23.44 120.32
  C 20.64 117.02 20.23 111.88 21.84 108.08"
/>
<path stroke="#818181" vector-effect="non-scaling-stroke" d="
  M 174.82 122.89
  C 169.78 123.37 166.60 118.68 166.23 114.06
  Q 165.74 108.07 169.46 104.77
  Q 174.53 100.28 179.40 105.26
  Q 180.15 106.03 180.64 106.93
  Q 180.90 107.41 181.38 107.16
  L 187.30 104.13
  A 0.69 0.68 -30.1 0 0 187.57 103.15
  C 182.12 94.70 171.99 92.22 163.97 98.73
  C 154.84 106.14 155.89 121.50 165.56 127.54
  Q 171.32 131.13 177.23 129.73
  Q 183.83 128.17 187.75 121.58
  Q 187.84 121.43 187.68 121.35
  L 181.43 118.26
  Q 181.00 118.05 180.79 118.48
  Q 178.80 122.50 174.82 122.89"
/>
<path stroke="#818181" vector-effect="non-scaling-stroke" d="
  M 10.69 95.50
  Q 9.05 95.18 8.19 96.67
  C 5.59 101.11 11.28 105.53 14.50 101.23
  Q 15.96 99.28 14.66 97.07
  Q 13.41 94.95 11.33 95.48
  Q 11.01 95.56 10.69 95.50"
/>
<path stroke="#818181" vector-effect="non-scaling-stroke" d="
  M 66.81 115.48
  A 0.39 0.39 0.0 0 1 67.20 115.87
  L 67.27 128.51
  A 0.39 0.39 0.0 0 0 67.66 128.90
  L 74.14 128.95
  A 0.39 0.39 0.0 0 0 74.53 128.56
  L 74.60 96.65
  A 0.39 0.39 0.0 0 0 74.21 96.26
  L 67.59 96.26
  A 0.39 0.39 0.0 0 0 67.20 96.65
  L 67.24 108.03
  A 0.39 0.39 0.0 0 1 66.85 108.42
  L 55.06 108.43
  A 0.39 0.39 0.0 0 1 54.67 108.04
  L 54.67 96.65
  A 0.39 0.39 0.0 0 0 54.28 96.26
  L 47.36 96.29
  A 0.39 0.39 0.0 0 0 46.97 96.68
  L 46.96 128.58
  A 0.39 0.39 0.0 0 0 47.35 128.97
  L 54.27 129.00
  A 0.39 0.39 0.0 0 0 54.66 128.61
  L 54.70 115.81
  A 0.39 0.39 0.0 0 1 55.09 115.42
  L 66.81 115.48"
/>
<path stroke="#818181" vector-effect="non-scaling-stroke" d="
  M 89.22 108.67
  A 0.32 0.32 0.0 0 1 88.90 108.35
  L 88.84 102.84
  A 0.32 0.32 0.0 0 1 89.16 102.52
  L 105.79 102.49
  A 0.32 0.32 0.0 0 0 106.11 102.17
  L 106.04 96.60
  A 0.32 0.32 0.0 0 0 105.72 96.28
  L 81.25 96.26
  A 0.32 0.32 0.0 0 0 80.93 96.58
  L 80.96 128.69
  A 0.32 0.32 0.0 0 0 81.28 129.01
  L 106.34 128.99
  A 0.32 0.32 0.0 0 0 106.66 128.67
  L 106.75 122.85
  A 0.32 0.32 0.0 0 0 106.43 122.53
  L 89.15 122.53
  A 0.32 0.32 0.0 0 1 88.83 122.21
  L 88.93 115.24
  A 0.32 0.32 0.0 0 1 89.24 114.93
  L 104.36 114.88
  A 0.32 0.32 0.0 0 0 104.68 114.56
  L 104.70 108.98
  A 0.32 0.32 0.0 0 0 104.38 108.66
  L 89.22 108.67"
/>
<path stroke="#818181" vector-effect="non-scaling-stroke" d="
  M 118.28 128.97
  A 0.33 0.33 0.0 0 0 118.61 128.64
  L 118.60 109.45
  A 0.33 0.33 0.0 0 1 119.22 109.28
  L 130.69 128.86
  A 0.33 0.33 0.0 0 0 130.98 129.02
  L 138.42 128.96
  A 0.33 0.33 0.0 0 0 138.75 128.63
  L 138.78 96.59
  A 0.33 0.33 0.0 0 0 138.45 96.26
  L 132.02 96.29
  A 0.33 0.33 0.0 0 0 131.69 96.62
  L 131.72 116.20
  A 0.33 0.33 0.0 0 1 131.10 116.37
  L 119.46 96.46
  A 0.33 0.33 0.0 0 0 119.17 96.30
  L 111.81 96.26
  A 0.33 0.33 0.0 0 0 111.48 96.59
  L 111.49 128.71
  A 0.33 0.33 0.0 0 0 111.82 129.04
  L 118.28 128.97"
/>
<path stroke="#818181" vector-effect="non-scaling-stroke" d="
  M 152.83 96.62
  A 0.34 0.34 0.0 0 0 152.49 96.28
  L 145.59 96.28
  A 0.34 0.34 0.0 0 0 145.25 96.62
  L 145.25 128.64
  A 0.34 0.34 0.0 0 0 145.59 128.98
  L 152.49 128.98
  A 0.34 0.34 0.0 0 0 152.83 128.64
  L 152.83 96.62"
/>
<path stroke="#818181" vector-effect="non-scaling-stroke" d="
  M 200.24 102.51
  L 216.55 102.50
  A 0.43 0.42 -5.1 0 0 216.97 102.00
  Q 216.54 99.51 216.97 96.80
  A 0.46 0.46 0.0 0 0 216.51 96.27
  L 192.26 96.27
  Q 191.78 96.27 191.78 96.74
  L 191.78 128.74
  A 0.30 0.29 -0.0 0 0 192.08 129.03
  L 217.32 128.99
  A 0.24 0.23 -1.3 0 0 217.55 128.76
  L 217.61 122.81
  Q 217.61 122.53 217.33 122.53
  L 200.26 122.53
  A 0.52 0.52 0.0 0 1 199.74 122.01
  L 199.73 115.54
  Q 199.73 114.94 200.33 114.94
  L 215.27 114.89
  Q 215.68 114.88 215.68 114.48
  L 215.73 109.19
  Q 215.73 108.66 215.19 108.66
  L 200.34 108.69
  Q 199.73 108.69 199.73 108.09
  L 199.73 103.01
  Q 199.73 102.51 200.24 102.51"
/>
<path stroke="#818181" vector-effect="non-scaling-stroke" d="
  M 9.55 100.38
  Q 9.64 99.26 9.42 98.28
  Q 9.29 97.72 9.66 97.23
  Q 9.94 96.86 10.39 96.72
  Q 10.79 96.60 10.66 96.20
  L 10.58 95.94
  Q 10.53 95.81 10.40 95.85
  C 6.04 97.41 8.30 103.27 12.24 102.38
  A 0.84 0.84 0.0 0 0 12.66 100.98
  Q 11.66 99.94 11.93 98.62
  Q 12.05 98.03 11.78 97.49
  Q 11.48 96.88 12.06 96.84
  A 0.64 0.64 0.0 0 1 12.75 97.41
  L 13.14 101.20
  A 0.30 0.30 0.0 0 0 13.68 101.35
  Q 15.92 98.44 13.10 96.23
  A 1.29 1.27 63.9 0 0 12.36 95.97
  Q 10.92 95.95 10.68 97.70
  A 1.58 1.52 40.1 0 0 10.75 98.37
  Q 11.21 99.75 10.21 100.70
  Q 9.46 101.41 9.55 100.38"
/>
</g>
<path fill="#ffffff" d="
  M 0.00 0.00
  L 225.00 0.00
  L 225.00 225.00
  L 0.00 225.00
  L 0.00 0.00
  Z
  M 21.84 108.08
  C 23.36 104.46 27.60 101.29 31.60 103.35
  Q 34.14 104.66 35.42 106.94
  Q 35.70 107.43 36.20 107.17
  L 42.13 104.10
  A 0.55 0.55 0.0 0 0 42.35 103.33
  C 37.43 95.39 27.95 92.31 19.99 97.81
  Q 12.53 102.98 12.54 112.71
  C 12.57 129.61 32.64 136.94 42.32 122.04
  A 0.58 0.58 0.0 0 0 42.09 121.20
  L 36.26 118.31
  Q 35.76 118.06 35.48 118.55
  C 32.80 123.44 27.15 124.68 23.44 120.32
  C 20.64 117.02 20.23 111.88 21.84 108.08
  Z
  M 174.82 122.89
  C 169.78 123.37 166.60 118.68 166.23 114.06
  Q 165.74 108.07 169.46 104.77
  Q 174.53 100.28 179.40 105.26
  Q 180.15 106.03 180.64 106.93
  Q 180.90 107.41 181.38 107.16
  L 187.30 104.13
  A 0.69 0.68 -30.1 0 0 187.57 103.15
  C 182.12 94.70 171.99 92.22 163.97 98.73
  C 154.84 106.14 155.89 121.50 165.56 127.54
  Q 171.32 131.13 177.23 129.73
  Q 183.83 128.17 187.75 121.58
  Q 187.84 121.43 187.68 121.35
  L 181.43 118.26
  Q 181.00 118.05 180.79 118.48
  Q 178.80 122.50 174.82 122.89
  Z
  M 10.69 95.50
  Q 9.05 95.18 8.19 96.67
  C 5.59 101.11 11.28 105.53 14.50 101.23
  Q 15.96 99.28 14.66 97.07
  Q 13.41 94.95 11.33 95.48
  Q 11.01 95.56 10.69 95.50
  Z
  M 66.81 115.48
  A 0.39 0.39 0.0 0 1 67.20 115.87
  L 67.27 128.51
  A 0.39 0.39 0.0 0 0 67.66 128.90
  L 74.14 128.95
  A 0.39 0.39 0.0 0 0 74.53 128.56
  L 74.60 96.65
  A 0.39 0.39 0.0 0 0 74.21 96.26
  L 67.59 96.26
  A 0.39 0.39 0.0 0 0 67.20 96.65
  L 67.24 108.03
  A 0.39 0.39 0.0 0 1 66.85 108.42
  L 55.06 108.43
  A 0.39 0.39 0.0 0 1 54.67 108.04
  L 54.67 96.65
  A 0.39 0.39 0.0 0 0 54.28 96.26
  L 47.36 96.29
  A 0.39 0.39 0.0 0 0 46.97 96.68
  L 46.96 128.58
  A 0.39 0.39 0.0 0 0 47.35 128.97
  L 54.27 129.00
  A 0.39 0.39 0.0 0 0 54.66 128.61
  L 54.70 115.81
  A 0.39 0.39 0.0 0 1 55.09 115.42
  L 66.81 115.48
  Z
  M 89.22 108.67
  A 0.32 0.32 0.0 0 1 88.90 108.35
  L 88.84 102.84
  A 0.32 0.32 0.0 0 1 89.16 102.52
  L 105.79 102.49
  A 0.32 0.32 0.0 0 0 106.11 102.17
  L 106.04 96.60
  A 0.32 0.32 0.0 0 0 105.72 96.28
  L 81.25 96.26
  A 0.32 0.32 0.0 0 0 80.93 96.58
  L 80.96 128.69
  A 0.32 0.32 0.0 0 0 81.28 129.01
  L 106.34 128.99
  A 0.32 0.32 0.0 0 0 106.66 128.67
  L 106.75 122.85
  A 0.32 0.32 0.0 0 0 106.43 122.53
  L 89.15 122.53
  A 0.32 0.32 0.0 0 1 88.83 122.21
  L 88.93 115.24
  A 0.32 0.32 0.0 0 1 89.24 114.93
  L 104.36 114.88
  A 0.32 0.32 0.0 0 0 104.68 114.56
  L 104.70 108.98
  A 0.32 0.32 0.0 0 0 104.38 108.66
  L 89.22 108.67
  Z
  M 118.28 128.97
  A 0.33 0.33 0.0 0 0 118.61 128.64
  L 118.60 109.45
  A 0.33 0.33 0.0 0 1 119.22 109.28
  L 130.69 128.86
  A 0.33 0.33 0.0 0 0 130.98 129.02
  L 138.42 128.96
  A 0.33 0.33 0.0 0 0 138.75 128.63
  L 138.78 96.59
  A 0.33 0.33 0.0 0 0 138.45 96.26
  L 132.02 96.29
  A 0.33 0.33 0.0 0 0 131.69 96.62
  L 131.72 116.20
  A 0.33 0.33 0.0 0 1 131.10 116.37
  L 119.46 96.46
  A 0.33 0.33 0.0 0 0 119.17 96.30
  L 111.81 96.26
  A 0.33 0.33 0.0 0 0 111.48 96.59
  L 111.49 128.71
  A 0.33 0.33 0.0 0 0 111.82 129.04
  L 118.28 128.97
  Z
  M 152.83 96.62
  A 0.34 0.34 0.0 0 0 152.49 96.28
  L 145.59 96.28
  A 0.34 0.34 0.0 0 0 145.25 96.62
  L 145.25 128.64
  A 0.34 0.34 0.0 0 0 145.59 128.98
  L 152.49 128.98
  A 0.34 0.34 0.0 0 0 152.83 128.64
  L 152.83 96.62
  Z
  M 200.24 102.51
  L 216.55 102.50
  A 0.43 0.42 -5.1 0 0 216.97 102.00
  Q 216.54 99.51 216.97 96.80
  A 0.46 0.46 0.0 0 0 216.51 96.27
  L 192.26 96.27
  Q 191.78 96.27 191.78 96.74
  L 191.78 128.74
  A 0.30 0.29 -0.0 0 0 192.08 129.03
  L 217.32 128.99
  A 0.24 0.23 -1.3 0 0 217.55 128.76
  L 217.61 122.81
  Q 217.61 122.53 217.33 122.53
  L 200.26 122.53
  A 0.52 0.52 0.0 0 1 199.74 122.01
  L 199.73 115.54
  Q 199.73 114.94 200.33 114.94
  L 215.27 114.89
  Q 215.68 114.88 215.68 114.48
  L 215.73 109.19
  Q 215.73 108.66 215.19 108.66
  L 200.34 108.69
  Q 199.73 108.69 199.73 108.09
  L 199.73 103.01
  Q 199.73 102.51 200.24 102.51
  Z"
/>
<path fill="#020202" d="
  M 21.84 108.08
  C 20.23 111.88 20.64 117.02 23.44 120.32
  C 27.15 124.68 32.80 123.44 35.48 118.55
  Q 35.76 118.06 36.26 118.31
  L 42.09 121.20
  A 0.58 0.58 0.0 0 1 42.32 122.04
  C 32.64 136.94 12.57 129.61 12.54 112.71
  Q 12.53 102.98 19.99 97.81
  C 27.95 92.31 37.43 95.39 42.35 103.33
  A 0.55 0.55 0.0 0 1 42.13 104.10
  L 36.20 107.17
  Q 35.70 107.43 35.42 106.94
  Q 34.14 104.66 31.60 103.35
  C 27.60 101.29 23.36 104.46 21.84 108.08
  Z"
/>
<path fill="#020202" d="
  M 174.82 122.89
  Q 178.80 122.50 180.79 118.48
  Q 181.00 118.05 181.43 118.26
  L 187.68 121.35
  Q 187.84 121.43 187.75 121.58
  Q 183.83 128.17 177.23 129.73
  Q 171.32 131.13 165.56 127.54
  C 155.89 121.50 154.84 106.14 163.97 98.73
  C 171.99 92.22 182.12 94.70 187.57 103.15
  A 0.69 0.68 -30.1 0 1 187.30 104.13
  L 181.38 107.16
  Q 180.90 107.41 180.64 106.93
  Q 180.15 106.03 179.40 105.26
  Q 174.53 100.28 169.46 104.77
  Q 165.74 108.07 166.23 114.06
  C 166.60 118.68 169.78 123.37 174.82 122.89
  Z"
/>
<path fill="#020202" d="
  M 11.33 95.48
  Q 13.41 94.95 14.66 97.07
  Q 15.96 99.28 14.50 101.23
  C 11.28 105.53 5.59 101.11 8.19 96.67
  Q 9.05 95.18 10.69 95.50
  Q 11.01 95.56 11.33 95.48
  Z
  M 9.55 100.38
  Q 9.64 99.26 9.42 98.28
  Q 9.29 97.72 9.66 97.23
  Q 9.94 96.86 10.39 96.72
  Q 10.79 96.60 10.66 96.20
  L 10.58 95.94
  Q 10.53 95.81 10.40 95.85
  C 6.04 97.41 8.30 103.27 12.24 102.38
  A 0.84 0.84 0.0 0 0 12.66 100.98
  Q 11.66 99.94 11.93 98.62
  Q 12.05 98.03 11.78 97.49
  Q 11.48 96.88 12.06 96.84
  A 0.64 0.64 0.0 0 1 12.75 97.41
  L 13.14 101.20
  A 0.30 0.30 0.0 0 0 13.68 101.35
  Q 15.92 98.44 13.10 96.23
  A 1.29 1.27 63.9 0 0 12.36 95.97
  Q 10.92 95.95 10.68 97.70
  A 1.58 1.52 40.1 0 0 10.75 98.37
  Q 11.21 99.75 10.21 100.70
  Q 9.46 101.41 9.55 100.38
  Z"
/>
<path fill="#ffffff" d="
  M 10.21 100.70
  Q 11.21 99.75 10.75 98.37
  A 1.58 1.52 40.1 0 1 10.68 97.70
  Q 10.92 95.95 12.36 95.97
  A 1.29 1.27 63.9 0 1 13.10 96.23
  Q 15.92 98.44 13.68 101.35
  A 0.30 0.30 0.0 0 1 13.14 101.20
  L 12.75 97.41
  A 0.64 0.64 0.0 0 0 12.06 96.84
  Q 11.48 96.88 11.78 97.49
  Q 12.05 98.03 11.93 98.62
  Q 11.66 99.94 12.66 100.98
  A 0.84 0.84 0.0 0 1 12.24 102.38
  C 8.30 103.27 6.04 97.41 10.40 95.85
  Q 10.53 95.81 10.58 95.94
  L 10.66 96.20
  Q 10.79 96.60 10.39 96.72
  Q 9.94 96.86 9.66 97.23
  Q 9.29 97.72 9.42 98.28
  Q 9.64 99.26 9.55 100.38
  Q 9.46 101.41 10.21 100.70
  Z"
/>
<path fill="#020202" d="
  M 66.81 115.48
  L 55.09 115.42
  A 0.39 0.39 0.0 0 0 54.70 115.81
  L 54.66 128.61
  A 0.39 0.39 0.0 0 1 54.27 129.00
  L 47.35 128.97
  A 0.39 0.39 0.0 0 1 46.96 128.58
  L 46.97 96.68
  A 0.39 0.39 0.0 0 1 47.36 96.29
  L 54.28 96.26
  A 0.39 0.39 0.0 0 1 54.67 96.65
  L 54.67 108.04
  A 0.39 0.39 0.0 0 0 55.06 108.43
  L 66.85 108.42
  A 0.39 0.39 0.0 0 0 67.24 108.03
  L 67.20 96.65
  A 0.39 0.39 0.0 0 1 67.59 96.26
  L 74.21 96.26
  A 0.39 0.39 0.0 0 1 74.60 96.65
  L 74.53 128.56
  A 0.39 0.39 0.0 0 1 74.14 128.95
  L 67.66 128.90
  A 0.39 0.39 0.0 0 1 67.27 128.51
  L 67.20 115.87
  A 0.39 0.39 0.0 0 0 66.81 115.48
  Z"
/>
<path fill="#020202" d="
  M 89.22 108.67
  L 104.38 108.66
  A 0.32 0.32 0.0 0 1 104.70 108.98
  L 104.68 114.56
  A 0.32 0.32 0.0 0 1 104.36 114.88
  L 89.24 114.93
  A 0.32 0.32 0.0 0 0 88.93 115.24
  L 88.83 122.21
  A 0.32 0.32 0.0 0 0 89.15 122.53
  L 106.43 122.53
  A 0.32 0.32 0.0 0 1 106.75 122.85
  L 106.66 128.67
  A 0.32 0.32 0.0 0 1 106.34 128.99
  L 81.28 129.01
  A 0.32 0.32 0.0 0 1 80.96 128.69
  L 80.93 96.58
  A 0.32 0.32 0.0 0 1 81.25 96.26
  L 105.72 96.28
  A 0.32 0.32 0.0 0 1 106.04 96.60
  L 106.11 102.17
  A 0.32 0.32 0.0 0 1 105.79 102.49
  L 89.16 102.52
  A 0.32 0.32 0.0 0 0 88.84 102.84
  L 88.90 108.35
  A 0.32 0.32 0.0 0 0 89.22 108.67
  Z"
/>
<path fill="#020202" d="
  M 118.28 128.97
  L 111.82 129.04
  A 0.33 0.33 0.0 0 1 111.49 128.71
  L 111.48 96.59
  A 0.33 0.33 0.0 0 1 111.81 96.26
  L 119.17 96.30
  A 0.33 0.33 0.0 0 1 119.46 96.46
  L 131.10 116.37
  A 0.33 0.33 0.0 0 0 131.72 116.20
  L 131.69 96.62
  A 0.33 0.33 0.0 0 1 132.02 96.29
  L 138.45 96.26
  A 0.33 0.33 0.0 0 1 138.78 96.59
  L 138.75 128.63
  A 0.33 0.33 0.0 0 1 138.42 128.96
  L 130.98 129.02
  A 0.33 0.33 0.0 0 1 130.69 128.86
  L 119.22 109.28
  A 0.33 0.33 0.0 0 0 118.60 109.45
  L 118.61 128.64
  A 0.33 0.33 0.0 0 1 118.28 128.97
  Z"
/>
<rect fill="#020202" x="145.25" y="96.28" width="7.58" height="32.70" rx="0.34"/>
<path fill="#020202" d="
  M 200.24 102.51
  Q 199.73 102.51 199.73 103.01
  L 199.73 108.09
  Q 199.73 108.69 200.34 108.69
  L 215.19 108.66
  Q 215.73 108.66 215.73 109.19
  L 215.68 114.48
  Q 215.68 114.88 215.27 114.89
  L 200.33 114.94
  Q 199.73 114.94 199.73 115.54
  L 199.74 122.01
  A 0.52 0.52 0.0 0 0 200.26 122.53
  L 217.33 122.53
  Q 217.61 122.53 217.61 122.81
  L 217.55 128.76
  A 0.24 0.23 -1.3 0 1 217.32 128.99
  L 192.08 129.03
  A 0.30 0.29 -0.0 0 1 191.78 128.74
  L 191.78 96.74
  Q 191.78 96.27 192.26 96.27
  L 216.51 96.27
  A 0.46 0.46 0.0 0 1 216.97 96.80
  Q 216.54 99.51 216.97 102.00
  A 0.43 0.42 -5.1 0 1 216.55 102.50
  L 200.24 102.51
  Z"
/>
</svg>
