<?xml version="1.0" encoding="UTF-8"?><svg id="a" xmlns="http://www.w3.org/2000/svg" viewBox="0 0 500 500"><defs><style>.b{fill:#fff;}.c{stroke:#000;stroke-width:5px;}.c,.d{fill:none;stroke-miterlimit:10;}.d{stroke:#fff;stroke-width:2px;}</style></defs><rect x="83" y="228" width="7.29" height="46.58"/><polygon points="92 245 97 249 118.03 228 109.77 228 92 245"/><polygon points="96 252 95.56 252.44 91 257 110.87 274.58 119 275 96 252"/><polygon points="125.08 228 131.13 228 131.13 274.03 125.08 274.58 125.08 228"/><polygon points="132.23 228 132.23 234.62 154.25 234.62 154.25 228.34 132.23 228"/><polygon points="131.98 247.23 131.98 253.84 154 253.84 154 247.57 131.98 247.23"/><polygon points="131.98 267.23 131.98 273.84 154 273.84 154 267.57 131.98 267.23"/><path d="M162.07,228v6.62h16.84c.29-.01,.71-.02,1.21,0,1.71,.08,5.11,.23,6.88,2.38,1.79,2.18,1.34,5.69,0,8-1.84,3.16-5.26,3.87-6,4-1.24,.22-2.29,.12-3,0h-15.93v25.58h7.16l-.22-19.58h5l16.03,19.58h7.71l-15.74-19.58c.48-.22,1.18-.56,2-1,2.75-1.48,5.99-3.24,8-6,1.9-2.61,3.18-6.77,2-11-1.85-6.63-8.47-8.83-9-9h-22.93Z"/><path d="M220.66,228h7.43l18.5,46.58h-8.42l-4.17-10.58h-16l2-5h13l-8-22-12.92,37.58s-8.43-.42-8.75,0,17.34-46.58,17.34-46.58Z"/><path d="M260,255l.38,19.58h-7.6l.22-46.58h16.87c.27-.01,.66-.02,1.13,0,3.78,.18,7.74,2.15,10,5,3.46,4.37,3.69,11.25,0,16-3.94,5.07-10.26,5.02-11,5h-10v1Z"/><path class="b" d="M260,234v14.69h11.57c.15,0,.35,.01,.58,0,2.94-.17,6.65-2.93,6.86-6.69,.18-3.34-2.48-5.57-3-6-2.45-2.05-5.27-2.03-6-2h-10Z"/><path d="M289.88,228h20.12c.24-.01,.59-.03,1,0,4.36,.27,8.29,4.06,10,8,2.78,6.4-.63,12.38-1,13-3.31,5.57-9.07,6.81-10,7l15.66,18.58h-9.52l-14.14-18.58h-6v18h-6l-.12-24h16.12c.24,.01,.58,.02,1,0,.26-.02,5.86-.43,8-5,.22-.47,1.7-3.78,0-7-1.57-2.97-5-4-9-4l-16.12-.26v-5.74Z"/><path d="M350,228c1.37-.08,4.01-.07,7,1,4.89,1.75,8.63,5.22,10,7,.68,.88,8.33,12.52,3,25-.77,1.81-4.03,8.77-12,12-2.04,.83-7.06,2.49-13,1-8.3-2.08-14.3-9.3-16-17-1.85-8.4,.91-15.12,2-17,.8-1.38,3.56-5.82,9-9,1.86-1.08,5.8-2.76,10-3Z"/><path class="b" d="M349.91,235.12c.94-.05,2.76-.05,4.83,.69,3.37,1.21,5.95,3.6,6.9,4.83,.47,.61,5.74,8.64,2.07,17.24-.53,1.25-2.78,6.05-8.28,8.28-1.41,.57-4.87,1.72-8.97,.69-5.73-1.44-9.86-6.42-11.03-11.72-1.28-5.79,.63-10.43,1.38-11.72,.55-.95,2.45-4.02,6.21-6.21,1.28-.75,4-1.9,6.9-2.07Z"/><rect x="382" y="228" width="48" height="47"/><rect class="b" x="387" y="236" width="4.72" height="30.49"/><polygon class="b" points="405 236 410.32 236 397 250 394 247 405 236"/><polygon class="b" points="397 252 394 255 404 266 411.04 266 397 252"/><circle class="d" cx="416" cy="251" r="10"/><line class="c" x1="83" y1="286" x2="430" y2="286"/><line class="c" x1="83" y1="295.5" x2="430" y2="295.5"/><line class="c" x1="83" y1="305.5" x2="430" y2="305.5"/></svg>