<?xml version="1.0" encoding="UTF-8"?><svg id="a" xmlns="http://www.w3.org/2000/svg" viewBox="0 0 500 500"><defs><style>.b{fill:#020000;}.c{fill:none;stroke:#020000;stroke-miterlimit:10;stroke-width:10px;}</style></defs><line class="c" x1="38.37" y1="272.44" x2="82.59" y2="271.57"/><line class="c" x1="420.67" y1="273.23" x2="461.25" y2="273.39"/><polygon class="b" points="97.02 314.28 105.83 309.61 108.36 314.28 97.02 314.28"/><rect class="b" x="113" y="309.77" width="9.99" height="4.43"/><polygon class="b" points="347.49 308.62 348.85 314.3 338.31 314.3 337.69 310.44 347.49 308.62"/><path class="b" d="M206.09,224.33c23.73-1.78,46.09,18.2,47.14,42.03,1.6,24.74-19.06,47.5-43.98,47.61-31.13,.51-53.52-32.33-41.76-61.06,6.3-15.63,21.59-27.54,38.59-28.57h0Zm.15,4.28c-21.72-.21-38.92,19.42-37.31,40.71,1.07,20.13,20.09,37.36,40.01,35.63,14.45-.75,27.33-10.96,32.38-24.35,9.9-24.16-8.65-52.22-35.09-51.99h0Z"/><polyline class="c" points="258.68 313.33 274.8 239.99 300.62 300.03 327.03 240.3 342.58 309.53"/><path class="c" d="M350.34,227.24l33.51,47.01c.13,.19,.42,.17,.53-.03l25.94-47.47-46.47,85.05"/><polyline class="c" points="400.02 312.06 420.28 273.82 441.12 234.49 461.25 273.39 481.22 312.11"/><polyline class="c" points="20.13 312.05 41.14 272.29 60.94 234.8 80.51 272.29 101.41 311.94"/><path class="c" d="M117.99,309.77v-80.63c-.13-.4-.34-1.72,0-1.36,.45,.47,11.31-1.5,17.98,1.65s15.67,10.84,15.5,21.34c-.18,11.27-11.22,22.36-26.46,23.1l33.1,37.02"/><polyline class="b" points="255.62 303.28 263.39 314.23 253.15 314.23"/><polyline class="b" points="15.8 309.65 24.63 314.46 13 314.46"/><polygon class="b" points="154.39 314.23 161.82 307.59 167.96 314.4 154.54 314.4 154.39 314.23"/><polygon class="b" points="359.48 309.41 356.54 314.25 368.2 314.31 368.25 314.16 359.48 309.41"/><polygon class="b" points="395.96 309.04 393.26 314.24 404.42 314.4 395.96 309.04"/><polygon class="b" points="476.78 314.4 483.77 306.16 488 314.4 476.78 314.4"/><polygon class="b" points="354.4 224.33 349.78 235.02 342.21 224.46 354.4 224.33"/><polygon class="b" points="405.94 224.36 411.61 234.83 417.24 224.46 405.94 224.36"/></svg>