<?xml version="1.0" encoding="UTF-8"?><svg xmlns="http://www.w3.org/2000/svg" viewBox="0 0 500 500"><defs><style>.c{fill:#1d1d1b;}</style></defs><g id="a"/><g id="b"><polygon class="c" points="59.75 231 59.75 215.73 87.02 247.2 87.02 215.73 92.13 215.73 92.13 246.15 92.13 261.75 64.9 229.44 64.9 261.75 59.75 261.75 59.75 231"/><path class="c" d="M142.95,247.03l-7.57-18.51-7.62,18.51h15.19Zm-7.57-31.3l19.12,46.02h-5.54l-4.09-10h-19.06l-4.12,10h-5.63l19.32-46.02Z"/><polygon class="c" points="177.81 215.73 182.99 215.73 182.99 242.73 208.43 215.73 215.08 215.73 197.68 233.87 216.15 261.75 209.93 261.75 194.23 237.42 182.99 249.05 182.99 261.75 177.81 261.75 177.81 215.73"/><polygon class="c" points="271.77 215.73 276.95 215.73 276.95 236.54 300.17 236.54 300.17 215.73 305.35 215.73 305.35 261.75 300.17 261.75 300.17 240.87 276.95 240.87 276.95 261.75 271.77 261.75 271.77 215.73"/><rect class="c" x="391.11" y="215.73" width="5.18" height="46.02"/><path class="c" d="M438.71,236.41c4.92-.26,8.53-2.9,8.53-7.85,0-5.24-3.88-8.21-9.32-8.21h-7.98v16.06h8.76Zm-14.01-20.62h13.16c8.11,0,14.46,4.82,14.46,12.77,0,6.19-3.91,10.69-9.8,11.92l12.48,21.34h-6.06l-11.5-20.65h-7.56v20.65h-5.18v-46.03Z"/><path class="c" d="M355.97,247.03l-7.57-18.51-7.62,18.51h15.19Zm-7.57-31.3l19.12,46.02h-5.54l-4.09-10h-19.06l-4.12,10h-5.63l19.32-46.02Z"/><path class="c" d="M348.77,302.41l1.57-4.28,1.56,4.28h-3.13Zm-3.93,4.35h2.3l.91-2.55h4.56l.9,2.55h2.28l-4.67-11.73h-1.58l-4.7,11.73Zm-17.32,0h2.11v-11.73h-2.11v11.73Zm-22.43,0h7.12v-1.99h-5.01v-9.74h-2.11v11.73Zm-22.24-4.35l1.57-4.28,1.56,4.28h-3.13Zm-3.93,4.35h2.3l.91-2.55h4.56l.9,2.55h2.28l-4.67-11.73h-1.58l-4.7,11.73Zm-20.56-6.73v-3.11h1.69c1.2,0,1.96,.63,1.96,1.6,0,.88-.66,1.46-1.78,1.51h-1.86Zm-2.12,6.75h2.11v-5.03h1.41l2.89,5.03h2.41l-3.26-5.24c1.33-.46,2.29-1.58,2.29-3.06,0-2.2-1.87-3.45-4.06-3.45h-3.79v11.75Zm-21.07-.02h2.11v-9.85h3.67v-1.88h-9.46v1.88h3.68v9.85Zm-21.99,.13c2.24,0,4.08-1.34,4.08-3.55,0-3.89-5.68-3.15-5.68-5.36,0-.75,.65-1.26,1.48-1.26s1.49,.46,1.89,1.26l1.75-1.07c-.8-1.43-2.12-2.06-3.57-2.06-1.98,0-3.66,1.16-3.66,3.24,0,3.82,5.68,3.01,5.68,5.44,0,.83-.68,1.49-1.94,1.49s-2.28-.65-2.43-2.11l-2.09,.53c.37,2.31,2.41,3.44,4.49,3.44m-24.2,.03c3.15,0,4.49-1.87,4.49-4.82v-7.07h-2.11v6.92c0,1.89-.49,2.95-2.38,2.95s-2.38-1.05-2.38-2.95v-6.92h-2.1v7.16c0,2.87,1.34,4.74,4.48,4.74m-26.1-4.52l1.57-4.28,1.56,4.28h-3.13Zm-3.93,4.35h2.3l.91-2.55h4.56l.9,2.55h2.27l-4.67-11.73h-1.58l-4.7,11.73Z"/></g></svg>